<svg width="50" height="50" viewBox="0 0 50 50" fill="none" xmlns="http://www.w3.org/2000/svg">
<path d="M32.6667 20.8906H23.3333C22.0447 20.8906 21 21.9353 21 23.224V32.5573C21 33.846 22.0447 34.8906 23.3333 34.8906H32.6667C33.9553 34.8906 35 33.846 35 32.5573V23.224C35 21.9353 33.9553 20.8906 32.6667 20.8906Z" stroke="#21242a" stroke-width="1.5" stroke-linecap="round" stroke-linejoin="round"/>
<path d="M31 20.224V17.5573C31 16.85 30.719 16.1718 30.219 15.6717C29.7189 15.1716 29.0406 14.8906 28.3333 14.8906H17.6667C16.9594 14.8906 16.2811 15.1716 15.781 15.6717C15.281 16.1718 15 16.85 15 17.5573V28.224C15 28.9312 15.281 29.6095 15.781 30.1096C16.2811 30.6097 16.9594 30.8906 17.6667 30.8906H20.3333" stroke="#21242a" stroke-width="1.5" stroke-linecap="round" stroke-linejoin="round"/>
<path d="M1 0.890625H45C47.2091 0.890625 49 2.68149 49 4.89063V44.8906C49 47.0998 47.2091 48.8906 45 48.8906H1V0.890625Z" stroke="#D2D0CE"/>
</svg>
