<svg width="20" height="21" viewBox="0 0 20 21" fill="none" xmlns="http://www.w3.org/2000/svg">
<path d="M16.3888 7.55664H8.61107C7.53718 7.55664 6.66663 8.4272 6.66663 9.50109V17.2789C6.66663 18.3528 7.53718 19.2233 8.61107 19.2233H16.3888C17.4627 19.2233 18.3333 18.3528 18.3333 17.2789V9.50109C18.3333 8.4272 17.4627 7.55664 16.3888 7.55664Z" stroke="#21242a" stroke-width="1.5" stroke-linecap="round" stroke-linejoin="round"/>
<path d="M15 7.00108V4.77886C15 4.18949 14.7658 3.62426 14.3491 3.20751C13.9323 2.79077 13.3671 2.55664 12.7777 2.55664H3.88885C3.29948 2.55664 2.73425 2.79077 2.3175 3.20751C1.90075 3.62426 1.66663 4.18949 1.66663 4.77886V13.6678C1.66663 14.2571 1.90075 14.8224 2.3175 15.2391C2.73425 15.6558 3.29948 15.89 3.88885 15.89H6.11107" stroke="#21242a" stroke-width="1.5" stroke-linecap="round" stroke-linejoin="round"/>
</svg>
