<svg xmlns="http://www.w3.org/2000/svg" width="20.157" height="17.824" viewBox="0 0 20.157 17.824">
  <g id="as" transform="translate(0 -0.727)">
    <path id="Path_502" data-name="Path 502" d="M11.207,17.474H1.262a1.262,1.262,0,1,0,0,2.523H12.721a1.2,1.2,0,0,0-.045-1.559A1.941,1.941,0,0,0,11.207,17.474Z" transform="translate(0 -5.495)"/>
    <path id="Path_503" data-name="Path 503" d="M12.831,1.369,6.656,12.056a1.26,1.26,0,0,0,2.182,1.262L15.013,2.63a1.258,1.258,0,0,0-.46-1.722A1.245,1.245,0,0,0,12.831,1.369Z" transform="translate(-2.129 -0.002)"/>
    <path id="Path_504" data-name="Path 504" d="M23.628,19.04l-6.338-11a2.769,2.769,0,0,0-.92,2.123,4.9,4.9,0,0,0,.579,2.36l4.5,7.793a1.245,1.245,0,0,0,1.722.46A1.292,1.292,0,0,0,23.628,19.04Z" transform="translate(-5.371 -2.4)"/>
    <path id="Path_505" data-name="Path 505" d="M25.788,17.474H22.271a1.262,1.262,0,1,0,0,2.523h3.518a1.262,1.262,0,1,0,0-2.523Z" transform="translate(-6.893 -5.495)"/>
    <path id="Path_506" data-name="Path 506" d="M14.24,3.682,12.9,1.352a1.26,1.26,0,1,0-2.182,1.262l1.336,2.33A1.26,1.26,0,1,0,14.24,3.682Z" transform="translate(-3.464 0)"/>
    <path id="Path_507" data-name="Path 507" d="M2.724,23.526l.8-1.38s.193-.386.95-.386a2.036,2.036,0,0,1,1.633.92l-1.2,2.108a1.245,1.245,0,0,1-1.722.46A1.258,1.258,0,0,1,2.724,23.526Z" transform="translate(-0.839 -6.901)"/>
  </g>
</svg>
