<svg width="16" height="13" viewBox="0 0 16 13" fill="none" xmlns="http://www.w3.org/2000/svg">
<path d="M15.1281 6.69608C15.1281 6.46254 15.0301 6.23654 14.8569 6.0708L9.90737 1.1213C9.7115 0.932966 9.50809 0.850098 9.29715 0.850098C8.81501 0.850098 8.46847 1.1891 8.46847 1.64865C8.46847 1.88972 8.56641 2.09312 8.71708 2.24379L10.4121 3.96143L12.5968 5.9578L10.8491 5.85233H1.71847C1.21373 5.85233 0.867188 6.19887 0.867188 6.69608C0.867188 7.18576 1.21373 7.5323 1.71847 7.5323H10.8491L12.5968 7.42683L10.4121 9.4232L8.71708 11.1408C8.56641 11.2915 8.46847 11.4949 8.46847 11.736C8.46847 12.1955 8.81501 12.5345 9.29715 12.5345C9.50809 12.5345 9.7115 12.4517 9.8923 12.2784L14.8569 7.31383C15.0301 7.14809 15.1281 6.92208 15.1281 6.69608Z" fill="#0151FC"/>
</svg>
