<svg width="16" height="14" viewBox="0 0 16 14" fill="none" xmlns="http://www.w3.org/2000/svg">
<path d="M8.41431 13.3859C8.65539 13.3859 8.86632 13.2955 9.03959 13.1297L14.9006 7.39676C15.104 7.19336 15.2095 6.96735 15.2095 6.70368C15.2095 6.44001 15.104 6.19894 14.8931 6.00307L9.03206 0.277623C8.86632 0.111886 8.65539 0.0214844 8.41431 0.0214844C7.90957 0.0214844 7.5103 0.413225 7.5103 0.910435C7.5103 1.15151 7.61577 1.38504 7.78904 1.55831L13.0625 6.69615L7.78904 11.8491C7.61577 12.0223 7.5103 12.2483 7.5103 12.4969C7.5103 12.9941 7.90957 13.3859 8.41431 13.3859ZM1.67938 13.3859C1.92799 13.3859 2.13139 13.2955 2.30466 13.1297L8.16571 7.39676C8.37665 7.19336 8.47458 6.96735 8.47458 6.70368C8.47458 6.44001 8.36911 6.19894 8.16571 6.00307L2.30466 0.277623C2.13139 0.111886 1.92799 0.0214844 1.67938 0.0214844C1.17464 0.0214844 0.782898 0.413225 0.782898 0.910435C0.782898 1.15151 0.880833 1.38504 1.0541 1.55831L6.33507 6.69615L1.0541 11.8491C0.888367 12.0223 0.782898 12.2483 0.782898 12.4969C0.782898 12.9941 1.17464 13.3859 1.67938 13.3859Z" fill="url(#paint0_linear_895_294)"/>
<defs>
<linearGradient id="paint0_linear_895_294" x1="0.782898" y1="13.3859" x2="15.6657" y2="1.22185" gradientUnits="userSpaceOnUse">
<stop offset="0.411458" stop-color="#9D3EF2"/>
<stop offset="1" stop-color="#3036F4"/>
</linearGradient>
</defs>
</svg>
