<svg width="10" height="6" viewBox="0 0 10 6" fill="none" xmlns="http://www.w3.org/2000/svg">
<path d="M4.99996 5.56509C5.17575 5.56007 5.33646 5.49478 5.46704 5.35416L9.28401 1.44679C9.3945 1.3363 9.45476 1.19567 9.45476 1.02994C9.45476 0.698465 9.1936 0.432281 8.86213 0.432281C8.70142 0.432281 8.54572 0.497572 8.43021 0.613085L5.00499 4.13373L1.56972 0.613085C1.45421 0.502594 1.30354 0.432281 1.1378 0.432281C0.806327 0.432281 0.545166 0.698465 0.545166 1.02994C0.545166 1.19567 0.605434 1.3363 0.715925 1.44679L4.53791 5.35416C4.67351 5.49478 4.82418 5.56509 4.99996 5.56509Z" fill="#0151FC"/>
</svg>
