<svg width="24" height="24" viewBox="0 0 24 24" fill="none" xmlns="http://www.w3.org/2000/svg">
<path d="M12 24C18.6274 24 24 18.6274 24 12C24 5.37258 18.6274 0 12 0C5.37258 0 0 5.37258 0 12C0 18.6274 5.37258 24 12 24Z" fill="#EE1C25"/>
<path fill-rule="evenodd" clip-rule="evenodd" d="M6.3942 4.88672L7.3066 7.71081L10.2748 7.70551L7.87035 9.44553L8.79335 12.2675L6.3942 10.5179L3.9961 12.2675L4.9191 9.44553L2.51465 7.70551L5.48286 7.71081L6.3942 4.88672Z" fill="#FFFF01"/>
<path fill-rule="evenodd" clip-rule="evenodd" d="M12.2619 4.02419L13.1287 4.38237L13.7338 3.66602L13.6618 4.60173L14.5297 4.95673L13.6183 5.17608L13.5494 6.11179L13.0577 5.31278L12.1475 5.53638L12.7557 4.82214L12.2619 4.02419Z" fill="#FFFF01"/>
<path fill-rule="evenodd" clip-rule="evenodd" d="M15.4054 6.43945L16.056 7.11554L16.8985 6.7012L16.4566 7.52988L17.1104 8.20279L16.1864 8.03853L15.7487 8.86828L15.6195 7.93892L14.6943 7.77891L15.5379 7.36775L15.4054 6.43945Z" fill="#FFFF01"/>
<path fill-rule="evenodd" clip-rule="evenodd" d="M15.9536 10.4824L16.2545 11.3715L17.1924 11.3567L16.44 11.9173L16.7441 12.8053L15.978 12.2627L15.2288 12.8254L15.5075 11.93L14.7402 11.3906L15.6781 11.3789L15.9536 10.4824Z" fill="#FFFF01"/>
<path fill-rule="evenodd" clip-rule="evenodd" d="M13.6638 13.293L13.6394 14.2308L14.5242 14.5402L13.6246 14.8062L13.6034 15.744L13.0725 14.9715L12.1738 15.2407L12.745 14.4968L12.2109 13.7253L13.0958 14.039L13.6638 13.293Z" fill="#FFFF01"/>
</svg>
