<svg xmlns="http://www.w3.org/2000/svg" width="16.437" height="18.343" viewBox="0 0 16.437 18.343">
  <g id="Groupgg" transform="translate(-0.962 -0.478)">
    <path id="Path_508" data-name="Path 508" d="M1.333,18.82l8.746-9.071L1.34.694a1.009,1.009,0,0,0-.378.895V17.934A1.029,1.029,0,0,0,1.333,18.82Z" transform="translate(0 -0.12)"/>
    <path id="Path_509" data-name="Path 509" d="M11.432,9.379l2.605-2.7L3.428.642A1.142,1.142,0,0,0,2.84.478l8.591,8.9Z" transform="translate(-1.04 0)"/>
    <path id="Path_510" data-name="Path 510" d="M11.4,21.551,2.781,30.49a1.137,1.137,0,0,0,.615-.169l10.63-6.05Z" transform="translate(-1.007 -11.67)"/>
    <path id="Path_511" data-name="Path 511" d="M28.844,16.78l-3.53-2.012-2.676,2.776,2.7,2.794,3.51-2.006A.818.818,0,0,0,28.844,16.78Z" transform="translate(-12.004 -7.914)"/>
  </g>
</svg>
