<svg width="48" height="48" viewBox="0 0 48 48" fill="none" xmlns="http://www.w3.org/2000/svg">
<path d="M18.7784 22.4041L16.8062 24.3764C15.9974 25.1852 15.543 26.2822 15.543 27.426C15.543 28.5699 15.9974 29.6669 16.8062 30.4757C17.615 31.2845 18.712 31.7389 19.8558 31.7389C20.9997 31.7389 22.0967 31.2845 22.9055 30.4757L25.5332 27.8465C26.021 27.3587 26.3846 26.761 26.5935 26.1036C26.8025 25.4462 26.8507 24.7483 26.7341 24.0684C26.6175 23.3885 26.3395 22.7465 25.9234 22.1963C25.5074 21.6461 24.9654 21.2037 24.343 20.9062L23.5006 21.7486C23.4151 21.8343 23.3407 21.9304 23.2792 22.0347C23.7601 22.1729 24.1966 22.4343 24.5455 22.7929C24.8944 23.1515 25.1437 23.595 25.2687 24.0795C25.3937 24.564 25.3901 25.0727 25.2583 25.5554C25.1264 26.0381 24.8709 26.478 24.5169 26.8316L21.8906 29.4594C21.3511 29.9988 20.6195 30.3019 19.8566 30.3019C19.0936 30.3019 18.362 29.9988 17.8225 29.4594C17.283 28.9199 16.98 28.1882 16.98 27.4253C16.98 26.6624 17.283 25.9307 17.8225 25.3913L18.9624 24.2528C18.8016 23.65 18.7395 23.0253 18.7784 22.4027V22.4041Z" fill="#5B616E"/>
<path d="M21.4699 19.7159C20.9822 20.2037 20.6186 20.8014 20.4096 21.4588C20.2007 22.1162 20.1525 22.8142 20.2691 23.494C20.3857 24.1739 20.6637 24.8159 21.0797 25.3661C21.4958 25.9164 22.0378 26.3587 22.6602 26.6562L23.7742 25.5407C23.2868 25.4099 22.8424 25.1532 22.4857 24.7963C22.129 24.4394 21.8724 23.9949 21.7419 23.5075C21.6114 23.02 21.6114 22.5068 21.7421 22.0194C21.8728 21.532 22.1294 21.0876 22.4862 20.7308L25.1125 18.103C25.652 17.5636 26.3837 17.2605 27.1466 17.2605C27.9095 17.2605 28.6412 17.5636 29.1807 18.103C29.7201 18.6425 30.0232 19.3742 30.0232 20.1371C30.0232 20.9 29.7201 21.6317 29.1807 22.1712L28.0407 23.3097C28.2017 23.9134 28.2635 24.5387 28.2247 25.1597L30.197 23.1875C31.0058 22.3787 31.4602 21.2817 31.4602 20.1378C31.4602 18.994 31.0058 17.897 30.197 17.0882C29.3882 16.2793 28.2912 15.825 27.1473 15.825C26.0035 15.825 24.9065 16.2793 24.0977 17.0882L21.4699 19.7159Z" fill="#5B616E"/>
<circle cx="24" cy="24" r="23.5" stroke="#DBDBDB"/>
</svg>
