<svg width="40" height="40" viewBox="0 0 40 40" fill="none" xmlns="http://www.w3.org/2000/svg">
<path d="M35.3772 32.7569C37.4301 30.2887 38.8579 27.3628 39.5398 24.2266C40.2217 21.0904 40.1377 17.8363 39.2949 14.7394C38.452 11.6425 36.8752 8.79404 34.6978 6.43494C32.5203 4.07583 29.8063 2.27549 26.7852 1.18622C23.7642 0.0969487 20.5251 -0.249208 17.3419 0.177033C14.1587 0.603273 11.1251 1.78937 8.49762 3.63499C5.87016 5.48061 3.72619 7.93144 2.24707 10.7802C0.767949 13.6289 -0.00280541 16.7917 7.67273e-06 20.0011C0.00108715 24.6666 1.64636 29.1827 4.64712 32.7569L4.61853 32.7812C4.71859 32.9012 4.83295 33.004 4.93587 33.1226C5.06452 33.2697 5.20317 33.4082 5.33611 33.5511C5.73635 33.9853 6.14803 34.4024 6.57972 34.7938C6.71123 34.9138 6.84703 35.0252 6.97997 35.1395C7.43739 35.5337 7.90767 35.908 8.39511 36.2565C8.45801 36.2994 8.51519 36.3551 8.57808 36.3994V36.3822C11.926 38.7365 15.9198 40 20.0136 40C24.1074 40 28.1012 38.7365 31.4491 36.3822V36.3994C31.512 36.3551 31.5678 36.2994 31.6321 36.2565C32.1181 35.9065 32.5898 35.5337 33.0472 35.1395C33.1802 35.0252 33.316 34.9124 33.4475 34.7938C33.8792 34.401 34.2909 33.9853 34.6911 33.5511C34.824 33.4082 34.9613 33.2697 35.0913 33.1226C35.1928 33.004 35.3086 32.9012 35.4087 32.7797L35.3772 32.7569ZM20.0122 8.57374C21.2844 8.57374 22.5281 8.95073 23.5859 9.65703C24.6437 10.3633 25.4682 11.3672 25.955 12.5418C26.4419 13.7163 26.5693 15.0088 26.3211 16.2556C26.0729 17.5025 25.4602 18.6479 24.5606 19.5468C23.661 20.4458 22.5149 21.058 21.2671 21.306C20.0193 21.554 18.726 21.4267 17.5506 20.9402C16.3752 20.4537 15.3706 19.6298 14.6638 18.5728C13.957 17.5157 13.5797 16.2729 13.5797 15.0016C13.5797 13.2968 14.2574 11.6619 15.4637 10.4564C16.67 9.25096 18.3062 8.57374 20.0122 8.57374V8.57374ZM8.58666 32.7569C8.61145 30.8813 9.3742 29.0909 10.7099 27.773C12.0456 26.4551 13.8468 25.7157 15.7239 25.7148H24.3005C26.1776 25.7157 27.9788 26.4551 29.3145 27.773C30.6502 29.0909 31.4129 30.8813 31.4377 32.7569C28.3027 35.5799 24.2323 37.1422 20.0122 37.1422C15.7921 37.1422 11.7216 35.5799 8.58666 32.7569V32.7569Z" fill="#B3BCDD"/>
</svg>
