<svg width="24" height="24" viewBox="0 0 24 24" fill="none" xmlns="http://www.w3.org/2000/svg">
<path d="M11.9999 18.7534C11.5522 18.7534 11.1227 18.5755 10.8061 18.2589C10.4895 17.9422 10.3116 17.5128 10.3116 17.065C10.3116 16.6172 10.4895 16.1878 10.8061 15.8712C11.1227 15.5545 11.5522 15.3767 11.9999 15.3767C12.4477 15.3767 12.8771 15.5545 13.1938 15.8712C13.5104 16.1878 13.6883 16.6172 13.6883 17.065C13.6883 17.5128 13.5104 17.9422 13.1938 18.2589C12.8771 18.5755 12.4477 18.7534 11.9999 18.7534ZM11.9999 13.6883C11.5522 13.6883 11.1227 13.5104 10.8061 13.1938C10.4895 12.8772 10.3116 12.4478 10.3116 12C10.3116 11.5522 10.4895 11.1228 10.8061 10.8061C11.1227 10.4895 11.5522 10.3116 11.9999 10.3116C12.4477 10.3116 12.8771 10.4895 13.1938 10.8061C13.5104 11.1228 13.6883 11.5522 13.6883 12C13.6883 12.4478 13.5104 12.8772 13.1938 13.1938C12.8771 13.5104 12.4477 13.6883 11.9999 13.6883ZM11.9999 8.62328C11.5522 8.62328 11.1227 8.4454 10.8061 8.12877C10.4895 7.81215 10.3116 7.38271 10.3116 6.93493C10.3116 6.48715 10.4895 6.05771 10.8061 5.74109C11.1227 5.42446 11.5522 5.24658 11.9999 5.24658C12.4477 5.24658 12.8771 5.42446 13.1938 5.74109C13.5104 6.05771 13.6883 6.48715 13.6883 6.93493C13.6883 7.38271 13.5104 7.81215 13.1938 8.12877C12.8771 8.4454 12.4477 8.62328 11.9999 8.62328Z" fill="white"/>
</svg>
