<svg width="22" height="22" viewBox="0 0 22 22" fill="none" xmlns="http://www.w3.org/2000/svg">
<path d="M19 11V21H3V11" stroke="#605E5C" stroke-width="1.6" stroke-linecap="round" stroke-linejoin="round"/>
<path d="M21.0001 6H1.00006V11H21.0001V6Z" stroke="#605E5C" stroke-width="1.6" stroke-linecap="round" stroke-linejoin="round"/>
<path d="M11 21V6" stroke="#605E5C" stroke-width="1.6" stroke-linecap="round" stroke-linejoin="round"/>
<path d="M11.0001 6H6.50006C5.83702 6 5.20114 5.73661 4.73229 5.26777C4.26345 4.79892 4.00006 4.16304 4.00006 3.5C4.00006 2.83696 4.26345 2.20107 4.73229 1.73223C5.20114 1.26339 5.83702 1 6.50006 1C10.0001 1 11.0001 6 11.0001 6Z" stroke="#605E5C" stroke-width="1.6" stroke-linecap="round" stroke-linejoin="round"/>
<path d="M11 6H15.5C16.163 6 16.7989 5.73661 17.2678 5.26777C17.7366 4.79892 18 4.16304 18 3.5C18 2.83696 17.7366 2.20107 17.2678 1.73223C16.7989 1.26339 16.163 1 15.5 1C12 1 11 6 11 6Z" stroke="#605E5C" stroke-width="1.6" stroke-linecap="round" stroke-linejoin="round"/>
</svg>
