<svg width="24" height="24" viewBox="0 0 24 24" fill="none" xmlns="http://www.w3.org/2000/svg">
<path d="M19.9999 12V22H3.99988V12" stroke="url(#paint0_linear_1456_14542)" stroke-width="1.6" stroke-linecap="round" stroke-linejoin="round"/>
<path d="M22 7H2V12H22V7Z" stroke="url(#paint1_linear_1456_14542)" stroke-width="1.6" stroke-linecap="round" stroke-linejoin="round"/>
<path d="M12 22V7" stroke="url(#paint2_linear_1456_14542)" stroke-width="1.6" stroke-linecap="round" stroke-linejoin="round"/>
<path d="M12 7H7.5C6.83696 7 6.20107 6.73661 5.73223 6.26777C5.26339 5.79892 5 5.16304 5 4.5C5 3.83696 5.26339 3.20107 5.73223 2.73223C6.20107 2.26339 6.83696 2 7.5 2C11 2 12 7 12 7Z" stroke="url(#paint3_linear_1456_14542)" stroke-width="1.6" stroke-linecap="round" stroke-linejoin="round"/>
<path d="M12 7H16.5C17.163 7 17.7989 6.73661 18.2678 6.26777C18.7366 5.79892 19 5.16304 19 4.5C19 3.83696 18.7366 3.20107 18.2678 2.73223C17.7989 2.26339 17.163 2 16.5 2C13 2 12 7 12 7Z" stroke="url(#paint4_linear_1456_14542)" stroke-width="1.6" stroke-linecap="round" stroke-linejoin="round"/>
<defs>
<linearGradient id="paint0_linear_1456_14542" x1="3.99988" y1="22" x2="15.1575" y2="8.48332" gradientUnits="userSpaceOnUse">
<stop offset="0.411458" stop-color="#9D3EF2"/>
<stop offset="1" stop-color="#3036F4"/>
</linearGradient>
<linearGradient id="paint1_linear_1456_14542" x1="2" y1="12" x2="5.38325" y2="1.75361" gradientUnits="userSpaceOnUse">
<stop offset="0.411458" stop-color="#9D3EF2"/>
<stop offset="1" stop-color="#3036F4"/>
</linearGradient>
<linearGradient id="paint2_linear_1456_14542" x1="12" y1="22" x2="13.7164" y2="21.9134" gradientUnits="userSpaceOnUse">
<stop offset="0.411458" stop-color="#9D3EF2"/>
<stop offset="1" stop-color="#3036F4"/>
</linearGradient>
<linearGradient id="paint3_linear_1456_14542" x1="5" y1="7" x2="10.6721" y2="0.987551" gradientUnits="userSpaceOnUse">
<stop offset="0.411458" stop-color="#9D3EF2"/>
<stop offset="1" stop-color="#3036F4"/>
</linearGradient>
<linearGradient id="paint4_linear_1456_14542" x1="12" y1="7" x2="17.6721" y2="0.987552" gradientUnits="userSpaceOnUse">
<stop offset="0.411458" stop-color="#9D3EF2"/>
<stop offset="1" stop-color="#3036F4"/>
</linearGradient>
</defs>
</svg>
