<svg width="48" height="48" viewBox="0 0 48 48" fill="none" xmlns="http://www.w3.org/2000/svg">
<path d="M15.2617 24.2469C15.2622 26.388 16.0236 28.4587 17.409 30.0868C18.7944 31.7149 20.713 32.7936 22.8199 33.1292V26.8454H20.5471V24.2469H22.8226V22.2689C22.7723 21.806 22.8242 21.3376 22.9747 20.897C23.1251 20.4565 23.3704 20.0546 23.693 19.7199C24.0156 19.3852 24.4077 19.1259 24.8414 18.9604C25.2751 18.7949 25.7398 18.7273 26.2025 18.7624C26.8744 18.7732 27.5463 18.8334 28.2092 18.9422V21.1531H27.0769C26.8844 21.1278 26.6888 21.1463 26.5044 21.2071C26.32 21.2679 26.1515 21.3695 26.0115 21.5044C25.8715 21.6393 25.7635 21.8041 25.6955 21.9865C25.6274 22.1689 25.6011 22.3644 25.6184 22.5584V24.2469H28.1008L27.7039 26.8463H25.6184V33.1292C27.3094 32.861 28.8884 32.1121 30.1685 30.9711C31.4486 29.8302 32.3761 28.345 32.8413 26.6914C33.3065 25.0379 33.2899 23.2851 32.7933 21.6407C32.2968 19.9964 31.3412 18.5292 30.0397 17.413C28.7382 16.2968 27.1452 15.5782 25.4495 15.3424C23.7537 15.1066 22.0261 15.3634 20.4712 16.0825C18.9163 16.8015 17.5993 17.9526 16.6761 19.3996C15.7528 20.8465 15.262 22.5287 15.2617 24.2469Z" fill="#5B616E"/>
<circle cx="24" cy="24" r="23.5" stroke="#DBDBDB"/>
</svg>
