<svg width="40" height="40" viewBox="0 0 40 40" fill="none" xmlns="http://www.w3.org/2000/svg">
<rect width="40" height="40" rx="20" fill="white" fill-opacity="0.1"/>
<path d="M23 29.0004V25.5004C23 24.5004 23.1 24.1004 22.5 23.5004C25.3 23.2004 28 22.1004 28 17.5004C27.9988 16.3054 27.5325 15.1577 26.7 14.3004C27.0905 13.2624 27.0545 12.1121 26.6 11.1004C26.6 11.1004 25.5 10.8004 23.1 12.4004C21.0672 11.871 18.9328 11.871 16.9 12.4004C14.5 10.8004 13.4 11.1004 13.4 11.1004C12.9455 12.1121 12.9095 13.2624 13.3 14.3004C12.4675 15.1577 12.0012 16.3054 12 17.5004C12 22.1004 14.7 23.2004 17.5 23.5004C16.9 24.1004 16.9 24.7004 17 25.5004V29.0004M17 27.0004C12.7 28.4004 12.7 24.5004 11 24.0004L17 27.0004Z" stroke="#ECECEC" stroke-width="1.75" stroke-linecap="round" stroke-linejoin="round"/>
</svg>
