<svg width="32" height="32" viewBox="0 0 32 32" fill="none" xmlns="http://www.w3.org/2000/svg">
<g opacity="0.5">
<rect width="32" height="32" rx="4" fill="#0E0B23"/>
<path d="M7 13.4932C7 17.2461 10.1553 20.9551 15.0596 24.1191C15.332 24.2949 15.666 24.4707 15.8945 24.4707C16.123 24.4707 16.457 24.2949 16.7295 24.1191C21.6426 20.9551 24.7891 17.2461 24.7891 13.4932C24.7891 10.25 22.5479 8 19.6738 8C17.9951 8 16.6855 8.76465 15.8945 9.9248C15.1211 8.77344 13.8027 8 12.124 8C9.24121 8 7 10.25 7 13.4932ZM8.81055 13.4844C8.81055 11.2695 10.2695 9.7666 12.2295 9.7666C13.8115 9.7666 14.6992 10.7246 15.2529 11.5596C15.499 11.9199 15.666 12.0342 15.8945 12.0342C16.1318 12.0342 16.2812 11.9111 16.5361 11.5596C17.1338 10.7422 17.9863 9.7666 19.5596 9.7666C21.5283 9.7666 22.9873 11.2695 22.9873 13.4844C22.9873 16.5781 19.7705 20.0059 16.0615 22.4668C15.9824 22.5195 15.9297 22.5547 15.8945 22.5547C15.8594 22.5547 15.8066 22.5195 15.7363 22.4668C12.0273 20.0059 8.81055 16.5781 8.81055 13.4844Z" fill="white"/>
</g>
</svg>
