<svg width="16" height="16" viewBox="0 0 16 16" fill="none" xmlns="http://www.w3.org/2000/svg">
<g opacity="0.8">
<path d="M10.6266 7.75725C11.7265 7.75725 12.6556 6.78292 12.6556 5.52232C12.6556 4.29185 11.7215 3.34766 10.6266 3.34766C9.53678 3.34766 8.5976 4.30692 8.60263 5.53237C8.60263 6.78292 9.52673 7.75725 10.6266 7.75725ZM4.82082 7.87277C5.78008 7.87277 6.58868 7.01897 6.58868 5.92411C6.58868 4.84933 5.77004 4.03069 4.82082 4.03069C3.8716 4.03069 3.05296 4.8644 3.05798 5.93415C3.05798 7.01897 3.86658 7.87277 4.82082 7.87277ZM2.05352 12.433H5.82026C5.28287 11.6646 5.86044 10.1479 6.99548 9.25391C6.44303 8.89732 5.72484 8.63616 4.82082 8.63616C2.57584 8.63616 1.12439 10.2885 1.12439 11.6496C1.12439 12.1468 1.37551 12.433 2.05352 12.433ZM7.49772 12.428H13.7555C14.5842 12.428 14.8705 12.1769 14.8705 11.7148C14.8705 10.4241 13.2282 8.64621 10.6266 8.64621C8.02004 8.64621 6.38276 10.4241 6.38276 11.7148C6.38276 12.1769 6.66903 12.428 7.49772 12.428Z" fill="#0A0B0D"/>
</g>
</svg>
