<svg width="22" height="22" viewBox="0 0 22 22" fill="none" xmlns="http://www.w3.org/2000/svg">
    <path d="M18.6667 7H9.33333C8.04467 7 7 8.04467 7 9.33333V18.6667C7 19.9553 8.04467 21 9.33333 21H18.6667C19.9553 21 21 19.9553 21 18.6667V9.33333C21 8.04467 19.9553 7 18.6667 7Z" stroke="#0A0B0D" stroke-width="1.5" stroke-linecap="round" stroke-linejoin="round"/>
    <path d="M17 6.33333V3.66667C17 2.95942 16.719 2.28115 16.219 1.78105C15.7189 1.28095 15.0406 1 14.3333 1H3.66667C2.95942 1 2.28115 1.28095 1.78105 1.78105C1.28095 2.28115 1 2.95942 1 3.66667V14.3333C1 15.0406 1.28095 15.7189 1.78105 16.219C2.28115 16.719 2.95942 17 3.66667 17H6.33333" stroke="#0A0B0D" stroke-width="1.5" stroke-linecap="round" stroke-linejoin="round"/>
</svg>
