<svg width="32" height="32" viewBox="0 0 32 32" fill="none" xmlns="http://www.w3.org/2000/svg">
<path d="M15.9902 25.9911C21.6855 25.9911 26.3864 21.2902 26.3864 15.6049C26.3864 9.91964 21.6754 5.21875 15.9801 5.21875C10.2949 5.21875 5.604 9.91964 5.604 15.6049C5.604 21.2902 10.3049 25.9911 15.9902 25.9911ZM13.7 15.9063C13.7 12.7221 14.5136 9.5279 16.0605 7.29799C20.45 7.33817 23.9957 10.7333 24.287 15.0525C22.0471 16.6094 18.8529 17.433 15.6587 17.433C15.0158 17.433 14.383 17.4029 13.7502 17.3225C13.7201 16.8605 13.7 16.3884 13.7 15.9063ZM11.7614 15.9063C11.7614 16.2679 11.7714 16.6194 11.7915 16.981C10.2446 16.6094 8.82833 15.9967 7.70333 15.1529C7.89418 11.5167 10.3752 8.52344 13.7502 7.59933C12.4444 9.93973 11.7614 12.923 11.7614 15.9063ZM15.6587 19.3717C18.7123 19.3717 21.7759 18.6585 24.1364 17.2824C23.373 21.0792 20.0382 23.9018 16.0203 23.9219C15.0661 22.6663 14.4132 21.0592 14.0415 19.3013C14.5739 19.3415 15.1163 19.3717 15.6587 19.3717ZM7.89418 17.4431C9.10958 18.1663 10.5259 18.6786 12.0326 19C12.3239 20.6674 12.8562 22.2344 13.6397 23.5804C10.7569 22.7366 8.54708 20.3962 7.89418 17.4431Z" fill="white"/>
</svg>
