<svg width="20" height="20" viewBox="0 0 20 20" fill="none" xmlns="http://www.w3.org/2000/svg">
<path d="M5.13528 13.6084C4.87161 13.872 4.85905 14.3429 5.14156 14.6191C5.41778 14.8953 5.88863 14.889 6.1523 14.6254L9.99437 10.777L13.8427 14.6254C14.1127 14.8953 14.5772 14.8953 14.8535 14.6191C15.1234 14.3366 15.1297 13.8783 14.8535 13.6084L11.0114 9.76L14.8535 5.91792C15.1297 5.64797 15.1297 5.18341 14.8535 4.90718C14.571 4.63723 14.1127 4.63095 13.8427 4.9009L9.99437 8.74926L6.1523 4.9009C5.88863 4.63723 5.41151 4.62468 5.14156 4.90718C4.86533 5.18341 4.87161 5.65425 5.13528 5.91792L8.98363 9.76L5.13528 13.6084Z" fill="#5B616E"/>
</svg>
