<svg width="10" height="10" viewBox="0 0 10 10" fill="none" xmlns="http://www.w3.org/2000/svg">
<path d="M0.938012 7.81037C0.674341 8.07404 0.661785 8.54489 0.94429 8.81484C1.21424 9.09734 1.69136 9.08479 1.95503 8.82111L4.99981 5.77633L8.0446 8.82111C8.31455 9.09106 8.77911 9.09734 9.04906 8.81484C9.33157 8.54489 9.32529 8.07404 9.05534 7.80409L6.01056 4.75931L9.05534 1.72081C9.32529 1.44458 9.33157 0.980015 9.04906 0.710066C8.77911 0.42756 8.31455 0.433838 8.0446 0.703788L4.99981 3.74857L1.95503 0.703788C1.69136 0.440116 1.21424 0.42756 0.94429 0.710066C0.661785 0.980015 0.674341 1.45086 0.938012 1.71453L3.9828 4.75931L0.938012 7.81037Z" fill="url(#paint0_linear_755_145)"/>
<defs>
<linearGradient id="paint0_linear_755_145" x1="0.736328" y1="9.02515" x2="10.0603" y2="1.96753" gradientUnits="userSpaceOnUse">
<stop offset="0.411458" stop-color="#9D3EF2"/>
<stop offset="1" stop-color="#3036F4"/>
</linearGradient>
</defs>
</svg>
