<svg width="18" height="12" viewBox="0 0 18 12" fill="none" xmlns="http://www.w3.org/2000/svg">
<path d="M9.0014 0.871099C9.353 0.881099 9.6744 1.0117 9.9355 1.293L17.5695 9.1077C17.7905 9.3287 17.911 9.6099 17.911 9.9414C17.911 10.6044 17.3887 11.1367 16.7257 11.1367C16.4043 11.1367 16.0929 11.0061 15.8619 10.7751L9.0114 3.7338L2.1409 10.7751C1.9099 10.9961 1.6085 11.1367 1.2771 11.1367C0.6141 11.1367 0.0918007 10.6044 0.0918007 9.9414C0.0918007 9.6099 0.2123 9.3287 0.4333 9.1077L8.0773 1.293C8.3485 1.0117 8.6498 0.871099 9.0014 0.871099Z" fill="white"/>
</svg>
