<svg width="28" height="28" viewBox="0 0 28 28" fill="none" xmlns="http://www.w3.org/2000/svg">
<path d="M13.9952 24C19.4761 24 24 19.4739 24 14C24 8.52611 19.4664 4 13.9855 4C8.51426 4 4 8.52611 4 14C4 19.4739 8.52392 24 13.9952 24ZM13.9952 17.3462C11.2692 17.3462 9.15225 18.323 8.1276 19.4449C6.81295 18.0232 6.01063 16.1083 6.01063 14C6.01063 9.56093 9.55824 6.00193 13.9855 6.00193C18.4224 6.00193 21.9894 9.56093 21.999 14C21.999 16.1083 21.1967 18.0232 19.8724 19.4545C18.8478 18.323 16.7308 17.3462 13.9952 17.3462ZM13.9952 15.7602C15.8705 15.7795 17.3301 14.1741 17.3301 12.1044C17.3301 10.1509 15.8608 8.51644 13.9952 8.51644C12.1392 8.51644 10.6602 10.1509 10.6699 12.1044C10.6796 14.1741 12.1295 15.7505 13.9952 15.7602Z" fill="currentColor"/>
</svg>
