<svg width="24" height="24" viewBox="0 0 24 24" fill="none" xmlns="http://www.w3.org/2000/svg">
<path fill-rule="evenodd" clip-rule="evenodd" d="M8.91386 4.21255C9.77565 4.17288 10.0504 4.16406 12.2457 4.16406C14.441 4.16406 14.7157 4.17361 15.5768 4.21255C16.4379 4.25149 17.0256 4.38888 17.5399 4.58798C18.0784 4.79149 18.567 5.10961 18.9711 5.52104C19.3825 5.92439 19.6999 6.41223 19.9027 6.95149C20.1025 7.46578 20.2392 8.05353 20.2788 8.91312C20.3185 9.77639 20.3273 10.0512 20.3273 12.2457C20.3273 14.441 20.3178 14.7157 20.2788 15.5775C20.2399 16.4371 20.1025 17.0249 19.9027 17.5392C19.6999 18.0785 19.382 18.5671 18.9711 18.9711C18.567 19.3825 18.0784 19.6999 17.5399 19.9027C17.0256 20.1025 16.4379 20.2392 15.5783 20.2788C14.7157 20.3185 14.441 20.3273 12.2457 20.3273C10.0504 20.3273 9.77565 20.3178 8.91386 20.2788C8.05427 20.2399 7.46651 20.1025 6.95223 19.9027C6.4129 19.6999 5.92426 19.382 5.52031 18.9711C5.10916 18.5675 4.79099 18.0791 4.58798 17.5399C4.38888 17.0256 4.25223 16.4379 4.21255 15.5783C4.17288 14.715 4.16406 14.4402 4.16406 12.2457C4.16406 10.0504 4.17361 9.77565 4.21255 8.91459C4.25149 8.05353 4.38888 7.46578 4.58798 6.95149C4.79129 6.41229 5.1097 5.92388 5.52104 5.52031C5.92442 5.10925 6.41257 4.79108 6.95149 4.58798C7.46578 4.38888 8.05353 4.25223 8.91312 4.21255H8.91386ZM15.5114 5.66725C14.6592 5.62831 14.4035 5.62023 12.2457 5.62023C10.0879 5.62023 9.83222 5.62831 8.97998 5.66725C8.19165 5.70325 7.76406 5.83476 7.479 5.94569C7.1021 6.09263 6.83247 6.26676 6.54961 6.54961C6.28148 6.81047 6.07513 7.12802 5.94569 7.479C5.83476 7.76406 5.70325 8.19165 5.66725 8.97998C5.62831 9.83222 5.62023 10.0879 5.62023 12.2457C5.62023 14.4035 5.62831 14.6592 5.66725 15.5114C5.70325 16.2997 5.83476 16.7273 5.94569 17.0124C6.075 17.3628 6.28145 17.681 6.54961 17.9418C6.81043 18.2099 7.12855 18.4164 7.479 18.5457C7.76406 18.6566 8.19165 18.7881 8.97998 18.8241C9.83222 18.8631 10.0872 18.8712 12.2457 18.8712C14.4042 18.8712 14.6592 18.8631 15.5114 18.8241C16.2997 18.7881 16.7273 18.6566 17.0124 18.5457C17.3893 18.3988 17.6589 18.2246 17.9418 17.9418C18.2099 17.681 18.4164 17.3628 18.5457 17.0124C18.6566 16.7273 18.7881 16.2997 18.8241 15.5114C18.8631 14.6592 18.8712 14.4035 18.8712 12.2457C18.8712 10.0879 18.8631 9.83222 18.8241 8.97998C18.7881 8.19165 18.6566 7.76406 18.5457 7.479C18.3988 7.1021 18.2246 6.83247 17.9418 6.54961C17.6809 6.2815 17.3634 6.07516 17.0124 5.94569C16.7273 5.83476 16.2997 5.70325 15.5114 5.66725V5.66725ZM11.2134 14.737C11.7899 14.977 12.4318 15.0094 13.0296 14.8287C13.6273 14.6479 14.1437 14.2653 14.4906 13.7461C14.8376 13.2269 14.9935 12.6034 14.9318 11.982C14.87 11.3606 14.5945 10.78 14.1522 10.3392C13.8703 10.0574 13.5294 9.84164 13.154 9.70743C12.7787 9.57323 12.3783 9.52392 11.9816 9.56304C11.5849 9.60217 11.2018 9.72876 10.8599 9.93371C10.518 10.1387 10.2258 10.4169 10.0044 10.7483C9.7829 11.0797 9.63767 11.4561 9.57913 11.8504C9.5206 12.2447 9.55021 12.6471 9.66585 13.0285C9.78148 13.41 9.98025 13.7611 10.2479 14.0565C10.5155 14.3519 10.8452 14.5844 11.2134 14.737ZM9.30839 9.30839C9.69412 8.92266 10.1521 8.61668 10.656 8.40792C11.16 8.19916 11.7002 8.09172 12.2457 8.09172C12.7912 8.09172 13.3314 8.19916 13.8354 8.40792C14.3393 8.61668 14.7973 8.92266 15.183 9.30839C15.5687 9.69412 15.8747 10.1521 16.0835 10.656C16.2922 11.16 16.3997 11.7002 16.3997 12.2457C16.3997 12.7912 16.2922 13.3314 16.0835 13.8354C15.8747 14.3393 15.5687 14.7973 15.183 15.183C14.404 15.962 13.3474 16.3997 12.2457 16.3997C11.144 16.3997 10.0874 15.962 9.30839 15.183C8.52937 14.404 8.09172 13.3474 8.09172 12.2457C8.09172 11.144 8.52937 10.0874 9.30839 9.30839V9.30839ZM17.321 8.71035C17.4165 8.62018 17.4931 8.51175 17.546 8.39147C17.5989 8.2712 17.6272 8.14152 17.6291 8.01013C17.631 7.87874 17.6066 7.7483 17.5571 7.62653C17.5077 7.50477 17.4344 7.39415 17.3415 7.30123C17.2486 7.20832 17.138 7.13499 17.0162 7.08559C16.8944 7.03618 16.764 7.01172 16.6326 7.01363C16.5012 7.01555 16.3715 7.04381 16.2513 7.09674C16.131 7.14967 16.0226 7.22619 15.9324 7.32178C15.757 7.50768 15.661 7.7546 15.6647 8.01013C15.6685 8.26567 15.7716 8.50969 15.9523 8.6904C16.133 8.8711 16.3771 8.97427 16.6326 8.978C16.8881 8.98172 17.1351 8.88571 17.321 8.71035V8.71035Z" fill="#0A0B0D"/>
</svg>
