<svg width="24" height="24" viewBox="0 0 24 24" fill="none" xmlns="http://www.w3.org/2000/svg">
<path d="M19.1281 11.6961C19.1281 11.4625 19.0301 11.2365 18.8569 11.0708L13.9074 6.1213C13.7115 5.93297 13.5081 5.8501 13.2972 5.8501C12.815 5.8501 12.4685 6.1891 12.4685 6.64865C12.4685 6.88972 12.5664 7.09312 12.7171 7.24379L14.4121 8.96143L16.5968 10.9578L14.8491 10.8523H5.71847C5.21373 10.8523 4.86719 11.1989 4.86719 11.6961C4.86719 12.1858 5.21373 12.5323 5.71847 12.5323H14.8491L16.5968 12.4268L14.4121 14.4232L12.7171 16.1408C12.5664 16.2915 12.4685 16.4949 12.4685 16.736C12.4685 17.1955 12.815 17.5345 13.2972 17.5345C13.5081 17.5345 13.7115 17.4517 13.8923 17.2784L18.8569 12.3138C19.0301 12.1481 19.1281 11.9221 19.1281 11.6961Z" fill="#0151FC"/>
</svg>
