<svg width="32" height="32" viewBox="0 0 32 32" fill="none" xmlns="http://www.w3.org/2000/svg">
<path d="M29.37 15.6052C29.37 11.8686 26.9994 9.42773 23.4939 9.42773C21.6557 9.42773 20.0787 10.2012 18.3912 11.8384L15.9905 14.1487L13.5999 11.8384C11.9124 10.2012 10.3354 9.42773 8.49721 9.42773C4.99163 9.42773 2.62109 11.8686 2.62109 15.6052C2.62109 19.3418 4.99163 21.7826 8.49721 21.7826C10.3354 21.7826 11.9124 20.9992 13.5999 19.3719L15.9905 17.0516L18.3912 19.3719C20.0787 20.9992 21.6557 21.7826 23.4939 21.7826C26.9994 21.7826 29.37 19.3418 29.37 15.6052ZM14.4939 15.6052L12.0932 17.8552C10.8276 19.0505 9.72266 19.6431 8.49721 19.6431C6.27734 19.6431 4.7606 18.0561 4.7606 15.6052C4.7606 13.1443 6.27734 11.5672 8.49721 11.5672C9.72266 11.5672 10.8276 12.1599 12.1032 13.3552L14.4939 15.6052ZM17.4972 15.6052L19.8878 13.3552C21.1635 12.1599 22.2584 11.5672 23.4939 11.5672C25.7137 11.5672 27.2305 13.1443 27.2305 15.6052C27.2305 18.0561 25.7137 19.6431 23.4939 19.6431C22.2684 19.6431 21.1635 19.0505 19.8979 17.8552L17.4972 15.6052Z" fill="#89909E"/>
</svg>
