<svg width="24" height="24" viewBox="0 0 24 24" fill="none" xmlns="http://www.w3.org/2000/svg">
<path d="M8.15283 11.9999C8.16036 12.2636 8.2583 12.5047 8.46924 12.7006L14.3303 18.426C14.496 18.5917 14.707 18.6821 14.9556 18.6821C15.4528 18.6821 15.8521 18.2904 15.8521 17.7932C15.8521 17.5521 15.7541 17.3186 15.5808 17.1453L10.2999 12.0075L15.5808 6.85458C15.7466 6.68131 15.8521 6.4553 15.8521 6.2067C15.8521 5.70949 15.4528 5.31775 14.9556 5.31775C14.707 5.31775 14.496 5.40815 14.3303 5.57389L8.46924 11.3069C8.2583 11.5103 8.15283 11.7363 8.15283 11.9999Z" fill="white"/>
</svg>
