<svg width="20" height="20" viewBox="0 0 20 20" fill="none" xmlns="http://www.w3.org/2000/svg">
<path d="M10.226 4.36123L14.7541 3.23226L16.7701 11.3181L11.11 12.7293L10.3834 11.1927L5.85534 12.3217L7.26655 17.9818L5.64939 18.385L2.22217 4.63912L9.49939 2.82471L10.226 4.36123ZM11.5154 10.9105L13.1326 10.5073L12.7294 8.89014L14.3465 8.48694L13.9433 6.86978L12.3262 7.27298L11.923 5.65582L10.3058 6.05903L10.709 7.67619L9.49721 6.26063L9.09401 4.64347L7.47685 5.04667L7.88005 6.66383L6.26289 7.06703L5.85969 5.44987L4.24253 5.85308L4.64573 7.47024L6.26289 7.06703L6.6661 8.68419L5.04894 9.0874L5.45214 10.7046L7.0693 10.3014L6.6661 8.68419L8.28326 8.28099L8.68646 9.89815L10.3036 9.49495L9.90042 7.87779L11.1122 9.29335L11.5154 10.9105ZM8.28326 8.28099L7.88005 6.66383L9.49721 6.26063L9.90042 7.87779L8.28326 8.28099ZM10.709 7.67619L12.3262 7.27298L12.7294 8.89014L11.1122 9.29335L10.709 7.67619Z" fill="#89909E"/>
</svg>
