<svg width="24" height="24" viewBox="0 0 24 24" fill="none" xmlns="http://www.w3.org/2000/svg">
<path d="M22.1542 11.1382C22.1542 9.72957 21.0123 8.58768 19.6036 8.58768C18.8981 8.58768 18.2608 8.87529 17.7992 9.33831C16.3729 8.41838 14.5506 7.83214 12.5493 7.74068C12.5506 6.89094 12.9311 6.09881 13.5941 5.56698C14.2582 5.03425 15.1159 4.83474 15.9467 5.01927L16.0608 5.0446C16.0597 5.0732 16.0565 5.10122 16.0565 5.1301C16.0565 6.30598 17.0098 7.25923 18.1857 7.25923C19.3615 7.25923 20.3148 6.30598 20.3148 5.1301C20.3148 3.95418 19.3615 3.00098 18.1857 3.00098C17.4295 3.00098 16.7672 3.39621 16.3895 3.9902L16.1854 3.94487C15.0269 3.68746 13.8313 3.96576 12.9054 4.70849C11.9807 5.45033 11.45 6.55535 11.4488 7.74068C9.44794 7.83209 7.62604 8.41804 6.19985 9.33755C5.7382 8.87444 5.09993 8.58763 4.3943 8.58763C2.98569 8.58768 1.84375 9.72957 1.84375 11.1382C1.84375 12.1197 2.39912 12.97 3.2119 13.3964C3.15017 13.7121 3.1177 14.0349 3.1177 14.3635C3.1177 18.0284 7.09397 20.9994 11.999 20.9994C16.904 20.9994 20.8802 18.0284 20.8802 14.3635C20.8802 14.0351 20.8478 13.7125 20.7861 13.3969C21.5989 12.9704 22.1542 12.1198 22.1542 11.1382ZM18.1857 4.10156C18.7528 4.10156 19.2143 4.56296 19.2143 5.13015C19.2143 5.69729 18.7528 6.1587 18.1857 6.1587C17.6185 6.1587 17.1571 5.69729 17.1571 5.13015C17.1571 4.56296 17.6185 4.10156 18.1857 4.10156ZM2.94428 11.1382C2.94428 10.3387 3.59475 9.68821 4.3943 9.68821C4.73674 9.68821 5.05105 9.80817 5.29906 10.0076C4.52333 10.6731 3.92278 11.4554 3.5499 12.3144C3.18368 12.0514 2.94428 11.6227 2.94428 11.1382ZM17.6203 18.1741C16.1318 19.2863 14.1354 19.8988 11.999 19.8988C9.8626 19.8988 7.86624 19.2863 6.37775 18.1741C4.98521 17.1337 4.21828 15.7804 4.21828 14.3635C4.21828 12.9467 4.98521 11.5933 6.37775 10.5529C7.86624 9.44073 9.8626 8.82821 11.999 8.82821C14.1354 8.82821 16.1318 9.44073 17.6203 10.5529C19.0128 11.5933 19.7797 12.9467 19.7797 14.3635C19.7797 15.7804 19.0128 17.1337 17.6203 18.1741ZM20.4477 12.3137C20.0748 11.4549 19.4743 10.6729 18.6987 10.0074C18.9467 9.80798 19.2612 9.68821 19.6037 9.68821C20.4032 9.68821 21.0537 10.3387 21.0537 11.1382C21.0536 11.6227 20.814 12.0508 20.4477 12.3137Z" fill="#0A0B0D"/>
<path d="M8.75116 13.976C9.39254 13.976 9.91248 13.456 9.91248 12.8146C9.91248 12.1733 9.39254 11.6533 8.75116 11.6533C8.10978 11.6533 7.58984 12.1733 7.58984 12.8146C7.58984 13.456 8.10978 13.976 8.75116 13.976Z" fill="#0A0B0D"/>
<path d="M15.2433 13.976C15.8847 13.976 16.4047 13.456 16.4047 12.8146C16.4047 12.1733 15.8847 11.6533 15.2433 11.6533C14.602 11.6533 14.082 12.1733 14.082 12.8146C14.082 13.456 14.602 13.976 15.2433 13.976Z" fill="#0A0B0D"/>
<path d="M14.7505 15.6359C13.9319 16.3817 12.8706 16.7924 11.7622 16.7924C10.5176 16.7924 9.36444 16.2909 8.51522 15.3801C8.308 15.1578 7.9598 15.1457 7.73751 15.3529C7.51522 15.5601 7.50307 15.9084 7.71033 16.1306C8.75466 17.2506 10.2315 17.8929 11.7622 17.8929C13.1455 17.8929 14.47 17.3802 15.4917 16.4493C15.7163 16.2446 15.7326 15.8966 15.5279 15.672C15.3233 15.4475 14.9754 15.4311 14.7505 15.6359Z" fill="#0A0B0D"/>
</svg>
