<svg width="24" height="24" viewBox="0 0 24 24" fill="none" xmlns="http://www.w3.org/2000/svg">
<path d="M6.54583 12.5626H11.1413V17.158C11.1413 17.6251 11.5255 18.0169 12.0001 18.0169C12.4747 18.0169 12.8589 17.6251 12.8589 17.158V12.5626H17.4543C17.9214 12.5626 18.3131 12.1784 18.3131 11.7038C18.3131 11.2292 17.9214 10.845 17.4543 10.845H12.8589V6.24956C12.8589 5.78249 12.4747 5.39075 12.0001 5.39075C11.5255 5.39075 11.1413 5.78249 11.1413 6.24956V10.845H6.54583C6.07875 10.845 5.68701 11.2292 5.68701 11.7038C5.68701 12.1784 6.07875 12.5626 6.54583 12.5626Z" fill="#1C1C1E"/>
</svg>
