<svg width="14" height="14" viewBox="0 0 14 14" fill="none" xmlns="http://www.w3.org/2000/svg">
    <path d="M7.0001 1.79983C5.62097 1.79983 4.29833 2.34769 3.32314 3.32288C2.34795 4.29807 1.8001 5.62071 1.8001 6.99983C1.8001 7.15896 1.73688 7.31158 1.62436 7.4241C1.51184 7.53662 1.35923 7.59983 1.2001 7.59983C1.04097 7.59983 0.888355 7.53662 0.775834 7.4241C0.663312 7.31158 0.600098 7.15896 0.600098 6.99983C0.600227 5.90327 0.882104 4.82513 1.41869 3.86882C1.95528 2.91252 2.72859 2.11012 3.66443 1.5386C4.60028 0.967069 5.66728 0.645585 6.76309 0.604977C7.8589 0.564368 8.94677 0.805998 9.92235 1.30669C10.8979 1.80738 11.7285 2.55034 12.3344 3.46431C12.9403 4.37828 13.3012 5.4326 13.3825 6.52615C13.4638 7.61969 13.2627 8.71579 12.7986 9.70929C12.3345 10.7028 11.6229 11.5604 10.7321 12.1998H11.6001C11.7592 12.1998 11.9118 12.263 12.0244 12.3756C12.1369 12.4881 12.2001 12.6407 12.2001 12.7998C12.2001 12.959 12.1369 13.1116 12.0244 13.2241C11.9118 13.3366 11.7592 13.3998 11.6001 13.3998H9.2001C9.04097 13.3998 8.88836 13.3366 8.77583 13.2241C8.66331 13.1116 8.6001 12.959 8.6001 12.7998V10.3998C8.6001 10.2407 8.66331 10.0881 8.77583 9.97557C8.88836 9.86305 9.04097 9.79983 9.2001 9.79983C9.35923 9.79983 9.51184 9.86305 9.62436 9.97557C9.73688 10.0881 9.8001 10.2407 9.8001 10.3998V11.3822C10.7481 10.7768 11.4742 9.8802 11.8695 8.82708C12.2647 7.77397 12.3078 6.62107 11.9923 5.54137C11.6769 4.46167 11.0198 3.51338 10.1197 2.83877C9.21954 2.16417 8.12495 1.79962 7.0001 1.79983Z"
          fill="#5B616E"/>
    <path d="M9 7C9 7.53043 8.78929 8.03914 8.41421 8.41421C8.03914 8.78929 7.53043 9 7 9C6.46957 9 5.96086 8.78929 5.58579 8.41421C5.21071 8.03914 5 7.53043 5 7C5 6.46957 5.21071 5.96086 5.58579 5.58579C5.96086 5.21071 6.46957 5 7 5C7.53043 5 8.03914 5.21071 8.41421 5.58579C8.78929 5.96086 9 6.46957 9 7ZM7.8 7C7.8 6.78783 7.71571 6.58434 7.56569 6.43431C7.41566 6.28429 7.21217 6.2 7 6.2C6.78783 6.2 6.58434 6.28429 6.43431 6.43431C6.28429 6.58434 6.2 6.78783 6.2 7C6.2 7.21217 6.28429 7.41566 6.43431 7.56569C6.58434 7.71571 6.78783 7.8 7 7.8C7.21217 7.8 7.41566 7.71571 7.56569 7.56569C7.71571 7.41566 7.8 7.21217 7.8 7Z"
          fill="#5B616E"/>
</svg>
