<svg width="64" height="64" viewBox="0 0 64 64" fill="none" xmlns="http://www.w3.org/2000/svg">
<circle cx="32" cy="32" r="32" fill="#0151FC"/>
<path d="M41.3333 28.0003C41.3333 29.9337 40.76 31.707 39.7733 33.187C38.3333 35.3203 36.0533 36.827 33.4 37.2137C32.9466 37.2937 32.48 37.3337 32 37.3337C31.52 37.3337 31.0533 37.2937 30.6 37.2137C27.9466 36.827 25.6666 35.3203 24.2266 33.187C23.24 31.707 22.6666 29.9337 22.6666 28.0003C22.6666 22.8403 26.84 18.667 32 18.667C37.16 18.667 41.3333 22.8403 41.3333 28.0003Z" stroke="white" stroke-width="1.5" stroke-linecap="round" stroke-linejoin="round"/>
<path d="M44.3333 40.6269L42.1333 41.1469C41.6399 41.2669 41.2533 41.6402 41.1466 42.1335L40.6799 44.0935C40.4266 45.1602 39.0666 45.4802 38.3599 44.6402L31.9999 37.3335L25.6399 44.6535C24.9333 45.4935 23.5733 45.1735 23.3199 44.1069L22.8533 42.1469C22.7333 41.6535 22.3466 41.2669 21.8666 41.1602L19.6666 40.6402C18.6533 40.4002 18.2933 39.1335 19.0266 38.4002L24.2266 33.2002C25.6666 35.3335 27.9466 36.8402 30.5999 37.2269C31.0533 37.3069 31.5199 37.3469 31.9999 37.3469C32.4799 37.3469 32.9466 37.3069 33.3999 37.2269C36.0533 36.8402 38.3333 35.3335 39.7733 33.2002L44.9733 38.4002C45.7066 39.1202 45.3466 40.3869 44.3333 40.6269Z" stroke="white" stroke-width="1.5" stroke-linecap="round" stroke-linejoin="round"/>
<path d="M32.7734 23.973L33.56 25.5463C33.6667 25.7597 33.9467 25.973 34.2 26.013L35.6267 26.253C36.5334 26.3997 36.7467 27.0663 36.0934 27.7197L34.9867 28.8263C34.8 29.013 34.6934 29.373 34.76 29.6397L35.08 31.013C35.3334 32.093 34.76 32.5196 33.8 31.9463L32.4667 31.1597C32.2267 31.013 31.8267 31.013 31.5867 31.1597L30.2534 31.9463C29.2934 32.5063 28.72 32.093 28.9734 31.013L29.2934 29.6397C29.3467 29.3863 29.2534 29.013 29.0667 28.8263L27.96 27.7197C27.3067 27.0663 27.52 26.413 28.4267 26.253L29.8534 26.013C30.0934 25.973 30.3734 25.7597 30.48 25.5463L31.2667 23.973C31.6534 23.1197 32.3467 23.1197 32.7734 23.973Z" stroke="white" stroke-width="1.5" stroke-linecap="round" stroke-linejoin="round"/>
</svg>
