<svg width="47" height="54" viewBox="0 0 47 54" fill="none" xmlns="http://www.w3.org/2000/svg">
<path d="M7.17969 26.7448L23.2621 42.7999L39.3396 26.7448L23.2621 10.6848L7.17969 26.7448Z" fill="url(#paint0_radial_7939_9641)"/>
<path d="M31.0234 18.8003H15.1963V34.6053H31.0234V18.8003Z" fill="url(#paint1_radial_7939_9641)"/>
<path d="M30.9982 26.925L22.962 34.67L15.1611 26.7L23.2624 18.875L30.9982 26.925Z" fill="url(#paint2_radial_7939_9641)"/>
<path d="M23.4327 0L16.5381 3.97501L0 13.51V19.57L7.18002 26.745L23.2625 10.685L29.9818 3.97501L23.4327 0Z" fill="url(#paint3_linear_7939_9641)"/>
<path d="M0 19.1948V33.8699V40.4849L16.1876 49.8199L23.2625 42.7549" fill="url(#paint4_linear_7939_9641)"/>
<path d="M39.1046 26.7449L22.922 42.7999L15.9873 49.7249L23.1623 53.9999L30.122 49.9899L46.5249 40.5299V34.2599L39.1046 26.7449Z" fill="url(#paint5_linear_7939_9641)"/>
<path d="M46.524 34.9252V19.2251V13.5101L29.7656 3.8501L23.1113 10.4951" fill="url(#paint6_linear_7939_9641)"/>
<defs>
<radialGradient id="paint0_radial_7939_9641" cx="0" cy="0" r="1" gradientUnits="userSpaceOnUse" gradientTransform="translate(23.2603 26.7421) scale(16.0791 16.0567)">
<stop stop-color="#30BCF9"/>
<stop offset="0.366" stop-color="#47AEFA"/>
<stop offset="0.4492" stop-color="#4BA9F9"/>
<stop offset="0.5464" stop-color="#589BF8"/>
<stop offset="0.6505" stop-color="#6D84F5"/>
<stop offset="0.7589" stop-color="#8963F1"/>
<stop offset="0.7706" stop-color="#8D5FF0"/>
<stop offset="1" stop-color="#8300E4"/>
</radialGradient>
<radialGradient id="paint1_radial_7939_9641" cx="0" cy="0" r="1" gradientUnits="userSpaceOnUse" gradientTransform="translate(23.1131 26.7013) scale(11.9655 11.9489)">
<stop offset="0.1856" stop-color="#00D5F9"/>
<stop offset="0.2641" stop-color="#05D1F9"/>
<stop offset="0.3603" stop-color="#14C4F8"/>
<stop offset="0.4659" stop-color="#2DAFF6"/>
<stop offset="0.578" stop-color="#5092F4"/>
<stop offset="0.6943" stop-color="#7C6DF1"/>
<stop offset="0.7345" stop-color="#8D5FF0"/>
<stop offset="1" stop-color="#8300E4"/>
</radialGradient>
<radialGradient id="paint2_radial_7939_9641" cx="0" cy="0" r="1" gradientUnits="userSpaceOnUse" gradientTransform="translate(23.0792 26.7722) rotate(1.09478) scale(7.4824 7.35791)">
<stop stop-color="#6ADBF7"/>
<stop offset="0.4923" stop-color="#74A4F4"/>
<stop offset="0.5089" stop-color="#74A1F4"/>
<stop offset="0.8004" stop-color="#7376F0"/>
<stop offset="0.9485" stop-color="#7365EF"/>
</radialGradient>
<linearGradient id="paint3_linear_7939_9641" x1="19.374" y1="16.1485" x2="8.25648" y2="5.01542" gradientUnits="userSpaceOnUse">
<stop stop-color="#00DFF8"/>
<stop offset="0.1134" stop-color="#47AEFA"/>
<stop offset="0.4768" stop-color="#8D5FF0"/>
<stop offset="1" stop-color="#B300D0"/>
</linearGradient>
<linearGradient id="paint4_linear_7939_9641" x1="12.6165" y1="29.9893" x2="-0.55311" y2="43.1773" gradientUnits="userSpaceOnUse">
<stop stop-color="#00DFF8"/>
<stop offset="0.1134" stop-color="#47AEFA"/>
<stop offset="0.4768" stop-color="#8D5FF0"/>
<stop offset="1" stop-color="#B300D0"/>
</linearGradient>
<linearGradient id="paint5_linear_7939_9641" x1="26.8581" y1="37.5458" x2="36.9419" y2="47.6437" gradientUnits="userSpaceOnUse">
<stop stop-color="#00DFF8"/>
<stop offset="0.1134" stop-color="#47AEFA"/>
<stop offset="0.4768" stop-color="#8D5FF0"/>
<stop offset="1" stop-color="#B300D0"/>
</linearGradient>
<linearGradient id="paint6_linear_7939_9641" x1="34.1795" y1="23.348" x2="44.7704" y2="12.7423" gradientUnits="userSpaceOnUse">
<stop stop-color="#00DFF8"/>
<stop offset="0.1134" stop-color="#47AEFA"/>
<stop offset="0.4768" stop-color="#8D5FF0"/>
<stop offset="1" stop-color="#B300D0"/>
</linearGradient>
</defs>
</svg>
