<svg width="40" height="40" viewBox="0 0 40 40" fill="none" xmlns="http://www.w3.org/2000/svg">
<circle cx="20" cy="20" r="20" fill="#F7F4FF"/>
<path d="M20 9.5C14.2016 9.5 9.5 14.2016 9.5 20C9.5 25.7984 14.2016 30.5 20 30.5C25.7984 30.5 30.5 25.7984 30.5 20C30.5 14.2016 25.7984 9.5 20 9.5Z" fill="url(#paint0_linear_1314_14232)"/>
<path d="M16 21.172C18.5949 21.172 19.1435 21.172 20 21.172V15" stroke="#F0F5FF" stroke-width="1.2" stroke-linecap="round" stroke-linejoin="round"/>
<path d="M31.5 25.0938V24.1507L31.4979 24.1521C31.4993 24.1315 31.5 24.1105 31.5 24.0893V23.2857C31.5 22.8814 31.2447 22.5828 30.9879 22.3878C30.723 22.1867 30.3712 22.0268 29.9813 21.9013C29.1957 21.6486 28.1417 21.5 27 21.5C25.8583 21.5 24.8043 21.6486 24.0187 21.9013C23.6288 22.0268 23.277 22.1867 23.0121 22.3878C22.7553 22.5828 22.5 22.8814 22.5 23.2857V24.0893C22.5 24.1105 22.5007 24.1315 22.5021 24.1521L22.5 24.1507V25.0938V26.9018C22.5 26.923 22.5007 26.944 22.5021 26.9646L22.5 26.9632V27.9062V29.7143C22.5 30.1186 22.7553 30.4172 23.0121 30.6122C23.277 30.8133 23.6288 30.9732 24.0187 31.0987C24.8043 31.3514 25.8583 31.5 27 31.5C28.1417 31.5 29.1957 31.3514 29.9813 31.0987C30.3712 30.9732 30.723 30.8133 30.9879 30.6122C31.2447 30.4172 31.5 30.1186 31.5 29.7143V27.9062V26.9632L31.4979 26.9646C31.4993 26.944 31.5 26.923 31.5 26.9018V25.0938Z" fill="url(#paint1_linear_1314_14232)" stroke="#F0F5FF"/>
<defs>
<linearGradient id="paint0_linear_1314_14232" x1="9.5" y1="30.5" x2="32.4687" y2="13.1094" gradientUnits="userSpaceOnUse">
<stop offset="0.411458" stop-color="#9D3EF2"/>
<stop offset="1" stop-color="#3036F4"/>
</linearGradient>
<linearGradient id="paint1_linear_1314_14232" x1="23" y1="31" x2="32.4746" y2="24.6235" gradientUnits="userSpaceOnUse">
<stop offset="0.411458" stop-color="#9D3EF2"/>
<stop offset="1" stop-color="#3036F4"/>
</linearGradient>
</defs>
</svg>
