<svg width="31" height="24" viewBox="0 0 31 24" fill="none" xmlns="http://www.w3.org/2000/svg">
    <path d="M16.5 13.5957L17.7096 14.8053C18.1001 15.1958 18.7332 15.1958 19.1238 14.8053C19.5143 14.4147 19.5143 13.7816 19.1238 13.3911L16.2071 10.4744L15.5 9.76729L14.7929 10.4744L11.8762 13.3911C11.4857 13.7816 11.4857 14.4147 11.8762 14.8053C12.2668 15.1958 12.8999 15.1958 13.2904 14.8053L14.5 13.5957V22.8482C14.5 23.4005 14.9477 23.8482 15.5 23.8482C16.0523 23.8482 16.5 23.4005 16.5 22.8482V13.5957ZM24.8905 19.1815C27.9888 19.1815 30.5 16.6708 30.5 13.5732C30.5 10.4746 27.989 7.96308 24.8905 7.96308C24.8255 7.96461 24.8255 7.96461 24.7979 7.96684C24.8018 7.96631 24.8567 8.96483 24.8567 8.96483L25.8489 9.08936C25.8934 8.73486 25.9167 8.40956 25.9167 8.0875C25.9167 3.62086 22.2961 0 17.8293 0C14.4187 0 11.4154 2.13449 10.2496 5.28521L11.1874 5.63225L11.8952 4.92579C11.0564 4.08553 9.91848 3.60325 8.70767 3.60325C6.21941 3.60325 4.20242 5.62002 4.20242 8.10792C4.20486 8.20982 4.20486 8.20982 4.20894 8.26472C4.21061 8.28903 5.21 8.25433 5.21 8.25433L4.94359 7.29047C2.33733 8.01084 0.5 10.3845 0.5 13.1246C0.5 16.47 3.21174 19.1815 6.5575 19.1815H11.4167C11.969 19.1815 12.4167 18.7338 12.4167 18.1815C12.4167 17.6292 11.969 17.1815 11.4167 17.1815H6.5575C4.31627 17.1815 2.5 15.3654 2.5 13.1246C2.5 11.2906 3.73065 9.70072 5.47641 9.21819C5.92265 9.09485 6.22589 8.68132 6.20936 8.21864C6.20664 8.16102 6.20664 8.16102 6.20409 8.12541C6.20242 6.72464 7.32393 5.60325 8.70767 5.60325C9.38177 5.60325 10.0123 5.87046 10.4797 6.33871C10.9951 6.85507 11.8721 6.66352 12.1253 5.97929C13.0034 3.60629 15.2634 2 17.8293 2C21.1915 2 23.9167 4.7254 23.9167 8.0875C23.9167 8.31927 23.8992 8.56333 23.8645 8.8403C23.7895 9.43732 24.255 9.96483 24.8567 9.96483C24.9293 9.96292 24.9293 9.96292 24.9535 9.96077C26.8843 9.96308 28.5 11.5791 28.5 13.5732C28.5 15.5661 26.8843 17.1815 24.8905 17.1815H19.5833C19.031 17.1815 18.5833 17.6292 18.5833 18.1815C18.5833 18.7338 19.031 19.1815 19.5833 19.1815H24.8905Z" fill="#0A0B0D"/>
</svg>
