<svg width="24" height="24" viewBox="0 0 24 24" fill="none" xmlns="http://www.w3.org/2000/svg">
<path d="M11.9997 19.8169C16.4372 19.8169 20.1128 16.1491 20.1128 11.7038C20.1128 7.26642 16.4372 3.59082 11.9919 3.59082C7.55446 3.59082 3.88672 7.26642 3.88672 11.7038C3.88672 16.1491 7.56232 19.8169 11.9997 19.8169ZM9.83993 11.0991L9.03884 9.92102C8.59117 9.25344 7.86862 9.00212 7.13821 9.35554L6.52561 9.66184C6.02296 9.90531 5.81876 10.2901 5.81876 10.997C5.81876 11.5546 5.65383 11.8216 5.32397 11.8216C5.26114 11.8216 5.19831 11.8138 5.14333 11.7981C5.14333 11.7667 5.14333 11.7353 5.14333 11.7038C5.14333 7.95756 8.2456 4.84744 11.9919 4.84744C12.5338 4.84744 13.06 4.91812 13.5705 5.03593C13.3192 5.49145 12.8951 5.72707 12.8951 6.37108C12.8951 7.5413 14.4501 7.45491 14.4501 8.75865C14.4501 9.54403 13.8297 9.91317 12.4631 9.91317C11.6699 9.91317 11.128 10.3294 11.128 10.9499C11.128 11.3661 11.34 11.6489 11.8034 11.8923C12.0469 12.0023 12.1411 12.1279 12.1411 12.3007C12.1411 12.5049 11.9919 12.6149 11.7484 12.6149C11.2301 12.6149 10.5546 12.1594 9.83993 11.0991ZM11.9997 18.5602C8.62259 18.5602 5.77164 16.0392 5.23758 12.8034C5.27685 12.8034 5.31612 12.8034 5.36324 12.8034C6.19575 12.8034 6.76123 12.0887 6.76123 10.997C6.76123 10.6593 6.8162 10.5493 7.05182 10.4394L7.55446 10.2038C7.8215 10.0702 8.06496 10.1723 8.22204 10.408L9.10953 11.7117C9.99701 13.0076 10.9002 13.5338 11.7249 13.5338C12.5259 13.5338 13.0129 13.0468 13.0129 12.2693C13.0129 11.8216 12.7851 11.429 12.416 11.1933C12.2903 11.1069 12.2196 11.0677 12.2196 10.9891C12.2118 10.9027 12.2903 10.8635 12.4238 10.8635C14.3795 10.8635 15.4005 10.1488 15.4005 8.75865C15.4005 6.92085 13.8375 6.81875 13.8375 6.34752C13.8375 6.03337 14.2538 5.892 14.4973 5.33437C17.0341 6.34752 18.8561 8.83719 18.8561 11.7038C18.8561 12.4342 18.7383 13.1489 18.5184 13.8087C18.11 13.4788 17.7802 13.3374 17.4032 13.3374C17.0969 13.3374 16.932 13.416 16.7513 13.471C16.6021 13.5259 16.5314 13.4631 16.5078 13.3217C16.4215 12.7327 16.0602 12.5128 15.479 12.5128H15.0706C14.5994 12.5128 14.2145 12.7563 13.9239 13.2039L13.7983 13.4003C13.5941 13.7144 13.4213 13.9657 13.2564 14.1307C13.0914 14.272 12.9579 14.3427 12.6359 14.4448L12.2746 14.5548C11.7327 14.7276 11.5599 15.2067 11.7091 15.7407L12.094 17.068C12.2275 17.555 12.5181 17.8063 12.9893 17.8063C13.1935 17.8063 13.4448 17.7356 13.7119 17.6099L13.8297 17.5471C14.0025 17.4607 14.136 17.4293 14.2774 17.4293C14.5758 17.4293 14.7879 17.5785 15.0078 17.8455C14.0967 18.3011 13.0757 18.5602 11.9997 18.5602ZM14.2616 16.5182C14.0182 16.5182 13.7354 16.6046 13.4291 16.7303L13.1935 16.8167C13.0679 16.8638 12.9815 16.856 12.9501 16.7382L12.6123 15.6072C12.5809 15.4894 12.628 15.4187 12.7459 15.3794C13.3427 15.2067 13.6648 14.9789 13.869 14.7825C14.1831 14.4762 14.4423 14.0443 14.67 13.7144C14.8114 13.4945 14.9214 13.416 15.0627 13.416H15.4711C15.5811 13.416 15.6047 13.4552 15.6282 13.5416C15.7382 14.0914 16.0366 14.4134 16.5785 14.4134C16.9712 14.4134 17.1597 14.2485 17.4032 14.2485C17.5995 14.2485 17.8194 14.3741 18.1572 14.6962C17.6231 15.78 16.7984 16.7146 15.801 17.39C15.4476 16.9424 14.9999 16.5182 14.2616 16.5182Z" fill="#1C1C1E"/>
</svg>
