<svg width="26" height="26" viewBox="0 0 26 26" fill="none" xmlns="http://www.w3.org/2000/svg">
<path d="M22.332 1H3.66651C2.19384 1 1 2.19391 1 3.66667V22.3333C1 23.8061 2.19384 25 3.66651 25H22.332C23.8047 25 24.9985 23.8061 24.9985 22.3333V3.66667C24.9985 2.19391 23.8047 1 22.332 1Z" stroke="#89909E" stroke-width="1.5" stroke-linecap="round" stroke-linejoin="round"/>
<path d="M8.33191 10.333C9.43641 10.333 10.3318 9.43758 10.3318 8.33301C10.3318 7.22844 9.43641 6.33301 8.33191 6.33301C7.22741 6.33301 6.33203 7.22844 6.33203 8.33301C6.33203 9.43758 7.22741 10.333 8.33191 10.333Z" stroke="#89909E" stroke-width="1.5" stroke-linecap="round" stroke-linejoin="round"/>
<path d="M25 16.9997L18.3338 10.333L3.66797 24.9997" stroke="#89909E" stroke-width="1.5" stroke-linecap="round" stroke-linejoin="round"/>
</svg>
