<svg width="36" height="37" viewBox="0 0 36 37" fill="none" xmlns="http://www.w3.org/2000/svg">
<g clip-path="url(#clip0_7939_9629)">
<path d="M36 18.8672C36 8.92606 27.9411 0.867188 18 0.867188C8.05887 0.867188 0 8.92606 0 18.8672C0 27.8514 6.5823 35.2982 15.1875 36.6485V24.0703H10.6172V18.8672H15.1875V14.9016C15.1875 10.3903 17.8748 7.89844 21.9864 7.89844C23.9551 7.89844 26.0156 8.25 26.0156 8.25V12.6797H23.7459C21.51 12.6797 20.8125 14.0673 20.8125 15.4922V18.8672H25.8047L25.0066 24.0703H20.8125V36.6485C29.4177 35.2982 36 27.8514 36 18.8672Z" fill="#1877F2"/>
<path d="M25.0066 24.0703L25.8047 18.8672H20.8125V15.4922C20.8125 14.0687 21.51 12.6797 23.7459 12.6797H26.0156V8.25C26.0156 8.25 23.9558 7.89844 21.9864 7.89844C17.8748 7.89844 15.1875 10.3903 15.1875 14.9016V18.8672H10.6172V24.0703H15.1875V36.6485C17.0512 36.9401 18.9488 36.9401 20.8125 36.6485V24.0703H25.0066Z" fill="white"/>
</g>
<defs>
<clipPath id="clip0_7939_9629">
<rect width="36" height="36" fill="white" transform="translate(0 0.867188)"/>
</clipPath>
</defs>
</svg>
