<svg width="32" height="32" viewBox="0 0 32 32" fill="none" xmlns="http://www.w3.org/2000/svg">
<g opacity="0.8">
<rect y="0.000488281" width="32" height="32" rx="4" fill="#0E0B23"/>
<path d="M7 13.4937C7 17.2466 10.1553 20.9556 15.0596 24.1196C15.332 24.2954 15.666 24.4712 15.8945 24.4712C16.123 24.4712 16.457 24.2954 16.7295 24.1196C21.6426 20.9556 24.7891 17.2466 24.7891 13.4937C24.7891 10.2505 22.5479 8.00049 19.6738 8.00049C17.9951 8.00049 16.6855 8.76514 15.8945 9.92529C15.1211 8.77393 13.8027 8.00049 12.124 8.00049C9.24121 8.00049 7 10.2505 7 13.4937ZM8.81055 13.4849C8.81055 11.27 10.2695 9.76709 12.2295 9.76709C13.8115 9.76709 14.6992 10.7251 15.2529 11.5601C15.499 11.9204 15.666 12.0347 15.8945 12.0347C16.1318 12.0347 16.2812 11.9116 16.5361 11.5601C17.1338 10.7427 17.9863 9.76709 19.5596 9.76709C21.5283 9.76709 22.9873 11.27 22.9873 13.4849C22.9873 16.5786 19.7705 20.0063 16.0615 22.4673C15.9824 22.52 15.9297 22.5552 15.8945 22.5552C15.8594 22.5552 15.8066 22.52 15.7363 22.4673C12.0273 20.0063 8.81055 16.5786 8.81055 13.4849Z" fill="white"/>
</g>
</svg>
