<svg width="48" height="49" viewBox="0 0 48 49" fill="none" xmlns="http://www.w3.org/2000/svg">
<path d="M36.4873 8.1373C35.8969 7.84331 35.6545 7.11851 35.9485 6.52811L37.2325 3.95291C37.5265 3.36251 38.2513 3.12011 38.8417 3.41411C39.4321 3.70811 39.6745 4.43291 39.3805 5.02331L38.0965 7.59851C37.8025 8.18891 37.0777 8.4313 36.4873 8.1373ZM37.6633 10.7761L37.6309 10.6765C37.4305 10.0777 37.7557 9.4249 38.3545 9.2245L43.0393 7.66931C43.6369 7.46891 44.2921 7.79411 44.4913 8.39291L44.5237 8.49251C44.7241 9.0913 44.3977 9.7453 43.7989 9.9457L39.1153 11.4997C38.5177 11.7001 37.8637 11.3749 37.6633 10.7761ZM38.2801 13.4929C37.9861 14.0833 38.2285 14.8081 38.8189 15.1021L41.3941 16.3861C41.9845 16.6801 42.7093 16.4377 43.0033 15.8473C43.2973 15.2569 43.0549 14.5321 42.4645 14.2381L39.8893 12.9541C39.2989 12.6601 38.5741 12.9025 38.2801 13.4929Z" fill="#FA743E"/>
<path d="M14.8561 41.5755C13.6057 41.1567 11.1145 40.4343 11.6425 36.2043L12.4177 29.9955C12.5629 28.8315 13.8301 28.4775 15.2125 27.8223C16.4137 27.2523 19.3105 25.2987 20.0233 19.5939C20.6449 14.6067 19.7053 6.72749 19.4593 4.82549L13.9657 4.19069L8.46972 3.55469C7.79532 5.35109 5.08212 12.8067 4.54932 17.8047C3.94092 23.5215 6.31572 26.0847 7.35492 26.9139C8.55132 27.8667 9.70452 28.5003 9.57972 29.6667C9.45612 30.8331 9.36732 31.6491 8.91732 35.8887C8.46612 40.1271 5.87532 40.2615 4.56252 40.3839C2.07012 40.6155 1.93212 42.6423 3.13692 42.7695C4.34412 42.8991 9.41892 43.4931 9.41892 43.4931C9.41892 43.4931 14.4961 44.0739 15.6997 44.2227C16.9021 44.3751 17.2297 42.3699 14.8561 41.5755Z" fill="#E1E8ED"/>
<path d="M18.0398 7.3665C17.5801 7.6581 15.209 8.9361 12.3482 9.1761C10.3646 9.3441 7.90695 9.0921 7.50375 10.4253C6.69015 13.1145 6.04335 15.4905 5.78295 17.9397C5.28855 22.5777 6.89655 24.8145 7.85895 25.7157L7.88535 25.7385C8.00295 25.8333 9.14775 26.7081 11.3053 26.9577C13.4485 27.2061 14.8058 26.6301 14.9618 26.5593C14.9786 26.5521 14.9833 26.5485 14.999 26.5401C16.1426 25.8813 18.2149 24.0705 18.7921 19.4445C19.2169 16.0341 18.8749 11.1237 18.5594 7.9281C18.5353 7.6833 18.4993 7.0749 18.0398 7.3665Z" fill="#FFCC4D"/>
<path d="M16.3226 11.7589C16.7501 11.7589 17.0966 11.4124 17.0966 10.9849C17.0966 10.5575 16.7501 10.2109 16.3226 10.2109C15.8951 10.2109 15.5486 10.5575 15.5486 10.9849C15.5486 11.4124 15.8951 11.7589 16.3226 11.7589Z" fill="#FFD983"/>
<path d="M13.7894 14.3371C14.2169 14.3371 14.5634 13.9905 14.5634 13.5631C14.5634 13.1356 14.2169 12.7891 13.7894 12.7891C13.3619 12.7891 13.0154 13.1356 13.0154 13.5631C13.0154 13.9905 13.3619 14.3371 13.7894 14.3371Z" fill="#FFD983"/>
<path d="M16.6933 17.3097C17.1208 17.3097 17.4673 16.9632 17.4673 16.5357C17.4673 16.1083 17.1208 15.7617 16.6933 15.7617C16.2658 15.7617 15.9193 16.1083 15.9193 16.5357C15.9193 16.9632 16.2658 17.3097 16.6933 17.3097Z" fill="#FFD983"/>
<path d="M12.5076 19.2433C12.9351 19.2433 13.2816 18.8968 13.2816 18.4693C13.2816 18.0418 12.9351 17.6953 12.5076 17.6953C12.0802 17.6953 11.7336 18.0418 11.7336 18.4693C11.7336 18.8968 12.0802 19.2433 12.5076 19.2433Z" fill="#FFD983"/>
<path d="M10.0345 16.0363C10.462 16.0363 10.8085 15.6898 10.8085 15.2623C10.8085 14.8348 10.462 14.4883 10.0345 14.4883C9.60703 14.4883 9.2605 14.8348 9.2605 15.2623C9.2605 15.6898 9.60703 16.0363 10.0345 16.0363Z" fill="#FFD983"/>
<path d="M9.62178 12.3761C10.0492 12.3761 10.3958 12.0296 10.3958 11.6021C10.3958 11.1747 10.0492 10.8281 9.62178 10.8281C9.19431 10.8281 8.84778 11.1747 8.84778 11.6021C8.84778 12.0296 9.19431 12.3761 9.62178 12.3761Z" fill="#FFD983"/>
<path d="M26.4517 43.3204C27.7021 42.9016 30.1933 42.1792 29.6653 37.9492L28.8901 31.7404C28.7449 30.5764 27.4777 30.2224 26.0953 29.5672C24.8941 28.9972 21.9973 27.0436 21.2845 21.3388C20.6629 16.3516 21.6025 8.47238 21.8485 6.57038L27.3421 5.93558L32.8357 5.30078C33.5101 7.09718 36.2233 14.5528 36.7561 19.5508C37.3645 25.2676 34.9897 27.8308 33.9505 28.66C32.7541 29.6128 31.6009 30.2464 31.7257 31.4128C31.8493 32.5792 31.9381 33.3952 32.3881 37.6348C32.8393 41.8732 35.4301 42.0076 36.7429 42.13C39.2353 42.3616 39.3733 44.3884 38.1685 44.5156C36.9613 44.6452 31.8865 45.2392 31.8865 45.2392C31.8865 45.2392 26.8093 45.82 25.6057 45.9688C24.4057 46.12 24.0781 44.116 26.4517 43.3204Z" fill="#E1E8ED"/>
<path d="M23.2681 9.10869C23.7277 9.40029 26.1001 10.6783 28.9597 10.9183C30.9433 11.0851 33.4021 10.8331 33.8053 12.1675C34.6189 14.8567 35.2657 17.2327 35.5261 19.6819C36.0205 24.3199 34.4125 26.5567 33.4501 27.4579L33.4237 27.4807C33.3061 27.5755 32.1613 28.4503 30.0037 28.6999C27.8605 28.9483 26.5033 28.3723 26.3473 28.3015C26.3305 28.2943 26.3257 28.2907 26.3101 28.2823C25.1665 27.6235 23.0941 25.8127 22.5169 21.1867C22.0921 17.7763 22.4341 12.8659 22.7497 9.67029C22.7725 9.42548 22.8085 8.81708 23.2681 9.10869Z" fill="#FFCC4D"/>
<path d="M24.9853 13.505C25.4128 13.505 25.7593 13.1585 25.7593 12.731C25.7593 12.3036 25.4128 11.957 24.9853 11.957C24.5578 11.957 24.2113 12.3036 24.2113 12.731C24.2113 13.1585 24.5578 13.505 24.9853 13.505Z" fill="#FFD983"/>
<path d="M27.5185 16.0832C27.946 16.0832 28.2925 15.7366 28.2925 15.3092C28.2925 14.8817 27.946 14.5352 27.5185 14.5352C27.091 14.5352 26.7445 14.8817 26.7445 15.3092C26.7445 15.7366 27.091 16.0832 27.5185 16.0832Z" fill="#FFD983"/>
<path d="M24.6146 19.0558C25.042 19.0558 25.3886 18.7093 25.3886 18.2818C25.3886 17.8543 25.042 17.5078 24.6146 17.5078C24.1871 17.5078 23.8406 17.8543 23.8406 18.2818C23.8406 18.7093 24.1871 19.0558 24.6146 19.0558Z" fill="#FFD983"/>
<path d="M28.8001 20.9855C29.2276 20.9855 29.5741 20.639 29.5741 20.2115C29.5741 19.784 29.2276 19.4375 28.8001 19.4375C28.3727 19.4375 28.0261 19.784 28.0261 20.2115C28.0261 20.639 28.3727 20.9855 28.8001 20.9855Z" fill="#FFD983"/>
<path d="M31.2733 17.7746C31.7007 17.7746 32.0473 17.428 32.0473 17.0006C32.0473 16.5731 31.7007 16.2266 31.2733 16.2266C30.8458 16.2266 30.4993 16.5731 30.4993 17.0006C30.4993 17.428 30.8458 17.7746 31.2733 17.7746Z" fill="#FFD983"/>
<path d="M31.6861 14.1144C32.1136 14.1144 32.4601 13.7679 32.4601 13.3404C32.4601 12.9129 32.1136 12.5664 31.6861 12.5664C31.2586 12.5664 30.9121 12.9129 30.9121 13.3404C30.9121 13.7679 31.2586 14.1144 31.6861 14.1144Z" fill="#FFD983"/>
</svg>
