<svg width="32" height="32" viewBox="0 0 32 32" fill="none" xmlns="http://www.w3.org/2000/svg">
<path d="M6.8192 25.3483C7.15067 25.3483 7.45201 25.2378 7.85379 25.0068L12.7355 22.3751L18.0592 25.3583C18.481 25.5893 18.923 25.6998 19.3549 25.6998C19.7768 25.6998 20.1886 25.5994 20.5603 25.3784L25.5525 22.5659C26.2455 22.1742 26.5469 21.6217 26.5469 20.8583V7.36836C26.5469 6.51456 26.0346 6.00228 25.1908 6.00228C24.8594 6.00228 24.558 6.13286 24.1462 6.35385L19.0837 9.16635L13.8203 5.99224C13.4386 5.77126 13.0268 5.66077 12.6049 5.66077C12.1931 5.66077 11.7813 5.76121 11.4196 5.97215L6.45759 8.7947C5.76451 9.18644 5.45312 9.7188 5.45312 10.4822V23.9922C5.45312 24.846 5.9654 25.3483 6.8192 25.3483ZM11.8315 20.5771L7.70312 22.8472C7.63281 22.8773 7.57254 22.9074 7.52232 22.9074C7.40179 22.9074 7.34152 22.817 7.34152 22.6764V11.0045C7.34152 10.7233 7.44196 10.5425 7.70312 10.3918L11.5 8.19202C11.6105 8.1217 11.7109 8.07148 11.8315 8.01121V20.5771ZM13.74 20.6273V8.25228C13.8404 8.30251 13.9509 8.36278 14.0513 8.42304L18.26 10.9643V23.1585C18.1295 23.0882 17.9989 23.0179 17.8583 22.9376L13.74 20.6273ZM20.1786 23.2992V10.7735L24.3069 8.52349C24.3571 8.49336 24.4174 8.47327 24.4676 8.47327C24.5882 8.47327 24.6685 8.56367 24.6685 8.69425V20.3059C24.6685 20.5972 24.5681 20.778 24.2969 20.9286L20.6406 23.048C20.49 23.1384 20.3292 23.2288 20.1786 23.2992Z" fill="white"/>
</svg>
