<svg width="60" height="60" viewBox="0 0 60 60" fill="none" xmlns="http://www.w3.org/2000/svg">
<circle cx="30" cy="30" r="30" fill="#F0F5FF"/>
<path d="M40.1147 21.9854C40.1147 23.1203 36.846 24.0283 32.8054 24.0283C28.7649 24.0283 25.4961 23.1203 25.4961 21.9854C25.4961 20.8504 28.7649 19.9424 32.8054 19.9424C36.846 19.9424 40.1147 20.8504 40.1147 21.9854Z" stroke="#0151FC" stroke-width="2" stroke-miterlimit="10" stroke-linecap="round"/>
<path d="M40.1151 25.6172C40.1151 26.7522 36.8464 27.6602 32.8058 27.6602C32.034 27.6602 31.3076 27.6148 30.5812 27.5694C30.4904 27.5694 26.1321 27.0246 26.0867 26.9792" stroke="#0151FC" stroke-width="2" stroke-miterlimit="10" stroke-linecap="round"/>
<path d="M40.1151 29.5664C40.1151 30.656 37.0279 31.564 33.1689 31.6094" stroke="#0151FC" stroke-width="2" stroke-miterlimit="10" stroke-linecap="round"/>
<path d="M40.1151 33.5166C40.1151 34.6062 37.0733 35.4688 33.2598 35.5596" stroke="#0151FC" stroke-width="2" stroke-miterlimit="10" stroke-linecap="round"/>
<path d="M25.4961 22.6201V27.2509" stroke="#0151FC" stroke-width="2" stroke-miterlimit="10" stroke-linecap="round"/>
<path d="M40.115 22.6201V33.4706" stroke="#0151FC" stroke-width="2" stroke-miterlimit="10" stroke-linecap="round"/>
<path d="M33.0782 34.5144C33.0782 38.5096 29.8548 41.7329 25.8596 41.7329C21.9099 41.7329 18.6865 38.5096 18.6865 34.5144C18.6865 30.5193 21.9099 27.2959 25.905 27.2959C29.8548 27.3413 33.0782 30.5647 33.0782 34.5144Z" stroke="#0151FC" stroke-width="2" stroke-miterlimit="10" stroke-linecap="round"/>
<path d="M25.4967 39.1912V38.0562C24.8611 38.0562 24.1801 37.8292 23.7715 37.5568L24.0439 36.785C24.4525 37.0574 25.0427 37.2844 25.6783 37.2844C26.4955 37.2844 27.0402 36.8304 27.0402 36.1948C27.0402 35.5592 26.5863 35.196 25.7691 34.8328C24.5887 34.3788 23.9077 33.8794 23.9077 32.8807C23.9077 31.9273 24.5887 31.2463 25.6329 31.0647V29.9297H26.3139V31.0193C26.9948 31.0193 27.4488 31.2009 27.7666 31.4279L27.4942 32.1543C27.2672 32.0181 26.8133 31.7911 26.0869 31.7911C25.2243 31.7911 24.9065 32.2905 24.9065 32.7445C24.9065 33.3347 25.3151 33.607 26.3139 34.0156C27.4942 34.515 28.0844 35.0598 28.0844 36.104C28.0844 37.012 27.4488 37.8292 26.3139 38.0108V39.1912H25.4967Z" fill="#0151FC" stroke="#0151FC" stroke-width="0.4"/>
</svg>
