<svg width="20" height="20" viewBox="0 0 20 20" fill="none" xmlns="http://www.w3.org/2000/svg">
<path d="M13.7114 6.21163C13.8874 6.04399 14.1218 5.95131 14.3649 5.95315C14.608 5.95499 14.8409 6.0512 15.0144 6.22149C15.1879 6.39177 15.2885 6.62281 15.295 6.86585C15.3014 7.10888 15.2131 7.34491 15.0489 7.52413L10.0614 13.7616C9.97559 13.854 9.87209 13.9281 9.75702 13.9796C9.64195 14.031 9.51769 14.0588 9.39167 14.0611C9.26564 14.0634 9.14044 14.0403 9.02355 13.9932C8.90666 13.946 8.80048 13.8758 8.71135 13.7866L5.40385 10.4791C5.31175 10.3933 5.23787 10.2898 5.18663 10.1748C5.13539 10.0598 5.10784 9.93566 5.10561 9.80978C5.10339 9.6839 5.12655 9.55887 5.1737 9.44213C5.22085 9.3254 5.29103 9.21935 5.38006 9.13033C5.46908 9.04131 5.57512 8.97113 5.69186 8.92398C5.80859 8.87682 5.93363 8.85367 6.05951 8.85589C6.18539 8.85811 6.30953 8.88566 6.42453 8.9369C6.53953 8.98814 6.64303 9.06202 6.72885 9.15413L9.34635 11.7704L13.6876 6.23913C13.6954 6.22951 13.7038 6.22032 13.7126 6.21163H13.7114Z" fill="url(#paint0_linear_5546_193938)"/>
<defs>
<linearGradient id="paint0_linear_5546_193938" x1="5.10564" y1="10.0065" x2="15.2953" y2="10.0065" gradientUnits="userSpaceOnUse">
<stop offset="0.000794057" stop-color="#51C1B0"/>
<stop offset="0.2041" stop-color="#4FC1B4"/>
<stop offset="0.4575" stop-color="#4BC1BE"/>
<stop offset="0.7363" stop-color="#42C2CF"/>
<stop offset="1" stop-color="#32C3E3"/>
</linearGradient>
</defs>
</svg>
