<svg width="24" height="24" viewBox="0 0 24 24" fill="none" xmlns="http://www.w3.org/2000/svg">
<g opacity="0.7">
<path d="M13.2237 10.2712V11.1359H5.44104V10.2712C5.44104 8.83834 7.18348 7.677 9.33235 7.677C11.4812 7.677 13.2237 8.83834 13.2237 10.2712Z" stroke="#0E0B23" stroke-width="1.5" stroke-linecap="round" stroke-linejoin="round"/>
<path d="M19.7092 20.648V7.0284C19.7092 4.99886 17.3861 3.35327 14.5208 3.35327C11.6555 3.35327 9.3324 4.99886 9.3324 7.0284V7.67695" stroke="#0E0B23" stroke-width="1.5" stroke-linecap="round" stroke-linejoin="round"/>
<path d="M9.3324 14.1623V13.73" stroke="#0E0B23" stroke-linecap="round" stroke-linejoin="round"/>
<path d="M9.3324 20.6479V20.2156" stroke="#0E0B23" stroke-linecap="round" stroke-linejoin="round"/>
<path d="M9.3324 17.6216V16.7568" stroke="#0E0B23" stroke-linecap="round" stroke-linejoin="round"/>
<path d="M5.94688 13.7432L5.79944 14.1496" stroke="#0E0B23" stroke-linecap="round" stroke-linejoin="round"/>
<path d="M3.35276 20.2285L3.20532 20.6349" stroke="#0E0B23" stroke-linecap="round" stroke-linejoin="round"/>
<path d="M4.72433 16.7825L4.42859 17.5953" stroke="#0E0B23" stroke-linecap="round" stroke-linejoin="round"/>
<path d="M12.7217 13.7432L12.8691 14.1496" stroke="#0E0B23" stroke-linecap="round" stroke-linejoin="round"/>
<path d="M15.3159 20.2285L15.4634 20.6349" stroke="#0E0B23" stroke-linecap="round" stroke-linejoin="round"/>
<path d="M13.9444 16.7825L14.2401 17.5953" stroke="#0E0B23" stroke-linecap="round" stroke-linejoin="round"/>
</g>
</svg>
