<svg width="60" height="60" viewBox="0 0 60 60" fill="none" xmlns="http://www.w3.org/2000/svg">
<circle cx="30" cy="30" r="30" fill="#F0F5FF"/>
<path d="M38.8889 39.9997V37.7775C38.8889 36.5987 38.4206 35.4683 37.5871 34.6348C36.7536 33.8013 35.6232 33.333 34.4444 33.333H25.5555C24.3768 33.333 23.2463 33.8013 22.4128 34.6348C21.5793 35.4683 21.1111 36.5987 21.1111 37.7775V39.9997" stroke="#0151FC" stroke-width="2.5" stroke-linecap="round" stroke-linejoin="round"/>
<path d="M30.0001 28.8889C32.4547 28.8889 34.4446 26.899 34.4446 24.4444C34.4446 21.9898 32.4547 20 30.0001 20C27.5455 20 25.5557 21.9898 25.5557 24.4444C25.5557 26.899 27.5455 28.8889 30.0001 28.8889Z" stroke="#0151FC" stroke-width="2.5" stroke-linecap="round" stroke-linejoin="round"/>
</svg>
