<svg width="20" height="20" viewBox="0 0 20 20" fill="none" xmlns="http://www.w3.org/2000/svg">
<path d="M17.1412 4.36498C16.4269 4.71432 15.7269 4.85619 14.9983 5.07078C14.1976 4.16893 13.0105 4.11902 11.8698 4.54535C10.729 4.97168 9.9819 6.01398 9.99833 7.20956V7.92249C7.68047 7.98166 5.61618 6.92796 4.28404 5.07078C4.28404 5.07078 1.2969 10.37 7.14118 12.913C5.80404 13.802 4.47047 14.4016 2.85547 14.3388C5.21833 15.6242 7.79333 16.0663 10.0226 15.4204C12.5798 14.6789 14.6812 12.7661 15.4876 9.90086C15.7282 9.02943 15.8476 8.12914 15.8426 7.22525C15.8412 7.04773 16.9212 5.24901 17.1412 4.36427V4.36498Z" stroke="#0A0B0D" stroke-width="1.5" stroke-linecap="round" stroke-linejoin="round"/>
</svg>
