<svg width="160" height="160" viewBox="0 0 160 160" fill="none" xmlns="http://www.w3.org/2000/svg">
<g opacity="0.9">
<path d="M80 160C124.183 160 160 124.183 160 80C160 35.8172 124.183 0 80 0C35.8172 0 0 35.8172 0 80C0 124.183 35.8172 160 80 160Z" fill="#EEF5FF"/>
<path d="M45.3481 114.561C45.3481 114.561 17.5539 104.138 11.611 131.201L17.4624 130.013C17.4624 130.013 10.5596 137.921 8.13672 152.915C23.0853 149.99 30.7653 142.904 30.7653 142.904L29.7596 148.801C56.6396 141.99 45.3481 114.561 45.3481 114.561Z" fill="#9CB5E7"/>
<path d="M45.3479 114.56C45.3479 114.56 28.0221 108.068 24.2736 124.937L27.9307 124.206C27.9307 124.206 23.6336 129.143 22.125 138.514C31.4507 136.686 36.2507 132.251 36.2507 132.251L35.6564 135.954C52.3879 131.657 45.3479 114.56 45.3479 114.56Z" fill="#A5CAFB"/>
<path d="M65.0027 113.143L46.0312 94.3997L51.2427 89.1426L70.2141 107.885L65.0027 113.143Z" fill="#9CB5E7"/>
<path d="M60.4319 64.2294C60.4319 64.2294 42.8319 62.9494 35.5633 70.218C27.7462 78.0808 21.3005 87.6808 16.089 101.395C13.3005 108.709 20.6605 101.167 25.5519 96.6866C34.1005 88.8694 38.3062 89.0523 46.4433 90.9266C46.4433 90.8808 50.7862 81.9208 60.4319 64.2294Z" fill="#A5CAFB"/>
<path opacity="0.33" d="M60.4364 64.2294C60.4364 64.2294 42.8364 62.9494 35.5678 70.218C27.7506 78.0808 21.3049 87.6808 16.0935 101.395C15.5906 102.767 15.4078 103.635 15.4992 104.047C15.4992 104.047 22.9964 86.6751 31.2249 78.1723C39.4535 69.6694 44.9392 66.4694 60.4364 64.2294Z" fill="white"/>
<path d="M95.2238 98.6543C95.2238 98.6543 96.6867 116.209 89.4638 123.477C81.6467 131.34 72.0924 137.831 58.3781 143.18C51.0638 146.014 58.6067 138.609 62.9952 133.717C70.7209 125.123 70.5381 120.917 68.6181 112.826C68.6638 112.871 77.5781 108.391 95.2238 98.6543Z" fill="#A5CAFB"/>
<path d="M150.718 32.3666C153.644 13.3951 149.896 8.91513 149.896 8.91513C149.896 8.91513 145.37 5.21228 126.398 8.32085C106.33 11.5666 93.5756 23.9094 84.8899 32.5037C73.6442 43.6123 55.1756 69.1666 46.3984 90.8808L57.5527 101.807L68.6156 112.869C90.3299 103.955 115.793 85.258 126.81 73.9666C135.358 65.2351 147.61 52.4351 150.718 32.3666Z" fill="url(#paint0_linear_1_2)"/>
<path d="M49.2812 93.6226L57.6012 101.805L68.6641 112.868C90.3784 103.954 115.841 85.2569 126.858 73.9655C135.361 65.2341 147.658 52.4341 150.721 32.3655C153.647 13.3941 149.898 8.91406 149.898 8.91406" fill="url(#paint1_linear_1_2)"/>
<path opacity="0.09" d="M48 92.4355L67.0171 111.224" stroke="#92B3DE" stroke-width="1.8919" stroke-miterlimit="10"/>
<path d="M46.4453 90.8822L57.5996 101.808L68.6625 112.871C73.051 111.088 77.5767 108.848 82.1482 106.425L52.7996 77.3965C50.3767 81.9222 48.1825 86.4936 46.4453 90.8822Z" fill="#9CB5E7"/>
<path d="M76.2045 84.252L68.6617 112.869L66.4674 111.452L65.0045 113.143L57.6445 105.875L76.2045 84.252Z" fill="#9CB5E7"/>
<path d="M109.898 13.4863L145.647 48.8692" stroke="#A5CAFB" stroke-width="1.8919" stroke-miterlimit="10"/>
<path d="M149.898 8.91513C149.898 8.91513 145.373 5.21228 126.401 8.32085C120.23 9.32656 114.79 11.1551 109.898 13.5323L145.647 48.9151C147.933 44.0237 149.761 38.5837 150.721 32.4123C153.647 13.3951 149.898 8.91513 149.898 8.91513Z" fill="#A5CAFB"/>
<path d="M145.783 56.5053L102.766 14.3567L104.594 12.4824L147.611 54.631L145.783 56.5053Z" fill="#9CB5E7"/>
<path d="M143.176 59.9336L100.113 17.7851L101.348 16.5508L144.365 58.6994L143.176 59.9336Z" fill="#9CB5E7"/>
<path d="M140.344 58.0574C140.527 57.8746 141.792 55.8479 142.401 54.8574L146.287 58.5146L143.087 60.5717C142.097 59.8098 140.161 58.2403 140.344 58.0574Z" fill="#EEF5FF"/>
<path d="M100.571 18.9715C100.571 18.7887 101.942 17.9811 102.628 17.6001L100.114 15.543L98.7422 17.143C99.3517 17.8287 100.571 19.1544 100.571 18.9715Z" fill="#EEF5FF"/>
<path opacity="0.09" d="M52.7969 77.3496L82.0997 106.378" stroke="#A5CAFB" stroke-width="1.8919" stroke-miterlimit="10"/>
<path d="M76.067 83.2486C76.067 83.2486 74.4213 80.7343 58.6042 96.6428C42.787 112.551 29.3013 127.82 30.5356 129.054C31.8156 130.289 46.947 116.711 62.8099 100.803C78.627 84.8485 76.067 83.2486 76.067 83.2486Z" fill="#A5CAFB"/>
<path opacity="0.33" d="M76.067 83.2486C76.067 83.2486 74.4213 80.7343 58.6042 96.6428C42.787 112.551 29.3013 127.82 30.5356 129.054C30.5356 129.054 34.9699 122.7 46.8556 110.037C58.6956 97.3743 72.3184 83.5686 76.067 83.2486Z" fill="#A5CAFB"/>
<path d="M99.5193 79.5932C110.401 79.5932 119.222 70.7719 119.222 59.8904C119.222 49.0088 110.401 40.1875 99.5193 40.1875C88.6377 40.1875 79.8164 49.0088 79.8164 59.8904C79.8164 70.7719 88.6377 79.5932 99.5193 79.5932Z" fill="url(#paint2_linear_1_2)"/>
<path d="M99.4427 78.859C110.249 78.8261 118.982 70.0395 118.949 59.2337C118.916 48.4278 110.129 39.6947 99.3235 39.7276C88.5177 39.7605 79.7845 48.547 79.8174 59.3529C79.8503 70.1587 88.6369 78.8919 99.4427 78.859Z" fill="#D4D4D4"/>
<path d="M99.6106 78.8618C110.29 78.8618 118.948 70.2043 118.948 59.5246C118.948 48.845 110.29 40.1875 99.6106 40.1875C88.931 40.1875 80.2734 48.845 80.2734 59.5246C80.2734 70.2043 88.931 78.8618 99.6106 78.8618Z" fill="url(#paint3_linear_1_2)"/>
<path d="M99.3358 74.4243C107.693 74.3754 114.428 67.5612 114.379 59.2044C114.33 50.8475 107.516 44.1126 99.1588 44.1615C90.8019 44.2104 84.067 51.0246 84.1159 59.3814C84.1648 67.7383 90.979 74.4732 99.3358 74.4243Z" fill="#76C9F0"/>
<path d="M99.3821 74.104C107.385 74.104 113.873 67.6159 113.873 59.6125C113.873 51.6091 107.385 45.1211 99.3821 45.1211C91.3787 45.1211 84.8906 51.6091 84.8906 59.6125C84.8906 67.6159 91.3787 74.104 99.3821 74.104Z" fill="#A5CAFB"/>
<path d="M111.997 48.457L80.457 62.4948L82.7003 67.657L114.286 53.6193L111.997 48.457Z" fill="url(#paint4_linear_1_2)"/>
<path d="M114.515 57.1426L83.6562 70.6643L84.7536 73.1426L115.656 59.6643L114.515 57.1426Z" fill="url(#paint5_linear_1_2)"/>
<path d="M87.0394 48.4423C87.1308 47.9852 86.8565 47.5737 86.3994 47.4823C85.9423 47.3909 85.5308 47.6652 85.4394 48.1223C85.348 48.5795 85.6223 48.9909 86.0794 49.0823C86.4908 49.1737 86.948 48.8995 87.0394 48.4423Z" fill="#A3A3A3"/>
<path d="M84.1605 52.9658C84.2519 52.5086 83.9776 52.0972 83.5205 52.0058C83.0633 51.9143 82.6519 52.1886 82.5605 52.6458C82.4691 53.1029 82.7433 53.5143 83.2005 53.6058C83.6119 53.6972 84.0691 53.3772 84.1605 52.9658Z" fill="#A3A3A3"/>
<path d="M90.2855 45.288C90.3769 44.8309 90.1026 44.4194 89.6455 44.328C89.1883 44.2366 88.7769 44.5109 88.6855 44.968C88.5941 45.4252 88.8683 45.8366 89.3255 45.928C89.7369 46.0194 90.1941 45.7452 90.2855 45.288Z" fill="#A3A3A3"/>
<path d="M83.4287 62.7468C83.1545 62.3811 82.6059 62.3354 82.2859 62.6554C81.9202 62.9296 81.8745 63.4782 82.1945 63.7982C82.4687 64.1639 83.0173 64.2096 83.3373 63.8896C83.6573 63.6154 83.703 63.1125 83.4287 62.7468Z" fill="#A3A3A3"/>
<path d="M85.167 67.823C84.8927 67.4572 84.3442 67.4115 84.0242 67.7315C83.6585 68.0058 83.6127 68.5544 83.9327 68.8744C84.207 69.2401 84.7556 69.2858 85.0756 68.9658C85.4413 68.6915 85.487 68.143 85.167 67.823Z" fill="#A3A3A3"/>
<path d="M83.0616 57.448C82.7873 57.0822 82.2387 57.0365 81.9187 57.3565C81.553 57.6308 81.5073 58.1794 81.8273 58.4994C82.1473 58.8194 82.6501 58.9108 82.9701 58.5908C83.3358 58.3165 83.3816 57.8137 83.0616 57.448Z" fill="#A3A3A3"/>
<path d="M92.0701 74.496C91.6129 74.496 91.2472 74.9075 91.2929 75.3646C91.2929 75.8218 91.7044 76.1875 92.1615 76.1418C92.6186 76.1418 92.9844 75.7303 92.9386 75.2732C92.9386 74.8618 92.5272 74.496 92.0701 74.496Z" fill="#A3A3A3"/>
<path d="M97.1404 76.2343C96.6832 76.2343 96.3175 76.6458 96.3632 77.1029C96.3632 77.56 96.7747 77.9258 97.2318 77.88C97.689 77.88 98.0547 77.4686 98.009 77.0115C98.009 76.5543 97.5975 76.2343 97.1404 76.2343Z" fill="#A3A3A3"/>
<path d="M87.7263 71.5234C87.2692 71.5234 86.9035 71.9348 86.9492 72.392C86.9492 72.8491 87.3606 73.2148 87.8178 73.1691C88.2749 73.1691 88.6406 72.7577 88.5949 72.3005C88.5492 71.8434 88.1835 71.5234 87.7263 71.5234Z" fill="#A3A3A3"/>
<path d="M106.784 74.8169C106.51 75.1826 106.602 75.6855 106.967 75.9598C107.333 76.234 107.836 76.1426 108.11 75.7769C108.384 75.4112 108.293 74.9083 107.927 74.634C107.607 74.3598 107.059 74.4512 106.784 74.8169Z" fill="#A3A3A3"/>
<path d="M111.038 71.938C110.764 72.3037 110.856 72.8066 111.221 73.0809C111.587 73.3551 112.09 73.2637 112.364 72.898C112.638 72.5323 112.547 72.0294 112.181 71.7551C111.816 71.4809 111.313 71.5723 111.038 71.938Z" fill="#A3A3A3"/>
<path d="M101.804 76.1897C101.53 76.5554 101.621 77.0583 101.987 77.3326C102.353 77.6069 102.855 77.5154 103.13 77.1497C103.404 76.784 103.313 76.2811 102.947 76.0069C102.581 75.7783 102.078 75.824 101.804 76.1897Z" fill="#A3A3A3"/>
<path d="M115.428 63.6622C115.519 64.1193 115.976 64.3936 116.433 64.2565C116.891 64.165 117.165 63.7079 117.028 63.2508C116.936 62.7936 116.479 62.5193 116.022 62.6565C115.611 62.7479 115.336 63.205 115.428 63.6622Z" fill="#A3A3A3"/>
<path d="M115.975 58.7716C116.066 59.2287 116.523 59.503 116.98 59.3658C117.438 59.2744 117.712 58.8173 117.575 58.3601C117.483 57.903 117.026 57.6287 116.569 57.7658C116.158 57.8573 115.883 58.3144 115.975 58.7716Z" fill="#A3A3A3"/>
<path d="M113.736 68.5548C113.828 69.0119 114.285 69.2862 114.742 69.1491C115.199 69.0576 115.474 68.6005 115.336 68.1433C115.245 67.6862 114.788 67.4119 114.331 67.5491C113.919 67.6862 113.645 68.1433 113.736 68.5548Z" fill="#A3A3A3"/>
<path d="M113.142 49.722C113.554 49.9048 114.057 49.722 114.24 49.3106C114.422 48.8991 114.24 48.3963 113.828 48.2134C113.417 48.0306 112.914 48.2134 112.731 48.6248C112.548 49.0363 112.731 49.5391 113.142 49.722Z" fill="#A3A3A3"/>
<path d="M109.396 45.972C109.808 46.1548 110.311 45.972 110.494 45.5606C110.676 45.1491 110.494 44.6463 110.082 44.4634C109.671 44.2806 109.168 44.4634 108.985 44.8748C108.802 45.2863 108.985 45.7891 109.396 45.972Z" fill="#A3A3A3"/>
<path d="M115.338 54.2942C115.749 54.4771 116.252 54.2943 116.435 53.8828C116.618 53.4714 116.435 52.9685 116.023 52.7857C115.612 52.6028 115.109 52.7857 114.926 53.1971C114.743 53.6543 114.926 54.1114 115.338 54.2942Z" fill="#A3A3A3"/>
<path d="M100.125 42.3991C100.244 41.9607 99.9857 41.5083 99.5473 41.3887C99.1089 41.2691 98.6565 41.5275 98.5369 41.9659C98.4173 42.4043 98.6757 42.8567 99.1141 42.9763C99.5525 43.0959 100.005 42.8375 100.125 42.3991Z" fill="#A3A3A3"/>
<path d="M94.5829 43.8235C94.9943 43.595 95.1314 43.0921 94.9486 42.7264C94.72 42.315 94.2171 42.1778 93.8514 42.3607C93.44 42.5892 93.3029 43.0921 93.4857 43.4578C93.6686 43.8692 94.1714 44.0064 94.5829 43.8235Z" fill="#A3A3A3"/>
<path d="M105.455 43.2611C105.637 42.8448 105.447 42.3596 105.031 42.1774C104.614 41.9953 104.129 42.1852 103.947 42.6015C103.765 43.0179 103.955 43.5031 104.371 43.6852C104.787 43.8674 105.273 43.6775 105.455 43.2611Z" fill="#A3A3A3"/>
<path d="M86.8558 48.2549C86.9472 47.7977 86.6729 47.3863 86.2158 47.2949C85.7587 47.2034 85.3472 47.4777 85.2558 47.9349C85.1644 48.392 85.4387 48.8034 85.8958 48.8949C86.3072 48.9863 86.7644 48.712 86.8558 48.2549Z" fill="#D4D4D4"/>
<path d="M83.9769 52.7803C84.0683 52.3231 83.794 51.9117 83.3369 51.8203C82.8798 51.7288 82.4683 52.0031 82.3769 52.4602C82.2855 52.9174 82.5598 53.3288 83.0169 53.4203C83.4283 53.5117 83.8855 53.2374 83.9769 52.7803Z" fill="#D4D4D4"/>
<path d="M90.1019 45.1474C90.1933 44.6903 89.919 44.2789 89.4619 44.1874C89.0047 44.096 88.5933 44.3703 88.5019 44.8274C88.4105 45.2846 88.6847 45.696 89.1419 45.7874C89.5533 45.8789 90.0105 45.5589 90.1019 45.1474Z" fill="#D4D4D4"/>
<path d="M83.2459 62.5652C82.9716 62.1995 82.4231 62.1538 82.1031 62.4738C81.7831 62.7938 81.6916 63.2966 82.0116 63.6166C82.2859 63.9823 82.8345 64.028 83.1545 63.708C83.4745 63.388 83.5202 62.9309 83.2459 62.5652Z" fill="#D4D4D4"/>
<path d="M85.0272 67.6375C84.7529 67.2717 84.2043 67.226 83.8843 67.546C83.5643 67.866 83.4729 68.3689 83.7929 68.6889C84.0672 69.0546 84.6157 69.1003 84.9357 68.7803C85.2557 68.506 85.3014 68.0032 85.0272 67.6375Z" fill="#D4D4D4"/>
<path d="M82.9248 57.2625C82.6506 56.8967 82.102 56.851 81.782 57.171C81.4163 57.4453 81.3706 57.9939 81.6906 58.3139C81.9648 58.6796 82.5134 58.7253 82.8334 58.4053C83.1534 58.0853 83.1991 57.6282 82.9248 57.2625Z" fill="#D4D4D4"/>
<path d="M91.9334 74.3593C91.4762 74.3593 91.1105 74.7708 91.1562 75.2279C91.1562 75.685 91.5676 76.0508 92.0248 76.005C92.4819 76.005 92.8476 75.5936 92.8019 75.1365C92.7562 74.6793 92.3905 74.3136 91.9334 74.3593Z" fill="#D4D4D4"/>
<path d="M97.0037 76.0488C96.5465 76.0488 96.1808 76.4603 96.2265 76.9174C96.2265 77.3745 96.6379 77.7403 97.0951 77.6945C97.5522 77.6945 97.918 77.2831 97.8722 76.826C97.8265 76.4145 97.4608 76.0488 97.0037 76.0488Z" fill="#D4D4D4"/>
<path d="M87.5427 71.3418C87.0856 71.3418 86.7199 71.7532 86.7656 72.2104C86.7656 72.6675 87.177 73.0332 87.6342 72.9875C88.0913 72.9875 88.457 72.5761 88.4113 72.1189C88.3656 71.7075 87.9999 71.3418 87.5427 71.3418Z" fill="#D4D4D4"/>
<path d="M106.648 74.6353C106.373 75.001 106.465 75.5039 106.831 75.7782C107.196 76.0524 107.699 75.961 107.973 75.5953C108.248 75.2296 108.156 74.7267 107.791 74.4525C107.425 74.1782 106.876 74.2696 106.648 74.6353Z" fill="#D4D4D4"/>
<path d="M110.855 71.7525C110.581 72.1182 110.672 72.6211 111.038 72.8954C111.403 73.1696 111.906 73.0782 112.181 72.7125C112.455 72.3468 112.363 71.8439 111.998 71.5696C111.632 71.2954 111.129 71.3868 110.855 71.7525Z" fill="#D4D4D4"/>
<path d="M101.624 76.0494C101.35 76.4151 101.441 76.9179 101.807 77.1922C102.173 77.4665 102.676 77.3751 102.95 77.0094C103.224 76.6437 103.133 76.1408 102.767 75.8665C102.401 75.5922 101.899 75.6837 101.624 76.0494Z" fill="#D4D4D4"/>
<path d="M115.244 63.4786C115.336 63.9358 115.793 64.2101 116.25 64.0729C116.707 63.9815 116.981 63.5243 116.844 63.0672C116.753 62.6101 116.296 62.3358 115.838 62.4729C115.427 62.6101 115.153 63.0215 115.244 63.4786Z" fill="#D4D4D4"/>
<path d="M115.836 58.5861C115.928 59.0432 116.385 59.3175 116.842 59.1803C117.299 59.0889 117.573 58.6318 117.436 58.1746C117.345 57.7175 116.888 57.4432 116.43 57.5803C115.973 57.6718 115.699 58.1289 115.836 58.5861Z" fill="#D4D4D4"/>
<path d="M113.602 68.3693C113.693 68.8264 114.15 69.1007 114.608 68.9635C115.065 68.8721 115.339 68.415 115.202 67.9578C115.11 67.5007 114.653 67.2264 114.196 67.3635C113.739 67.5007 113.465 67.9578 113.602 68.3693Z" fill="#D4D4D4"/>
<path d="M112.959 49.5365C113.37 49.7193 113.873 49.5365 114.056 49.1251C114.239 48.7136 114.056 48.2108 113.645 48.0279C113.233 47.8451 112.73 48.0279 112.547 48.4393C112.365 48.8508 112.547 49.3536 112.959 49.5365Z" fill="#D4D4D4"/>
<path d="M110.313 45.4004C110.514 44.9929 110.346 44.4995 109.939 44.2984C109.531 44.0973 109.038 44.2647 108.837 44.6722C108.636 45.0798 108.803 45.5732 109.211 45.7743C109.618 45.9754 110.112 45.808 110.313 45.4004Z" fill="#D4D4D4"/>
<path d="M115.154 54.1537C115.566 54.3365 116.068 54.1537 116.251 53.7422C116.434 53.3308 116.251 52.828 115.84 52.6451C115.428 52.4622 114.926 52.6451 114.743 53.0565C114.56 53.468 114.743 53.9708 115.154 54.1537Z" fill="#D4D4D4"/>
<path d="M99.937 42.2272C100.057 41.7888 99.7982 41.3365 99.3598 41.2169C98.9214 41.0972 98.469 41.3557 98.3494 41.7941C98.2298 42.2325 98.4882 42.6849 98.9266 42.8045C99.365 42.9241 99.8174 42.6656 99.937 42.2272Z" fill="#D4D4D4"/>
<path d="M94.3993 43.638C94.8107 43.4095 94.9478 42.9066 94.765 42.5409C94.5364 42.1295 94.0335 41.9923 93.6678 42.1752C93.2564 42.4037 93.1193 42.9066 93.3021 43.2723C93.5307 43.6837 94.0336 43.8666 94.3993 43.638Z" fill="#D4D4D4"/>
<path d="M105.271 43.0971C105.453 42.6807 105.263 42.1956 104.847 42.0134C104.431 41.8313 103.946 42.0211 103.763 42.4375C103.581 42.8539 103.771 43.3391 104.187 43.5212C104.604 43.7034 105.089 43.5135 105.271 43.0971Z" fill="#D4D4D4"/>
<path d="M86.5131 47.4693L85.4141 48.5684L85.5434 48.6977L86.6424 47.5986L86.5131 47.4693Z" fill="#B9B9B9"/>
<path d="M83.6693 51.9693L82.5703 53.0684L82.6996 53.1977L83.7986 52.0986L83.6693 51.9693Z" fill="#B9B9B9"/>
<path d="M89.8061 44.3287L88.707 45.4277L88.8363 45.557L89.9354 44.458L89.8061 44.3287Z" fill="#B9B9B9"/>
<path d="M83.0951 62.4967L81.9961 63.5957L82.1254 63.725L83.2244 62.626L83.0951 62.4967Z" fill="#B9B9B9"/>
<path d="M84.8842 67.5514L83.7852 68.6504L83.9145 68.7797L85.0135 67.6807L84.8842 67.5514Z" fill="#B9B9B9"/>
<path d="M82.7631 57.1861L81.6641 58.2852L81.7934 58.4145L82.8924 57.3154L82.7631 57.1861Z" fill="#B9B9B9"/>
<path d="M92.4311 74.5689L91.332 75.668L91.4613 75.7973L92.5604 74.6982L92.4311 74.5689Z" fill="#B9B9B9"/>
<path d="M97.4858 76.2701L96.3867 77.3691L96.516 77.4984L97.6151 76.3994L97.4858 76.2701Z" fill="#B9B9B9"/>
<path d="M88.06 71.5338L86.9609 72.6328L87.0902 72.7621L88.1893 71.6631L88.06 71.5338Z" fill="#B9B9B9"/>
<path d="M107.79 74.5162L106.691 75.6152L106.821 75.7445L107.92 74.6455L107.79 74.5162Z" fill="#B9B9B9"/>
<path d="M112.033 71.6256L110.934 72.7246L111.063 72.8539L112.162 71.7549L112.033 71.6256Z" fill="#B9B9B9"/>
<path d="M102.806 75.9146L101.707 77.0137L101.836 77.143L102.935 76.0439L102.806 75.9146Z" fill="#B9B9B9"/>
<path d="M116.556 62.6764L115.457 63.7754L115.586 63.9047L116.685 62.8057L116.556 62.6764Z" fill="#B9B9B9"/>
<path d="M117.119 57.7857L116.02 58.8848L116.149 59.0141L117.248 57.915L117.119 57.7857Z" fill="#B9B9B9"/>
<path d="M114.857 67.5787L113.758 68.6777L113.887 68.807L114.986 67.708L114.857 67.5787Z" fill="#B9B9B9"/>
<path d="M113.822 48.1724L112.723 49.2715L112.852 49.4008L113.951 48.3017L113.822 48.1724Z" fill="#B9B9B9"/>
<path d="M110.06 44.4264L108.961 45.5254L109.09 45.6547L110.189 44.5557L110.06 44.4264Z" fill="#B9B9B9"/>
<path d="M115.994 52.7506L114.895 53.8496L115.024 53.9789L116.123 52.8799L115.994 52.7506Z" fill="#B9B9B9"/>
<path d="M99.6303 41.3873L98.5312 42.4863L98.6605 42.6156L99.7596 41.5166L99.6303 41.3873Z" fill="#B9B9B9"/>
<path d="M94.5209 42.2935L93.4219 43.3926L93.5512 43.5219L94.6502 42.4228L94.5209 42.2935Z" fill="#B9B9B9"/>
<path d="M104.994 42.1549L103.895 43.2539L104.024 43.3832L105.123 42.2842L104.994 42.1549Z" fill="#B9B9B9"/>
<path opacity="0.33" d="M149.896 8.91513C149.896 8.91513 145.37 5.21228 126.398 8.32085C106.33 11.5666 93.5756 23.9094 84.8899 32.5037C73.6442 43.6123 55.1756 69.1666 46.3984 90.8809C46.4442 90.8809 86.8099 6.12656 149.896 8.91513Z" fill="white"/>
<path opacity="0.33" d="M48.7284 93.1213L46.717 95.087L46.0312 94.4013L47.997 92.4355L48.7284 93.1213Z" fill="white"/>
<path d="M68.6641 112.871L70.2641 118.677C70.2641 118.677 85.7612 111.042 95.2698 98.6994C95.2241 98.6537 78.0812 108.939 68.6641 112.871Z" fill="url(#paint6_linear_1_2)"/>
<path opacity="0.33" d="M61.6211 136.092C66.3754 131.429 68.1582 126.904 68.4782 126.035C68.3868 126.218 68.2496 126.584 67.8839 127.178C66.8325 129.144 65.2325 131.247 62.9925 133.715C60.1125 136.869 55.9982 141.075 55.3582 142.904C55.2668 143.269 55.3125 143.544 55.4954 143.681C55.5411 143.681 56.3182 141.258 61.6211 136.092Z" fill="white"/>
<path d="M142.857 54.1709C143.405 53.4394 144.457 51.2756 144.914 50.2852L148.8 54.3994L145.828 57.1423C144.609 56.4566 142.308 54.9023 142.857 54.1709Z" fill="#EEF5FF"/>
<path d="M104.227 16.6869C104.227 16.4583 108.342 14.1726 108.57 14.1726L104.227 11.2012L101.027 13.2583C102.094 14.4774 104.227 16.8697 104.227 16.6869Z" fill="#EEF5FF"/>
<path d="M113.6 54.4001C112.915 52.8001 111.315 50.2096 110.172 48.6858L111.772 47.7715L112.915 50.0572L114.515 51.8858V54.1715C114.286 54.6286 113.968 55.2571 113.6 54.4001Z" fill="#BBBBBB"/>
<path d="M114.285 60.7998C114.651 60.2513 114.438 57.8284 114.285 56.6855L115.428 58.057L116.342 59.8855C116.19 60.0379 115.565 60.4341 114.285 60.7998Z" fill="#B8B8B8"/>
</g>
<defs>
<linearGradient id="paint0_linear_1_2" x1="91.901" y1="34.953" x2="124.185" y2="111.201" gradientUnits="userSpaceOnUse">
<stop offset="0.00355872" stop-color="#EEF4FA"/>
<stop offset="1" stop-color="#CDDEED"/>
</linearGradient>
<linearGradient id="paint1_linear_1_2" x1="96.3123" y1="43.4058" x2="123.701" y2="108.092" gradientUnits="userSpaceOnUse">
<stop offset="0.00355872" stop-color="#EEF4FA"/>
<stop offset="1" stop-color="#CDDEED"/>
</linearGradient>
<linearGradient id="paint2_linear_1_2" x1="103.306" y1="67.8034" x2="115.64" y2="93.6292" gradientUnits="userSpaceOnUse">
<stop stop-color="#9CB5E7"/>
<stop offset="0.6767" stop-color="#A5CAFB"/>
<stop offset="1" stop-color="#A5CAFB"/>
</linearGradient>
<linearGradient id="paint3_linear_1_2" x1="90.6474" y1="38.5533" x2="114.876" y2="95.2342" gradientUnits="userSpaceOnUse">
<stop stop-color="#C7C7C7"/>
<stop offset="1" stop-color="#A3A3A3"/>
</linearGradient>
<linearGradient id="paint4_linear_1_2" x1="112.622" y1="47.857" x2="82.4113" y2="67.6769" gradientUnits="userSpaceOnUse">
<stop stop-color="#F9FBFC"/>
<stop offset="1" stop-color="#F9FBFC" stop-opacity="0"/>
</linearGradient>
<linearGradient id="paint5_linear_1_2" x1="115.82" y1="54.5483" x2="86.5993" y2="74.0827" gradientUnits="userSpaceOnUse">
<stop stop-color="#F9FBFC"/>
<stop offset="1" stop-color="#F9FBFC" stop-opacity="0"/>
</linearGradient>
<linearGradient id="paint6_linear_1_2" x1="78.0739" y1="98.2029" x2="84.9069" y2="113.511" gradientUnits="userSpaceOnUse">
<stop stop-color="#A5CAFB"/>
<stop offset="1" stop-color="#1D262D" stop-opacity="0"/>
</linearGradient>
</defs>
</svg>
