<svg width="24" height="24" viewBox="0 0 24 24" fill="none" xmlns="http://www.w3.org/2000/svg">
<mask id="path-1-inside-1_4141_83349" fill="white">
<path d="M17.9713 6.54212C17.8722 6.38926 17.7312 6.26798 17.5647 6.19393C16.6285 5.77736 15.6423 5.45607 14.6182 5.24098C14.3118 5.17662 14.0029 5.32319 13.8665 5.60502C13.7196 5.90849 13.3951 6.09298 13.0599 6.05631C12.0617 5.94708 11.0701 5.94663 10.0851 6.05497C9.74829 6.09202 9.42165 5.9073 9.27217 5.60319C9.13413 5.32239 8.82507 5.17648 8.51886 5.24078C7.49395 5.45601 6.507 5.77815 5.57083 6.19559C5.40308 6.27039 5.26097 6.39361 5.16183 6.54823C3.03585 9.86387 2.39167 13.1032 2.61086 16.2981C2.63023 16.5803 2.77533 16.8391 3.00648 17.0022C4.20228 17.8461 5.37051 18.4282 6.52156 18.846C6.92459 18.9923 7.37466 18.8438 7.60443 18.4818C7.68248 18.3588 7.75826 18.2342 7.83171 18.108C8.02744 17.7716 7.86003 17.3501 7.50786 17.1843C7.31212 17.0922 7.11999 16.9937 6.93175 16.8892C6.79167 16.8113 6.78224 16.6154 6.90664 16.5144C6.97475 16.4591 7.06823 16.447 7.14816 16.4832C10.0293 17.7878 13.1442 17.7881 15.9922 16.484C16.0723 16.4473 16.1667 16.4594 16.2352 16.5147C16.36 16.6156 16.3496 16.8111 16.2094 16.8891C16.0213 16.9936 15.8294 17.092 15.634 17.184C15.2798 17.3508 15.1115 17.7749 15.3083 18.1134C15.3812 18.2387 15.4564 18.3626 15.5339 18.4848C15.7631 18.8462 16.2124 18.994 16.6147 18.8482C17.7678 18.4302 18.938 17.8475 20.1351 17.0018C20.3656 16.839 20.5105 16.5805 20.53 16.2989C20.7835 12.6266 19.8316 9.41198 17.9713 6.54212Z"/>
</mask>
<path d="M20.1351 17.0018L19.2695 15.7768L20.1351 17.0018ZM15.634 17.184L16.2729 18.5412L15.634 17.184ZM15.3083 18.1134L14.0116 18.8674L15.3083 18.1134ZM15.9922 16.484L15.3677 15.1202L15.9922 16.484ZM7.14816 16.4832L7.76691 15.1167L7.14816 16.4832ZM6.93175 16.8892L7.6601 15.5779L6.93175 16.8892ZM7.50786 17.1843L8.14654 15.8271L7.50786 17.1843ZM6.52156 18.846L7.03329 17.436L6.52156 18.846ZM3.00648 17.0022L3.87134 15.7767L3.00648 17.0022ZM13.0599 6.05631L12.8968 7.54741L13.0599 6.05631ZM17.5647 6.19393L18.1745 4.82347L17.5647 6.19393ZM17.9713 6.54212L16.7126 7.35802L17.9713 6.54212ZM18.1745 4.82347C17.1424 4.36425 16.0552 4.01008 14.9265 3.77301L14.3099 6.70895C15.2293 6.90207 16.1146 7.19047 16.9549 7.56439L18.1745 4.82347ZM13.2231 4.56521C12.1176 4.44424 11.0163 4.4435 9.92112 4.56396L10.2491 7.54598C11.1239 7.44976 12.0058 7.44991 12.8968 7.54741L13.2231 4.56521ZM8.21059 3.7728C7.08049 4.01011 5.99217 4.36535 4.95996 4.82561L6.18171 7.56557C7.02183 7.19095 7.90742 6.9019 8.82712 6.70876L8.21059 3.7728ZM3.89911 5.73858C1.58849 9.34217 0.874548 12.9051 1.11438 16.4008L4.10735 16.1954C3.90878 13.3013 4.48321 10.3856 6.42455 7.35788L3.89911 5.73858ZM2.14163 18.2278C3.45195 19.1525 4.73993 19.7951 6.00982 20.256L7.03329 17.436C6.00109 17.0614 4.95261 16.5397 3.87134 15.7767L2.14163 18.2278ZM8.87085 19.2856C8.9592 19.1464 9.04503 19.0053 9.12824 18.8623L6.53519 17.3536C6.4715 17.4631 6.40575 17.5712 6.33801 17.6779L8.87085 19.2856ZM8.14654 15.8271C7.98149 15.7494 7.81925 15.6663 7.6601 15.5779L6.20341 18.2005C6.42072 18.3212 6.64276 18.435 6.86919 18.5416L8.14654 15.8271ZM6.52941 17.8496C9.80147 19.3313 13.3698 19.3346 16.6167 17.8478L15.3677 15.1202C12.9186 16.2416 10.2572 16.2444 7.76691 15.1167L6.52941 17.8496ZM15.4805 15.5781C15.3218 15.6663 15.1599 15.7493 14.9952 15.8268L16.2729 18.5412C16.4989 18.4348 16.7208 18.321 16.9383 18.2001L15.4805 15.5781ZM14.0116 18.8674C14.0941 19.0092 14.1793 19.1495 14.2672 19.2881L16.8006 17.6814C16.7335 17.5756 16.6683 17.4682 16.605 17.3594L14.0116 18.8674ZM17.1259 20.2584C18.398 19.7973 19.6884 19.154 21.0006 18.2269L19.2695 15.7768C18.1876 16.5411 17.1377 17.0631 16.1036 17.4379L17.1259 20.2584ZM22.0264 16.4022C22.3039 12.3826 21.2539 8.84848 19.23 5.72622L16.7126 7.35802C18.4093 9.97549 19.2631 12.8705 19.0335 16.1956L22.0264 16.4022ZM21.0006 18.2269C21.6006 17.803 21.976 17.132 22.0264 16.4022L19.0335 16.1956C19.045 16.029 19.1306 15.8749 19.2695 15.7768L21.0006 18.2269ZM14.2672 19.2881C14.8821 20.2578 16.0775 20.6384 17.1259 20.2584L16.1036 17.4379C16.3472 17.3497 16.6441 17.4346 16.8006 17.6814L14.2672 19.2881ZM14.9952 15.8268C13.9761 16.3066 13.3029 17.6486 14.0116 18.8674L16.605 17.3594C16.7499 17.6085 16.7509 17.8869 16.6736 18.0986C16.6002 18.2996 16.4548 18.4555 16.2729 18.5412L14.9952 15.8268ZM15.2925 17.6814C14.6535 17.1651 14.6214 16.0557 15.4805 15.5781L16.9383 18.2001C18.0778 17.5665 18.0665 16.066 17.178 15.348L15.2925 17.6814ZM16.6167 17.8478C16.177 18.0491 15.6647 17.9822 15.2925 17.6814L17.178 15.348C16.6688 14.9365 15.9676 14.8455 15.3677 15.1202L16.6167 17.8478ZM7.85208 17.6789C7.47946 17.9814 6.96746 18.048 6.52941 17.8496L7.76691 15.1167C7.16901 14.846 6.47005 14.9367 5.9612 15.3498L7.85208 17.6789ZM7.6601 15.5779C8.53199 16.0621 8.47668 17.1718 7.85208 17.6789L5.9612 15.3498C5.08779 16.0589 5.05135 17.5606 6.20341 18.2005L7.6601 15.5779ZM9.12824 18.8623C9.83654 17.6449 9.16313 16.3055 8.14654 15.8271L6.86919 18.5416C6.68638 18.4556 6.54011 18.2989 6.46628 18.0967C6.38847 17.8837 6.38957 17.6039 6.53519 17.3536L9.12824 18.8623ZM6.00982 20.256C7.06039 20.6373 8.25602 20.2543 8.87085 19.2856L6.33801 17.6779C6.4933 17.4333 6.78879 17.3472 7.03329 17.436L6.00982 20.256ZM1.11438 16.4008C1.16453 17.1317 1.54042 17.8036 2.14163 18.2278L3.87134 15.7767C4.01025 15.8747 4.09593 16.029 4.10735 16.1954L1.11438 16.4008ZM4.95996 4.82561C4.52071 5.02148 4.15371 5.3415 3.89911 5.73858L6.42455 7.35788C6.36823 7.44572 6.28545 7.51931 6.18171 7.56557L4.95996 4.82561ZM10.6183 4.94148C10.1699 4.02916 9.16983 3.57136 8.21059 3.7728L8.82712 6.70876C8.48032 6.78159 8.0984 6.61561 7.92601 6.2649L10.6183 4.94148ZM9.92112 4.56396C10.2294 4.53005 10.497 4.69463 10.6183 4.94148L7.92601 6.2649C8.34632 7.11998 9.26717 7.65398 10.2491 7.54598L9.92112 4.56396ZM12.5163 4.95148C12.6388 4.69842 12.9114 4.5311 13.2231 4.56521L12.8968 7.54741C13.8788 7.65486 14.8003 7.11857 15.2166 6.25856L12.5163 4.95148ZM14.9265 3.77301C13.9653 3.57113 12.9615 4.03176 12.5163 4.95148L15.2166 6.25856C15.0442 6.61463 14.6582 6.78211 14.3099 6.70895L14.9265 3.77301ZM16.9549 7.56439C16.8529 7.51901 16.7697 7.4462 16.7126 7.35802L19.23 5.72622C18.9746 5.33233 18.6094 5.01696 18.1745 4.82347L16.9549 7.56439Z" fill="#0A0B0D" mask="url(#path-1-inside-1_4141_83349)"/>
<path d="M10.6434 12.429C10.6434 13.4462 10.0014 14.0718 9.42913 14.0718C8.85685 14.0718 8.21484 13.4462 8.21484 12.429C8.21484 11.4118 8.85685 10.7861 9.42913 10.7861C10.0014 10.7861 10.6434 11.4118 10.6434 12.429Z" stroke="#0A0B0D"/>
<path d="M15.784 12.429C15.784 13.4462 15.142 14.0718 14.5698 14.0718C13.9975 14.0718 13.3555 13.4462 13.3555 12.429C13.3555 11.4118 13.9975 10.7861 14.5698 10.7861C15.142 10.7861 15.784 11.4118 15.784 12.429Z" stroke="#0A0B0D"/>
</svg>
