<svg width="24" height="24" viewBox="0 0 24 24" fill="none" xmlns="http://www.w3.org/2000/svg">
<path d="M14.2825 14.9509V16.4576H17.8157C20.1812 16.4576 21.6277 15.0564 21.6277 13.1429C21.6277 11.5458 20.7161 10.2576 19.2169 9.66244C19.2245 6.25731 16.7686 3.80139 13.612 3.80139C11.6081 3.80139 10.1014 4.83348 9.15974 6.19704C7.35924 5.75256 5.23479 7.11612 5.15946 9.24057C3.43429 9.53437 2.37207 10.9657 2.37207 12.7888C2.37207 14.8153 3.91643 16.4576 6.42508 16.4576H9.68708V14.9509H6.42508C4.78278 14.9509 3.89383 13.9716 3.89383 12.7587C3.89383 11.3499 4.82045 10.3631 6.35728 10.3631C6.47028 10.3631 6.51549 10.3028 6.50795 10.1973C6.46275 7.95234 8.06738 7.22913 9.68708 7.70374C9.78502 7.72634 9.84528 7.71127 9.89049 7.6284C10.6137 6.31004 11.7362 5.30055 13.6045 5.30055C15.97 5.30055 17.6575 7.17639 17.7705 9.36864C17.7931 9.76791 17.763 10.2124 17.7328 10.574C17.7178 10.6795 17.763 10.7397 17.8609 10.7548C19.2395 11.0185 20.1059 11.817 20.1059 13.0751C20.1059 14.175 19.3375 14.9509 17.7856 14.9509H14.2825ZM11.9848 21.0681C12.1731 21.0681 12.3313 21.0003 12.5197 20.8271L15.0509 18.4465C15.1865 18.3259 15.2543 18.1828 15.2543 18.002C15.2543 17.6479 14.9681 17.3918 14.6215 17.3918C14.4482 17.3918 14.275 17.4671 14.1469 17.6027L13.0997 18.6574L12.6176 19.2149L12.6929 18.0999V11.6362C12.6929 11.2671 12.3765 10.9431 11.9848 10.9431C11.6006 10.9431 11.2766 11.2671 11.2766 11.6362V18.0999L11.3595 19.2149L10.8698 18.6574L9.82268 17.6027C9.69461 17.4671 9.52135 17.3918 9.34807 17.3918C9.00153 17.3918 8.7228 17.6479 8.7228 18.002C8.7228 18.1828 8.78306 18.3259 8.91867 18.4465L11.4499 20.8271C11.6383 21.0003 11.804 21.0681 11.9848 21.0681Z" fill="#0151FC"/>
</svg>
