<svg width="35" height="48" viewBox="0 0 35 48" fill="none" xmlns="http://www.w3.org/2000/svg">
<path d="M15.4062 30.3014L19.6898 32.7969L10.9913 48L8.49468 42.3813L15.4062 30.3014Z" fill="url(#paint0_linear_2036_22957)"/>
<path d="M15.4062 30.3014L11.1227 27.8058L2.42429 43.0088L8.49468 42.3813L15.4062 30.3014Z" fill="url(#paint1_linear_2036_22957)"/>
<path d="M21.5176 30.3014L17.2341 32.7969L25.9325 48L28.4291 42.3813L21.5176 30.3014Z" fill="url(#paint2_linear_2036_22957)"/>
<path d="M21.5176 30.3014L25.8011 27.8058L34.4995 43.0088L28.4291 42.3813L21.5176 30.3014Z" fill="url(#paint3_linear_2036_22957)"/>
<path d="M18.3313 35.2147C26.7564 35.2147 33.5786 28.324 33.5786 19.8335C33.5786 11.3429 26.7564 4.45221 18.3313 4.45221C9.90618 4.45221 3.08398 11.3429 3.08398 19.8335C3.08398 28.324 9.90618 35.2147 18.3313 35.2147Z" fill="url(#paint4_linear_2036_22957)" stroke="#765C00"/>
<ellipse cx="18.3319" cy="19.8335" rx="11.5116" ry="11.6162" fill="#A88300"/>
<mask id="mask0_2036_22957" style="mask-type:alpha" maskUnits="userSpaceOnUse" x="7" y="9" width="24" height="24">
<ellipse cx="18.9446" cy="21.0736" rx="11.5384" ry="11.6432" fill="#C28B37"/>
</mask>
<g mask="url(#mask0_2036_22957)">
<ellipse cx="18.3294" cy="19.8335" rx="11.5384" ry="11.6432" fill="#C09525"/>
</g>
<path d="M18.3928 11.7335L20.8818 16.7567L25.8598 17.3846L22.4415 21.2525L23.3708 26.8032L18.3928 24.2915L13.4148 26.8032L14.3523 21.2525L10.9258 17.3846L15.9038 16.7567L18.3928 11.7335Z" fill="url(#paint5_linear_2036_22957)"/>
<path d="M4.0709 10.8123L5.69378 7.20819L4.0709 3.60407L7.64258 5.24169L11.2143 3.60407L9.59138 7.20819L11.2143 10.8123L7.64258 9.17469L4.0709 10.8123Z" fill="url(#paint6_linear_2036_22957)"/>
<defs>
<linearGradient id="paint0_linear_2036_22957" x1="6.7078" y1="45.5044" x2="14.6411" y2="48.0364" gradientUnits="userSpaceOnUse">
<stop offset="0.411458" stop-color="#9D3EF2"/>
<stop offset="1" stop-color="#3036F4"/>
</linearGradient>
<linearGradient id="paint1_linear_2036_22957" x1="6.7078" y1="45.5044" x2="0.488663" y2="39.9261" gradientUnits="userSpaceOnUse">
<stop offset="0.411458" stop-color="#9D3EF2"/>
<stop offset="1" stop-color="#3036F4"/>
</linearGradient>
<linearGradient id="paint2_linear_2036_22957" x1="30.216" y1="45.5044" x2="22.2827" y2="48.0364" gradientUnits="userSpaceOnUse">
<stop offset="0.411458" stop-color="#9D3EF2"/>
<stop offset="1" stop-color="#3036F4"/>
</linearGradient>
<linearGradient id="paint3_linear_2036_22957" x1="30.216" y1="45.5044" x2="36.4352" y2="39.9261" gradientUnits="userSpaceOnUse">
<stop offset="0.411458" stop-color="#9D3EF2"/>
<stop offset="1" stop-color="#3036F4"/>
</linearGradient>
<linearGradient id="paint4_linear_2036_22957" x1="18.3313" y1="4.95221" x2="18.3313" y2="34.7147" gradientUnits="userSpaceOnUse">
<stop stop-color="#FFC600"/>
<stop offset="1" stop-color="#FFDE69"/>
</linearGradient>
<linearGradient id="paint5_linear_2036_22957" x1="18.3928" y1="11.7335" x2="18.3928" y2="26.8032" gradientUnits="userSpaceOnUse">
<stop stop-color="#FFFCDD"/>
<stop offset="1" stop-color="#FFE896"/>
</linearGradient>
<linearGradient id="paint6_linear_2036_22957" x1="0.499212" y1="7.20819" x2="14.2325" y2="9.0892" gradientUnits="userSpaceOnUse">
<stop offset="0.411458" stop-color="#9D3EF2"/>
<stop offset="1" stop-color="#3036F4"/>
</linearGradient>
</defs>
</svg>
