<svg width="20" height="20" viewBox="0 0 20 20" fill="none" xmlns="http://www.w3.org/2000/svg">
<path d="M9.99984 17.5C8.94729 16.6022 7.97167 15.6179 7.08317 14.5575C5.74984 12.965 4.1665 10.5933 4.1665 8.33333C4.16593 7.17913 4.50776 6.0507 5.14875 5.09085C5.78974 4.131 6.70106 3.38288 7.76739 2.94116C8.83373 2.49944 10.0071 2.38399 11.1391 2.60941C12.2711 2.83482 13.3107 3.39098 14.1265 4.2075C14.6696 4.74821 15.1001 5.39128 15.3931 6.09947C15.686 6.80767 15.8356 7.56694 15.8332 8.33333C15.8332 10.5933 14.2498 12.965 12.9165 14.5575C12.028 15.6179 11.0524 16.6022 9.99984 17.5ZM9.99984 5.83333C9.3368 5.83333 8.70091 6.09672 8.23207 6.56556C7.76323 7.0344 7.49984 7.67029 7.49984 8.33333C7.49984 8.99637 7.76323 9.63226 8.23207 10.1011C8.70091 10.5699 9.3368 10.8333 9.99984 10.8333C10.6629 10.8333 11.2988 10.5699 11.7676 10.1011C12.2364 9.63226 12.4998 8.99637 12.4998 8.33333C12.4998 7.67029 12.2364 7.0344 11.7676 6.56556C11.2988 6.09672 10.6629 5.83333 9.99984 5.83333Z" fill="#89909E"/>
</svg>
