<svg width="32" height="32" viewBox="0 0 32 32" fill="none" xmlns="http://www.w3.org/2000/svg">
<path d="M7.40186 25.0067H24.5882C26.7679 25.0067 27.903 23.8817 27.903 21.7322V9.50783C27.903 7.35828 26.7679 6.23328 24.5882 6.23328H7.40186C5.23221 6.23328 4.09717 7.34823 4.09717 9.50783V21.7322C4.09717 23.8817 5.23221 25.0067 7.40186 25.0067ZM7.53244 23.0078C6.60833 23.0078 6.09605 22.5257 6.09605 21.5514V9.68863C6.09605 8.7143 6.60833 8.23216 7.53244 8.23216H24.4577C25.3818 8.23216 25.894 8.7143 25.894 9.68863V21.5514C25.894 22.5257 25.3818 23.0078 24.4577 23.0078H7.53244ZM19.8974 16.1674C20.3293 15.9163 20.3193 15.3136 19.8974 15.0625L14.1217 11.6574C13.6798 11.3962 13.0972 11.6172 13.0972 12.1094V19.1206C13.0972 19.6027 13.6496 19.8438 14.1217 19.5625L19.8974 16.1674Z" fill="white"/>
</svg>
