<svg width="14" height="14" viewBox="0 0 14 14" fill="none" xmlns="http://www.w3.org/2000/svg">
<path d="M6.99984 2.33337C7.15455 2.33337 7.30292 2.39483 7.41232 2.50423L10.9123 6.00423C11.1401 6.23204 11.1401 6.60138 10.9123 6.82919C10.6845 7.05699 10.3152 7.05699 10.0874 6.82919L7.58317 4.325L7.58317 11.0834C7.58317 11.4055 7.322 11.6667 6.99984 11.6667C6.67767 11.6667 6.4165 11.4055 6.4165 11.0834L6.41651 4.325L3.91232 6.82919C3.68451 7.05699 3.31516 7.05699 3.08736 6.82919C2.85955 6.60138 2.85955 6.23203 3.08736 6.00423L6.58736 2.50423C6.69676 2.39483 6.84513 2.33337 6.99984 2.33337Z" fill="#129961"/>
</svg>
