<svg width="32" height="32" viewBox="0 0 32 32" fill="none" xmlns="http://www.w3.org/2000/svg">
<path d="M16 32C24.8366 32 32 24.8366 32 16C32 7.16344 24.8366 0 16 0C7.16344 0 0 7.16344 0 16C0 24.8366 7.16344 32 16 32Z" fill="#F0B90B"/>
<path d="M18.4948 8.7454L15.9351 6.18567L9.55452 12.5662L12.1142 15.126L18.4948 8.7454Z" fill="white"/>
<path d="M11.3457 15.8944L8.78601 13.3347L6.03827 16.0824L8.598 18.6422L11.3457 15.8944Z" fill="white"/>
<path d="M22.0576 12.3083L19.4979 9.74854L9.60109 19.6453L12.1608 22.2051L22.0576 12.3083Z" fill="white"/>
<path d="M25.6438 15.8944L23.0841 13.3347L13.1873 23.2315L15.747 25.7912L25.6438 15.8944Z" fill="white"/>
</svg>
