<svg width="80" height="81" viewBox="0 0 80 81" fill="none" xmlns="http://www.w3.org/2000/svg">
<circle cx="40" cy="40.8906" r="40" fill="#EAFCFB"/>
<path d="M51.8519 54.2248V51.2619C51.8519 49.6902 51.2276 48.1829 50.1162 47.0716C49.0049 45.9603 47.4976 45.3359 45.926 45.3359H34.0741C32.5025 45.3359 30.9952 45.9603 29.8839 47.0716C28.7725 48.1829 28.1482 49.6902 28.1482 51.2619V54.2248" stroke="#31B6B5" stroke-width="2.5" stroke-linecap="round" stroke-linejoin="round"/>
<path d="M40 39.4085C43.2728 39.4085 45.9259 36.7554 45.9259 33.4826C45.9259 30.2098 43.2728 27.5566 40 27.5566C36.7272 27.5566 34.0741 30.2098 34.0741 33.4826C34.0741 36.7554 36.7272 39.4085 40 39.4085Z" stroke="#31B6B5" stroke-width="2.5" stroke-linecap="round" stroke-linejoin="round"/>
</svg>
