<svg width="18" height="12" viewBox="0 0 18 12" fill="none" xmlns="http://www.w3.org/2000/svg">
<path d="M8.99987 0.870361C9.35143 0.880405 9.67286 1.01099 9.93402 1.29224L17.5679 9.10697C17.7889 9.32795 17.9095 9.6092 17.9095 9.94067C17.9095 10.6036 17.3871 11.136 16.7242 11.136C16.4028 11.136 16.0914 11.0054 15.8604 10.7744L9.00991 3.73308L2.13938 10.7744C1.90835 10.9954 1.60701 11.136 1.27554 11.136C0.612592 11.136 0.090271 10.6036 0.090271 9.94067C0.090271 9.6092 0.210807 9.32795 0.431789 9.10697L8.07576 1.29224C8.34697 1.01099 8.6483 0.870361 8.99987 0.870361Z" fill="url(#paint0_linear_1044_217)"/>
<defs>
<linearGradient id="paint0_linear_1044_217" x1="0.0902713" y1="0.87036" x2="11.3332" y2="15.6465" gradientUnits="userSpaceOnUse">
<stop offset="0.411458" stop-color="#9D3EF2"/>
<stop offset="1" stop-color="#3036F4"/>
</linearGradient>
</defs>
</svg>
