<svg width="24" height="24" viewBox="0 0 24 24" fill="none" xmlns="http://www.w3.org/2000/svg">
<path d="M20.5725 5.23748C19.7154 5.65668 18.8754 5.82692 18.0011 6.08443C17.0403 5.00221 15.6157 4.94232 14.2468 5.45392C12.878 5.96552 11.9814 7.21628 12.0011 8.65097V9.50649C9.21969 9.57749 6.74254 8.31305 5.14397 6.08443C5.14397 6.08443 1.5594 12.4435 8.57254 15.4951C6.96797 16.5619 5.36769 17.2814 3.42969 17.2061C6.26512 18.7486 9.35512 19.279 12.0303 18.5039C15.0988 17.6142 17.6205 15.3188 18.5883 11.8805C18.8769 10.8348 19.0203 9.75447 19.0143 8.6698C19.0125 8.45677 20.3085 6.29831 20.5725 5.23662V5.23748Z" stroke="#89909E" stroke-width="1.5" stroke-linecap="round" stroke-linejoin="round"/>
</svg>
