<svg width="48" height="48" viewBox="0 0 48 48" fill="none" xmlns="http://www.w3.org/2000/svg">
<circle cx="24" cy="24" r="24" fill="#DBDBDB"/>
<path d="M28.5869 23.7422C30.7139 23.7422 32.4365 21.8701 32.4365 19.5674C32.4365 17.2998 30.7227 15.4893 28.5869 15.4893C26.4775 15.4893 24.7373 17.3262 24.7373 19.585C24.7461 21.8789 26.4688 23.7422 28.5869 23.7422ZM18.4004 23.9443C20.2549 23.9443 21.749 22.3008 21.749 20.2705C21.749 18.293 20.2549 16.6934 18.4004 16.6934C16.5635 16.6934 15.043 18.3193 15.0518 20.2793C15.0518 22.3096 16.5547 23.9443 18.4004 23.9443ZM28.5869 22.2041C27.374 22.2041 26.3457 21.0615 26.3457 19.5762C26.3457 18.1436 27.3652 17.0273 28.5869 17.0273C29.8174 17.0273 30.8281 18.126 30.8281 19.5674C30.8281 21.0439 29.8086 22.2041 28.5869 22.2041ZM18.4004 22.4238C17.4072 22.4238 16.5635 21.4746 16.5635 20.2793C16.5635 19.1367 17.3984 18.2051 18.4004 18.2051C19.4199 18.2051 20.2461 19.1191 20.2461 20.2705C20.2461 21.4746 19.4023 22.4238 18.4004 22.4238ZM13.5664 32.0215H20.3955C19.9121 31.7402 19.5869 31.0986 19.6484 30.5186H13.4873C13.3203 30.5186 13.25 30.4395 13.25 30.29C13.25 28.2773 15.6055 26.3613 18.3916 26.3613C19.376 26.3613 20.3604 26.6074 21.1162 27.0293C21.415 26.5986 21.7842 26.2295 22.2676 25.9131C21.1514 25.2275 19.7627 24.8584 18.3916 24.8584C14.6738 24.8584 11.668 27.5127 11.668 30.4307C11.668 31.4854 12.3008 32.0215 13.5664 32.0215ZM23.1113 32.0215H34.0625C35.583 32.0215 36.3213 31.5381 36.3213 30.501C36.3213 28.084 33.2979 24.8672 28.5869 24.8672C23.876 24.8672 20.8525 28.084 20.8525 30.501C20.8525 31.5381 21.5908 32.0215 23.1113 32.0215ZM22.8301 30.4834C22.6279 30.4834 22.5488 30.4131 22.5488 30.2549C22.5488 28.9102 24.7197 26.4053 28.5869 26.4053C32.4541 26.4053 34.625 28.9102 34.625 30.2549C34.625 30.4131 34.5459 30.4834 34.335 30.4834H22.8301Z" fill="#0A0B0D"/>
</svg>
