<svg width="60" height="60" viewBox="0 0 60 60" fill="none" xmlns="http://www.w3.org/2000/svg">
<circle cx="30" cy="30" r="30" fill="#129961"/>
<g clip-path="url(#clip0_3_78)">
<path d="M20 40C20 40.5304 20.2107 41.0391 20.5858 41.4142C20.9609 41.7893 21.4696 42 22 42H38C38.5305 42 39.0392 41.7893 39.4142 41.4142C39.7893 41.0391 40 40.5304 40 40V30C40 29.4696 39.7893 28.9608 39.4142 28.5858C39.0392 28.2107 38.5305 28 38 28H26V24.5C26 23.4391 26.4214 22.4217 27.1716 21.6716C27.9217 20.9214 28.9391 20.5 30 20.5C31.0609 20.5 32.0783 20.9214 32.8284 21.6716C33.5786 22.4217 34 23.4391 34 24.5V24.782C34 25.1135 34.1317 25.4314 34.3661 25.6659C34.6006 25.9003 34.9185 26.032 35.25 26.032C35.5815 26.032 35.8995 25.9003 36.1339 25.6659C36.3683 25.4314 36.5 25.1135 36.5 24.782V24.749V24.751V24.501C36.5 22.7771 35.8152 21.1238 34.5962 19.9048C33.3772 18.6858 31.7239 18.001 30 18.001C28.2761 18.001 26.6228 18.6858 25.4038 19.9048C24.1848 21.1238 23.5 22.7771 23.5 24.501V28.001H22C21.4696 28.001 20.9609 28.2117 20.5858 28.5868C20.2107 28.9618 20 29.4706 20 30.001V40.001V40ZM28 33.5C28.0001 33.1535 28.0902 32.813 28.2614 32.5118C28.4327 32.2106 28.6793 31.9591 28.977 31.7819C29.2747 31.6046 29.6134 31.5078 29.9598 31.5008C30.3062 31.4939 30.6485 31.577 30.9531 31.7421C31.2577 31.9072 31.5142 32.1486 31.6974 32.4427C31.8807 32.7368 31.9844 33.0734 31.9984 33.4196C32.0124 33.7658 31.9362 34.1097 31.7773 34.4176C31.6184 34.7255 31.3823 34.9868 31.092 35.176L31.084 35.181C31.084 35.181 31.279 36.361 31.499 37.751V37.752C31.499 37.9506 31.4201 38.1412 31.2796 38.2816C31.1392 38.4221 30.9487 38.501 30.75 38.501H29.248C29.0494 38.501 28.8589 38.4221 28.7184 38.2816C28.5779 38.1412 28.499 37.9506 28.499 37.752V37.751L28.914 35.181C28.6332 34.9997 28.4023 34.751 28.2423 34.4575C28.0823 34.1641 27.9983 33.8352 27.998 33.501L28 33.5Z" fill="white"/>
</g>
<defs>
<clipPath id="clip0_3_78">
<rect width="20" height="24" fill="white" transform="translate(20 18)"/>
</clipPath>
</defs>
</svg>
