<svg width="32" height="32" viewBox="0 0 32 32" fill="none" xmlns="http://www.w3.org/2000/svg">
<rect width="32" height="32" rx="4" fill="url(#paint0_linear_1118_23083)"/>
<path d="M15.8945 24.4707C16.123 24.4707 16.457 24.2949 16.7295 24.1191C21.6426 20.9551 24.7891 17.2461 24.7891 13.4932C24.7891 10.25 22.5479 8 19.7441 8C17.9951 8 16.6855 8.9668 15.8945 10.4082C15.1211 8.9668 13.8027 8 12.0537 8C9.24121 8 7 10.25 7 13.4932C7 17.2461 10.1553 20.9551 15.0596 24.1191C15.332 24.2949 15.666 24.4707 15.8945 24.4707Z" fill="white"/>
<defs>
<linearGradient id="paint0_linear_1118_23083" x1="5.92321e-07" y1="32" x2="35" y2="5.5" gradientUnits="userSpaceOnUse">
<stop offset="0.411458" stop-color="#9D3EF2"/>
<stop offset="1" stop-color="#3036F4"/>
</linearGradient>
</defs>
</svg>
