<svg width="24" height="24" viewBox="0 0 24 24" fill="none" xmlns="http://www.w3.org/2000/svg">
<path d="M7.28195 3.219C7.21228 3.14915 7.12952 3.09374 7.0384 3.05593C6.94728 3.01812 6.8496 2.99866 6.75095 2.99866C6.6523 2.99866 6.55461 3.01812 6.4635 3.05593C6.37238 3.09374 6.28962 3.14915 6.21995 3.219L1.71995 7.719C1.57912 7.85983 1.5 8.05083 1.5 8.25C1.5 8.44916 1.57912 8.64017 1.71995 8.781C1.86078 8.92183 2.05178 9.00095 2.25095 9.00095C2.45011 9.00095 2.64112 8.92183 2.78195 8.781L6.00095 5.5605V20.25C6.00095 20.4489 6.07997 20.6397 6.22062 20.7803C6.36127 20.921 6.55203 21 6.75095 21C6.94986 21 7.14062 20.921 7.28128 20.7803C7.42193 20.6397 7.50095 20.4489 7.50095 20.25V5.5605L10.7199 8.781C10.8608 8.92183 11.0518 9.00095 11.2509 9.00095C11.4501 9.00095 11.6411 8.92183 11.7819 8.781C11.9228 8.64017 12.0019 8.44916 12.0019 8.25C12.0019 8.05083 11.9228 7.85983 11.7819 7.719L7.28195 3.219ZM16.7289 20.79C16.8689 20.9256 17.0561 21.0015 17.2509 21.0015C17.4458 21.0015 17.633 20.9256 17.7729 20.79L22.2729 16.44C22.4162 16.3016 22.4985 16.1119 22.5019 15.9127C22.5053 15.7136 22.4294 15.5212 22.2909 15.378C22.1525 15.2348 21.9628 15.1524 21.7637 15.149C21.5645 15.1457 21.3722 15.2216 21.2289 15.36L18.0009 18.4815V3.7515C18.0009 3.55259 17.9219 3.36182 17.7813 3.22117C17.6406 3.08052 17.4499 3.0015 17.2509 3.0015C17.052 3.0015 16.8613 3.08052 16.7206 3.22117C16.58 3.36182 16.5009 3.55259 16.5009 3.7515V18.4815L13.2729 15.3615C13.2024 15.2921 13.1188 15.2373 13.027 15.2003C12.9352 15.1633 12.837 15.1448 12.738 15.146C12.639 15.1472 12.5413 15.1679 12.4504 15.207C12.3594 15.2461 12.2772 15.3029 12.2083 15.3739C12.1394 15.445 12.0852 15.529 12.049 15.6211C12.0127 15.7132 11.995 15.8116 11.9969 15.9105C11.9988 16.0095 12.0203 16.1071 12.0602 16.1977C12.1 16.2883 12.1573 16.3702 12.2289 16.4385L16.7289 20.7885V20.79Z" fill="currentColor"/>
</svg>
