<svg width="28" height="28" viewBox="0 0 28 24" fill="none" xmlns="http://www.w3.org/2000/svg">
<path d="M21.1108 11.111C20.8751 11.111 20.649 11.2046 20.4823 11.3713C20.3156 11.538 20.222 11.7641 20.222 11.9998V17.3331C20.222 17.5688 20.1283 17.7949 19.9616 17.9616C19.7949 18.1283 19.5688 18.222 19.3331 18.222H8.66662C8.43087 18.222 8.20478 18.1283 8.03809 17.9616C7.87139 17.7949 7.77774 17.5688 7.77774 17.3331V6.66662C7.77774 6.43087 7.87139 6.20478 8.03809 6.03809C8.20478 5.87139 8.43087 5.77774 8.66662 5.77774H13.9998C14.2356 5.77774 14.4617 5.6841 14.6284 5.5174C14.7951 5.3507 14.8887 5.12462 14.8887 4.88887C14.8887 4.65313 14.7951 4.42704 14.6284 4.26034C14.4617 4.09365 14.2356 4 13.9998 4H8.66662C7.95939 4 7.28112 4.28095 6.78103 4.78103C6.28095 5.28112 6 5.95939 6 6.66662V17.3331C6 18.0403 6.28095 18.7186 6.78103 19.2187C7.28112 19.7187 7.95939 19.9997 8.66662 19.9997H19.3331C20.0403 19.9997 20.7186 19.7187 21.2187 19.2187C21.7187 18.7186 21.9997 18.0403 21.9997 17.3331V11.9998C21.9997 11.7641 21.906 11.538 21.7394 11.3713C21.5727 11.2046 21.3466 11.111 21.1108 11.111Z" fill="#5B616E"/>
<path d="M17.555 5.77774H18.9594L13.3684 11.3599C13.2851 11.4425 13.219 11.5408 13.1738 11.6491C13.1287 11.7574 13.1055 11.8736 13.1055 11.991C13.1055 12.1083 13.1287 12.2245 13.1738 12.3328C13.219 12.4411 13.2851 12.5394 13.3684 12.6221C13.451 12.7054 13.5493 12.7715 13.6577 12.8166C13.766 12.8618 13.8822 12.885 13.9995 12.885C14.1168 12.885 14.233 12.8618 14.3413 12.8166C14.4497 12.7715 14.548 12.7054 14.6306 12.6221L20.2216 7.03994V8.44436C20.2216 8.6801 20.3152 8.90619 20.4819 9.07289C20.6486 9.23958 20.8747 9.33323 21.1105 9.33323C21.3462 9.33323 21.5723 9.23958 21.739 9.07289C21.9057 8.90619 21.9993 8.6801 21.9993 8.44436V4.88887C21.9993 4.65313 21.9057 4.42704 21.739 4.26034C21.5723 4.09365 21.3462 4 21.1105 4H17.555C17.3192 4 17.0932 4.09365 16.9265 4.26034C16.7598 4.42704 16.6661 4.65313 16.6661 4.88887C16.6661 5.12462 16.7598 5.3507 16.9265 5.5174C17.0932 5.6841 17.3192 5.77774 17.555 5.77774V5.77774Z" fill="#5B616E"/>
</svg>
