<svg width="24" height="24" viewBox="0 0 24 24" fill="none" xmlns="http://www.w3.org/2000/svg">
<path d="M15.8472 12.0001C15.8396 11.7364 15.7417 11.4953 15.5308 11.2994L9.66971 5.57399C9.50398 5.40826 9.29304 5.31785 9.04443 5.31785C8.54722 5.31785 8.14795 5.7096 8.14795 6.20681C8.14795 6.44788 8.24588 6.68141 8.41915 6.85468L13.7001 11.9925L8.41915 17.1454C8.25342 17.3187 8.14795 17.5447 8.14795 17.7933C8.14795 18.2905 8.54722 18.6823 9.04443 18.6823C9.29304 18.6823 9.50398 18.5918 9.66971 18.4261L15.5308 12.6931C15.7417 12.4897 15.8472 12.2637 15.8472 12.0001Z" fill="white"/>
</svg>
