<svg width="24" height="24" viewBox="0 0 24 24" fill="none" xmlns="http://www.w3.org/2000/svg">
<path d="M12.0008 19.4858C16.2573 19.4858 19.7829 15.9676 19.7829 11.7037C19.7829 7.44727 16.2573 3.9216 11.9933 3.9216C7.73689 3.9216 4.21875 7.44727 4.21875 11.7037C4.21875 15.9676 7.74442 19.4858 12.0008 19.4858ZM9.92913 11.1236L9.16071 9.99358C8.73131 9.35324 8.03823 9.11217 7.33761 9.45117L6.75 9.74498C6.26786 9.97852 6.07199 10.3477 6.07199 11.0257C6.07199 11.5605 5.91378 11.8167 5.59738 11.8167C5.53711 11.8167 5.47684 11.8092 5.42411 11.7941C5.42411 11.764 5.42411 11.7338 5.42411 11.7037C5.42411 8.11021 8.39983 5.12695 11.9933 5.12695C12.5131 5.12695 13.0179 5.19476 13.5075 5.30776C13.2665 5.7447 12.8597 5.9707 12.8597 6.58845C12.8597 7.71094 14.3513 7.62807 14.3513 8.87863C14.3513 9.63198 13.7561 9.98605 12.4453 9.98605C11.6844 9.98605 11.1646 10.3853 11.1646 10.9805C11.1646 11.3797 11.368 11.6509 11.8125 11.8845C12.046 11.99 12.1364 12.1105 12.1364 12.2762C12.1364 12.4721 11.9933 12.5776 11.7598 12.5776C11.2626 12.5776 10.6147 12.1406 9.92913 11.1236ZM12.0008 18.2804C8.76144 18.2804 6.02679 15.8622 5.51451 12.7584C5.55218 12.7584 5.58984 12.7584 5.63504 12.7584C6.43359 12.7584 6.976 12.0728 6.976 11.0257C6.976 10.7017 7.02874 10.5963 7.25474 10.4908L7.73689 10.2648C7.99302 10.1367 8.22656 10.2347 8.37723 10.4607L9.22852 11.7112C10.0798 12.9542 10.9461 13.459 11.7372 13.459C12.5056 13.459 12.9727 12.9919 12.9727 12.2461C12.9727 11.8167 12.7542 11.44 12.4001 11.214C12.2796 11.1311 12.2118 11.0935 12.2118 11.0181C12.2042 10.9353 12.2796 10.8976 12.4076 10.8976C14.2835 10.8976 15.2628 10.2121 15.2628 8.87863C15.2628 7.11579 13.7637 7.01786 13.7637 6.56585C13.7637 6.26451 14.1629 6.12891 14.3965 5.59403C16.8298 6.56585 18.5776 8.95396 18.5776 11.7037C18.5776 12.4043 18.4646 13.0898 18.2536 13.7227C17.8619 13.4063 17.5455 13.2706 17.1839 13.2706C16.8901 13.2706 16.7319 13.346 16.5586 13.3987C16.4155 13.4515 16.3477 13.3912 16.3251 13.2556C16.2422 12.6906 15.8956 12.4796 15.3382 12.4796H14.9464C14.4944 12.4796 14.1253 12.7132 13.8465 13.1426L13.726 13.3309C13.5301 13.6323 13.3644 13.8733 13.2062 14.0315C13.048 14.1671 12.9199 14.2349 12.611 14.3329L12.2645 14.4383C11.7447 14.6041 11.579 15.0636 11.7221 15.5759L12.0912 16.8491C12.2193 17.3161 12.498 17.5572 12.9501 17.5572C13.1459 17.5572 13.387 17.4894 13.6431 17.3689L13.7561 17.3086C13.9219 17.2257 14.0499 17.1956 14.1855 17.1956C14.4718 17.1956 14.6752 17.3387 14.8862 17.5949C14.0123 18.0318 13.0329 18.2804 12.0008 18.2804ZM14.1705 16.3217C13.9369 16.3217 13.6657 16.4046 13.3719 16.5251L13.1459 16.608C13.0254 16.6532 12.9425 16.6456 12.9124 16.5326L12.5884 15.4478C12.5583 15.3348 12.6035 15.267 12.7165 15.2294C13.2891 15.0636 13.5979 14.8451 13.7938 14.6568C14.0951 14.363 14.3438 13.9487 14.5622 13.6323C14.6978 13.4213 14.8033 13.346 14.9389 13.346H15.3306C15.4361 13.346 15.4587 13.3836 15.4813 13.4665C15.5868 13.9939 15.873 14.3027 16.3929 14.3027C16.7695 14.3027 16.9503 14.1445 17.1839 14.1445C17.3722 14.1445 17.5831 14.2651 17.9071 14.5739C17.3948 15.6136 16.6038 16.51 15.647 17.1579C15.308 16.7285 14.8786 16.3217 14.1705 16.3217Z" fill="#89909E"/>
</svg>
