<svg width="24" height="24" viewBox="0 0 24 24" fill="none" xmlns="http://www.w3.org/2000/svg">
<path d="M5.92062 20.404H8.07018C8.27107 20.404 8.40165 20.4442 8.54227 20.5949L10.0691 22.1116C11.3849 23.4275 12.6104 23.4174 13.9162 22.1116L15.4429 20.5949C15.5836 20.4442 15.7242 20.404 15.915 20.404H18.0646C19.9128 20.404 20.7867 19.5301 20.7867 17.6719V15.5223C20.7867 15.3315 20.847 15.1909 20.9876 15.0502L22.5043 13.5234C23.8202 12.2176 23.8101 10.9922 22.5043 9.68639L20.9876 8.14956C20.847 8.00893 20.7867 7.87835 20.7867 7.6875V5.53795C20.7867 3.68973 19.9229 2.8058 18.0646 2.8058H15.915C15.7242 2.8058 15.5836 2.75558 15.4429 2.61496L13.9162 1.09821C12.6104 -0.217634 11.3849 -0.217634 10.0691 1.09821L8.54227 2.61496C8.41169 2.75558 8.27107 2.8058 8.07018 2.8058H5.92062C4.07241 2.8058 3.19852 3.66964 3.19852 5.53795V7.6875C3.19852 7.87835 3.1483 8.00893 3.00768 8.14956L1.49094 9.68639C0.175087 10.9922 0.185132 12.2176 1.49094 13.5234L3.00768 15.0502C3.1483 15.1909 3.19852 15.3315 3.19852 15.5223V17.6719C3.19852 19.5201 4.07241 20.404 5.92062 20.404Z" fill="url(#paint0_linear_2036_23384)"/>
<path d="M10.9936 16.5088C11.3652 16.5088 11.6766 16.328 11.8876 15.9965L16.4177 8.94521C16.5583 8.73427 16.6688 8.4932 16.6688 8.26217C16.6688 7.75994 16.2268 7.42847 15.7447 7.42847C15.4434 7.42847 15.1722 7.59923 14.9612 7.94074L10.9634 14.3191L9.09515 11.9586C8.85407 11.6472 8.613 11.5367 8.32171 11.5367C7.81948 11.5367 7.42773 11.9385 7.42773 12.4407C7.42773 12.6818 7.51814 12.9028 7.6889 13.1238L10.0594 16.0066C10.3306 16.3481 10.6219 16.5088 10.9936 16.5088Z" fill="white"/>
<defs>
<linearGradient id="paint0_linear_2036_23384" x1="0.507813" y1="23.0947" x2="25.6448" y2="4.06557" gradientUnits="userSpaceOnUse">
<stop offset="0.411458" stop-color="#9D3EF2"/>
<stop offset="1" stop-color="#3036F4"/>
</linearGradient>
</defs>
</svg>
