<svg width="32" height="32" viewBox="0 0 32 32" fill="none" xmlns="http://www.w3.org/2000/svg">
<path d="M15.9944 28C22.3197 28 27.5 22.8197 27.5 16.4944C27.5 10.1803 22.3308 5 16.0056 5C15.3163 5 14.9273 5.41131 14.9273 6.0783V10.1692C14.9273 10.7361 15.3275 11.1808 15.8944 11.1808C16.4613 11.1808 16.8615 10.7361 16.8615 10.1692V7.31223C21.5638 7.74577 25.1878 11.681 25.1878 16.4944C25.1878 21.5858 21.108 25.6989 15.9944 25.6989C10.892 25.6989 6.79 21.5858 6.80111 16.4944C6.81223 14.3045 7.57927 12.2702 8.86878 10.7028C9.2912 10.1247 9.3579 9.51329 8.87989 9.03528C8.40189 8.55727 7.63485 8.60174 7.13461 9.25761C5.50048 11.2363 4.5 13.7598 4.5 16.4944C4.5 22.8197 9.68028 28 15.9944 28ZM17.7842 18.2064C18.6957 17.2392 18.5068 15.9275 17.4174 15.1827L11.7702 11.303C11.1032 10.8584 10.4584 11.5143 10.9031 12.1812L14.7827 17.8173C15.5275 18.9178 16.8393 19.1179 17.7842 18.2064Z" fill="#89909E"/>
</svg>
