<svg width="15" height="14" viewBox="0 0 15 14" fill="none" xmlns="http://www.w3.org/2000/svg">
    <path d="M7.49998 1.31166C5.99158 1.31166 4.54496 1.91087 3.47836 2.97747C2.41176 4.04408 1.81255 5.4907 1.81255 6.9991C1.81255 7.17315 1.74341 7.34007 1.62034 7.46313C1.49727 7.5862 1.33035 7.65534 1.1563 7.65534C0.982257 7.65534 0.815339 7.5862 0.69227 7.46313C0.569201 7.34007 0.500061 7.17315 0.500061 6.9991C0.500202 5.79975 0.808502 4.62055 1.39539 3.5746C1.98228 2.52865 2.82807 1.65104 3.85164 1.02594C4.87521 0.400837 6.04223 0.0492171 7.24076 0.00480227C8.43929 -0.0396126 9.62913 0.224667 10.6962 0.772294C11.7632 1.31992 12.6716 2.13252 13.3343 3.13217C13.997 4.13181 14.3917 5.28496 14.4806 6.48101C14.5696 7.67707 14.3497 8.8759 13.8421 9.96254C13.3344 11.0492 12.5561 11.9872 11.5818 12.6865H12.5312C12.7052 12.6865 12.8721 12.7557 12.9952 12.8787C13.1183 13.0018 13.1874 13.1687 13.1874 13.3428C13.1874 13.5168 13.1183 13.6837 12.9952 13.8068C12.8721 13.9299 12.7052 13.999 12.5312 13.999H9.90621C9.73216 13.999 9.56524 13.9299 9.44217 13.8068C9.31911 13.6837 9.24996 13.5168 9.24996 13.3428V10.7178C9.24996 10.5438 9.31911 10.3768 9.44217 10.2538C9.56524 10.1307 9.73216 10.0616 9.90621 10.0616C10.0803 10.0616 10.2472 10.1307 10.3702 10.2538C10.4933 10.3768 10.5625 10.5438 10.5625 10.7178V11.7923C11.5993 11.1301 12.3935 10.1495 12.8258 8.99763C13.2581 7.8458 13.3053 6.58483 12.9602 5.40392C12.6151 4.22301 11.8964 3.18583 10.912 2.44799C9.92747 1.71015 8.73028 1.31143 7.49998 1.31166Z" fill="white"/>
    <path d="M9.68745 6.999C9.68745 7.57915 9.45699 8.13555 9.04676 8.54578C8.63652 8.95601 8.08013 9.18648 7.49998 9.18648C6.91982 9.18648 6.36343 8.95601 5.9532 8.54578C5.54297 8.13555 5.3125 7.57915 5.3125 6.999C5.3125 6.41884 5.54297 5.86245 5.9532 5.45222C6.36343 5.04199 6.91982 4.81152 7.49998 4.81152C8.08013 4.81152 8.63652 5.04199 9.04676 5.45222C9.45699 5.86245 9.68745 6.41884 9.68745 6.999ZM8.37497 6.999C8.37497 6.76694 8.28278 6.54438 8.11869 6.38029C7.9546 6.2162 7.73204 6.12401 7.49998 6.12401C7.26791 6.12401 7.04536 6.2162 6.88126 6.38029C6.71717 6.54438 6.62499 6.76694 6.62499 6.999C6.62499 7.23106 6.71717 7.45362 6.88126 7.61771C7.04536 7.7818 7.26791 7.87399 7.49998 7.87399C7.73204 7.87399 7.9546 7.7818 8.11869 7.61771C8.28278 7.45362 8.37497 7.23106 8.37497 6.999Z" fill="white"/>
</svg>
