<svg width="64" height="64" viewBox="0 0 64 64" fill="none" xmlns="http://www.w3.org/2000/svg">
<circle cx="32" cy="32" r="32" fill="#F3F2F1"/>
<path d="M42.1253 32V43.8967C42.1253 43.9965 42.1056 44.0952 42.0675 44.1873C42.0293 44.2795 41.9734 44.3632 41.9029 44.4337C41.8323 44.5042 41.7486 44.5602 41.6565 44.5983C41.5644 44.6365 41.4656 44.6561 41.3659 44.6561H22.6349C22.5351 44.6561 22.4364 44.6365 22.3443 44.5983C22.2521 44.5602 22.1684 44.5042 22.0979 44.4337C22.0274 44.3632 21.9715 44.2795 21.9333 44.1873C21.8951 44.0952 21.8755 43.9965 21.8755 43.8967V32" stroke="#5B616E" stroke-width="1.71" stroke-linecap="round" stroke-linejoin="round"/>
<path d="M43.8971 25.6721H20.1036C19.9022 25.6721 19.7091 25.7521 19.5667 25.8945C19.4242 26.0369 19.3442 26.2301 19.3442 26.4315V31.2408C19.3442 31.4422 19.4242 31.6354 19.5667 31.7778C19.7091 31.9202 19.9022 32.0002 20.1036 32.0002H43.8971C44.0985 32.0002 44.2917 31.9202 44.4341 31.7778C44.5765 31.6354 44.6565 31.4422 44.6565 31.2408V26.4315C44.6565 26.2301 44.5765 26.0369 44.4341 25.8945C44.2917 25.7521 44.0985 25.6721 43.8971 25.6721V25.6721Z" stroke="#5B616E" stroke-width="1.71" stroke-linecap="round" stroke-linejoin="round"/>
<path d="M32.0005 44.6563V25.6721" stroke="#5B616E" stroke-width="1.71" stroke-linecap="round" stroke-linejoin="round"/>
<path d="M32.0004 25.6721H26.3051C25.466 25.6721 24.6612 25.3387 24.0678 24.7453C23.4745 24.152 23.1411 23.3472 23.1411 22.508C23.1411 21.6689 23.4745 20.8641 24.0678 20.2707C24.6612 19.6773 25.466 19.344 26.3051 19.344C30.7348 19.344 32.0004 25.6721 32.0004 25.6721Z" stroke="#5B616E" stroke-width="1.71" stroke-linecap="round" stroke-linejoin="round"/>
<path d="M32.0005 25.6721H37.6957C38.5349 25.6721 39.3397 25.3387 39.933 24.7453C40.5264 24.152 40.8598 23.3472 40.8598 22.508C40.8598 21.6689 40.5264 20.8641 39.933 20.2707C39.3397 19.6773 38.5349 19.344 37.6957 19.344C33.2661 19.344 32.0005 25.6721 32.0005 25.6721Z" stroke="#5B616E" stroke-width="1.71" stroke-linecap="round" stroke-linejoin="round"/>
</svg>
