<svg width="36" height="37" viewBox="0 0 36 37" fill="none" xmlns="http://www.w3.org/2000/svg">
<path d="M11.3213 33.4931C24.9062 33.4931 32.3366 22.238 32.3366 12.4777C32.3366 12.158 32.3366 11.8398 32.315 11.523C33.7606 10.4774 35.0084 9.18283 36 7.6998C34.6521 8.29741 33.2221 8.68914 31.7578 8.86188C33.2997 7.93892 34.4537 6.48706 35.005 4.7766C33.5551 5.63702 31.969 6.24334 30.3149 6.5694C29.2013 5.38527 27.7284 4.60117 26.1243 4.33843C24.5201 4.07569 22.8741 4.34898 21.441 5.11598C20.0078 5.88299 18.8673 7.10096 18.1961 8.58143C17.5249 10.0619 17.3603 11.7223 17.7278 13.3057C14.7913 13.1584 11.9186 12.3953 9.29618 11.0658C6.67373 9.73635 4.36015 7.87029 2.5056 5.58876C1.56109 7.21476 1.27181 9.13961 1.69665 10.9714C2.12149 12.8032 3.22851 14.4042 4.79232 15.4484C3.61685 15.414 2.46697 15.0969 1.44 14.524V14.6176C1.44047 16.3228 2.03078 17.9755 3.11081 19.2951C4.19084 20.6148 5.69409 21.5202 7.3656 21.8579C6.27822 22.1545 5.13731 22.1978 4.03056 21.9846C4.50272 23.4521 5.42164 24.7354 6.65886 25.655C7.89607 26.5747 9.38974 27.0847 10.931 27.1139C9.39966 28.3176 7.64597 29.2076 5.77031 29.7329C3.89465 30.2582 1.93382 30.4085 0 30.1753C3.37775 32.3428 7.30789 33.4926 11.3213 33.4873" fill="#1DA1F2"/>
</svg>
