<svg width="24" height="24" viewBox="0 0 24 24" fill="none" xmlns="http://www.w3.org/2000/svg">
<path d="M5.28069 8.14787C5.87584 8.14787 6.35045 7.67326 6.35045 7.07812C6.35045 6.4905 5.87584 6.00836 5.28069 6.00836C4.69308 6.00836 4.21094 6.4905 4.21094 7.07812C4.21094 7.67326 4.69308 8.14787 5.28069 8.14787ZM8.82143 7.80133H19.0519C19.4587 7.80133 19.7826 7.48492 19.7826 7.07812C19.7826 6.67131 19.4662 6.3549 19.0519 6.3549H8.82143C8.42215 6.3549 8.09821 6.67131 8.09821 7.07812C8.09821 7.48492 8.41462 7.80133 8.82143 7.80133ZM5.28069 12.781C5.87584 12.781 6.35045 12.3064 6.35045 11.7112C6.35045 11.1236 5.87584 10.6415 5.28069 10.6415C4.69308 10.6415 4.21094 11.1236 4.21094 11.7112C4.21094 12.3064 4.69308 12.781 5.28069 12.781ZM8.82143 12.4344H19.0519C19.4587 12.4344 19.7826 12.118 19.7826 11.7112C19.7826 11.3044 19.4662 10.988 19.0519 10.988H8.82143C8.42215 10.988 8.09821 11.3044 8.09821 11.7112C8.09821 12.118 8.41462 12.4344 8.82143 12.4344ZM5.28069 17.4141C5.87584 17.4141 6.35045 16.9394 6.35045 16.3443C6.35045 15.7567 5.87584 15.2745 5.28069 15.2745C4.69308 15.2745 4.21094 15.7567 4.21094 16.3443C4.21094 16.9394 4.69308 17.4141 5.28069 17.4141ZM8.82143 17.0675H19.0519C19.4587 17.0675 19.7826 16.7511 19.7826 16.3443C19.7826 15.9375 19.4662 15.6211 19.0519 15.6211H8.82143C8.42215 15.6211 8.09821 15.9375 8.09821 16.3443C8.09821 16.7511 8.41462 17.0675 8.82143 17.0675Z" fill="#1C1C1E"/>
</svg>
