<svg width="80" height="81" viewBox="0 0 80 81" fill="none" xmlns="http://www.w3.org/2000/svg">
<circle cx="40" cy="40.8906" r="40" fill="#EAFCFB"/>
<path d="M53.4874 30.2044C53.4874 31.7178 49.129 32.9284 43.7416 32.9284C38.3542 32.9284 33.9958 31.7178 33.9958 30.2044C33.9958 28.6911 38.3542 27.4805 43.7416 27.4805C49.129 27.4805 53.4874 28.6911 53.4874 30.2044Z" stroke="#31B6B5" stroke-width="2" stroke-miterlimit="10" stroke-linecap="round"/>
<path d="M53.4874 35.0469C53.4874 36.5602 49.1291 37.7708 43.7417 37.7708C42.7126 37.7708 41.7441 37.7103 40.7756 37.6498C40.6545 37.6498 34.8434 36.9234 34.7828 36.8629" stroke="#31B6B5" stroke-width="2" stroke-miterlimit="10" stroke-linecap="round"/>
<path d="M53.4873 40.3125C53.4873 41.7653 49.3711 42.9759 44.2258 43.0365" stroke="#31B6B5" stroke-width="2" stroke-miterlimit="10" stroke-linecap="round"/>
<path d="M53.4872 45.5781C53.4872 47.0309 49.4315 48.181 44.3468 48.3021" stroke="#31B6B5" stroke-width="2" stroke-miterlimit="10" stroke-linecap="round"/>
<path d="M33.9958 31.0508V37.2251" stroke="#31B6B5" stroke-width="2" stroke-miterlimit="10" stroke-linecap="round"/>
<path d="M53.4873 31.0508V45.5181" stroke="#31B6B5" stroke-width="2" stroke-miterlimit="10" stroke-linecap="round"/>
<path d="M44.1048 46.9099C44.1048 52.2367 39.8069 56.5346 34.4801 56.5346C29.2137 56.5346 24.9159 52.2367 24.9159 46.9099C24.9159 41.583 29.2137 37.2852 34.5406 37.2852C39.8069 37.3457 44.1048 41.6435 44.1048 46.9099Z" stroke="#31B6B5" stroke-width="2" stroke-miterlimit="10" stroke-linecap="round"/>
<path d="M33.9957 53.1455V51.6322C33.1482 51.6322 32.2402 51.3296 31.6954 50.9664L32.0586 49.9373C32.6034 50.3005 33.3903 50.6032 34.2378 50.6032C35.3274 50.6032 36.0538 49.9978 36.0538 49.1504C36.0538 48.3029 35.4485 47.8187 34.3589 47.3344C32.785 46.7291 31.877 46.0632 31.877 44.7315C31.877 43.4603 32.785 42.5523 34.1773 42.3102V40.7969H35.0853V42.2497C35.9933 42.2497 36.5986 42.4918 37.0223 42.7945L36.6591 43.763C36.3565 43.5814 35.7511 43.2787 34.7826 43.2787C33.6325 43.2787 33.2088 43.9446 33.2088 44.5499C33.2088 45.3368 33.7535 45.7 35.0853 46.2448C36.6591 46.9107 37.446 47.6371 37.446 49.0293C37.446 50.24 36.5986 51.3296 35.0853 51.5717V53.1455H33.9957Z" fill="#fff" stroke="#31B6B5" stroke-width="0.4"/>
</svg>
