<svg width="24" height="24" viewBox="0 0 24 24" fill="none" xmlns="http://www.w3.org/2000/svg">
<g opacity="0.7">
<path d="M11.9957 21C16.9285 21 21 16.9265 21 12C21 7.0735 16.9198 3 11.9869 3C7.06283 3 3 7.0735 3 12C3 16.9265 7.07153 21 11.9957 21ZM11.9957 19.207C8.00242 19.207 4.80957 15.9952 4.80957 12C4.80957 8.00484 8.00242 4.80174 11.9869 4.80174C15.9802 4.80174 19.1904 8.00484 19.1991 12C19.2078 15.9952 15.9889 19.207 11.9957 19.207ZM11.9869 16.8917C12.2131 16.8917 12.3871 16.7263 12.3871 16.4913V15.9081C13.7965 15.7776 14.8579 14.9681 14.8579 13.6451C14.8579 12.4613 14.0923 11.765 12.5785 11.4865L12.3871 11.4429V9.28433C12.9439 9.38008 13.3267 9.71083 13.492 10.2244C13.6225 10.5116 13.8052 10.677 14.1184 10.677C14.4664 10.677 14.71 10.442 14.71 10.1112C14.71 10.0068 14.6839 9.91103 14.6665 9.80658C14.4316 8.91006 13.5529 8.26596 12.3871 8.1441V7.56093C12.3871 7.32592 12.2131 7.16054 11.9869 7.16054C11.7608 7.16054 11.5955 7.32592 11.5955 7.56093V8.1441C10.2209 8.28337 9.2465 9.11896 9.2465 10.3288C9.2465 11.4603 10.0034 12.1219 11.4476 12.4526L11.5955 12.4874V14.7853C10.8908 14.6809 10.4819 14.3066 10.3427 13.793C10.2209 13.4797 10.0208 13.323 9.72499 13.323C9.35959 13.323 9.1247 13.5667 9.1247 13.9149C9.1247 14.0106 9.1508 14.1064 9.1769 14.2195C9.42919 15.1422 10.3514 15.7863 11.5955 15.8994V16.4913C11.5955 16.735 11.7608 16.8917 11.9869 16.8917ZM11.5955 11.2427L11.5346 11.2253C10.8386 11.0251 10.5167 10.7205 10.5167 10.2505C10.5167 9.77176 10.9256 9.38008 11.5955 9.27563V11.2427ZM12.3871 12.6876L12.5524 12.7224C13.3093 12.9313 13.579 13.2447 13.579 13.7408C13.579 14.2892 13.1788 14.6896 12.3871 14.7853V12.6876Z" fill="#0E0B23"/>
</g>
</svg>
