<svg width="24" height="24" viewBox="0 0 24 24" fill="none" xmlns="http://www.w3.org/2000/svg">
<path fill-rule="evenodd" clip-rule="evenodd" d="M5.3915 5.3929V9.80781H9.8064V5.3929H5.3915ZM4.52107 4.52247C4.72214 4.3214 4.99485 4.20844 5.27921 4.20844H9.91869C10.2031 4.20844 10.4758 4.3214 10.6768 4.52247C10.8779 4.72354 10.9909 4.99626 10.9909 5.28062V9.9201C10.9909 10.2045 10.8779 10.4772 10.6768 10.6782C10.4758 10.8793 10.2031 10.9923 9.91869 10.9923H5.27921C4.99485 10.9923 4.72214 10.8793 4.52107 10.6782C4.31999 10.4772 4.20703 10.2045 4.20703 9.9201V5.28062C4.20703 4.99626 4.31999 4.72354 4.52107 4.52247ZM14.1905 5.3929V9.80781H18.6054V5.3929H14.1905ZM13.3201 4.52247C13.5212 4.3214 13.7939 4.20844 14.0782 4.20844H18.7177C19.0021 4.20844 19.2748 4.3214 19.4759 4.52247C19.6769 4.72354 19.7899 4.99626 19.7899 5.28062V9.9201C19.7899 10.2045 19.6769 10.4772 19.4759 10.6782C19.2748 10.8793 19.0021 10.9923 18.7177 10.9923H14.0782C13.7939 10.9923 13.5212 10.8793 13.3201 10.6782C13.119 10.4772 13.006 10.2045 13.006 9.9201V5.28062C13.006 4.99626 13.119 4.72354 13.3201 4.52247ZM5.3915 14.1919V18.6068H9.8064V14.1919H5.3915ZM4.52107 13.3215C4.72214 13.1204 4.99485 13.0074 5.27921 13.0074H9.91869C10.2031 13.0074 10.4758 13.1204 10.6768 13.3215C10.8779 13.5226 10.9909 13.7953 10.9909 14.0796V18.7191C10.9909 19.0035 10.8779 19.2762 10.6768 19.4773C10.4758 19.6783 10.2031 19.7913 9.91869 19.7913H5.27921C4.99485 19.7913 4.72214 19.6783 4.52107 19.4773C4.31999 19.2762 4.20703 19.0035 4.20703 18.7191V14.0796C4.20703 13.7953 4.31999 13.5226 4.52107 13.3215ZM14.1905 14.1919V18.6068H18.6054V14.1919H14.1905ZM13.3201 13.3215C13.5212 13.1204 13.7939 13.0074 14.0782 13.0074H18.7177C19.0021 13.0074 19.2748 13.1204 19.4759 13.3215C19.6769 13.5226 19.7899 13.7953 19.7899 14.0796V18.7191C19.7899 19.0035 19.6769 19.2762 19.4759 19.4773C19.2748 19.6783 19.0021 19.7913 18.7177 19.7913H14.0782C13.7939 19.7913 13.5212 19.6783 13.3201 19.4773C13.119 19.2762 13.006 19.0035 13.006 18.7191V14.0796C13.006 13.7953 13.119 13.5226 13.3201 13.3215Z" fill="url(#paint0_linear_2502_5659)"/>
<defs>
<linearGradient id="paint0_linear_2502_5659" x1="4.20703" y1="19.7913" x2="21.2508" y2="6.88674" gradientUnits="userSpaceOnUse">
<stop offset="0.411458" stop-color="#9D3EF2"/>
<stop offset="1" stop-color="#3036F4"/>
</linearGradient>
</defs>
</svg>
