<svg width="24" height="24" viewBox="0 0 24 24" fill="none" xmlns="http://www.w3.org/2000/svg">
<g opacity="0.7">
<path d="M13.2231 10.2707V11.1355H5.44043V10.2707C5.44043 8.83785 7.18287 7.67651 9.33174 7.67651C11.4806 7.67651 13.2231 8.83785 13.2231 10.2707Z" stroke="#0E0B23" stroke-width="1.5" stroke-linecap="round" stroke-linejoin="round"/>
<path d="M19.7089 20.6476V7.02803C19.7089 4.9985 17.3858 3.35291 14.5204 3.35291C11.6551 3.35291 9.33203 4.9985 9.33203 7.02803V7.67659" stroke="#0E0B23" stroke-width="1.5" stroke-linecap="round" stroke-linejoin="round"/>
<path d="M9.33203 14.1621V13.7297" stroke="#0E0B23" stroke-linecap="round" stroke-linejoin="round"/>
<path d="M9.33203 20.6476V20.2152" stroke="#0E0B23" stroke-linecap="round" stroke-linejoin="round"/>
<path d="M9.33203 17.6213V16.7566" stroke="#0E0B23" stroke-linecap="round" stroke-linejoin="round"/>
<path d="M5.94627 13.7427L5.79883 14.1491" stroke="#0E0B23" stroke-linecap="round" stroke-linejoin="round"/>
<path d="M3.35252 20.2281L3.20508 20.6346" stroke="#0E0B23" stroke-linecap="round" stroke-linejoin="round"/>
<path d="M4.72445 16.7821L4.42871 17.595" stroke="#0E0B23" stroke-linecap="round" stroke-linejoin="round"/>
<path d="M12.7207 13.7427L12.8682 14.1491" stroke="#0E0B23" stroke-linecap="round" stroke-linejoin="round"/>
<path d="M15.3155 20.2281L15.4629 20.6346" stroke="#0E0B23" stroke-linecap="round" stroke-linejoin="round"/>
<path d="M13.9435 16.7821L14.2393 17.595" stroke="#0E0B23" stroke-linecap="round" stroke-linejoin="round"/>
</g>
</svg>
