<svg width="24" height="24" viewBox="0 0 24 24" fill="none" xmlns="http://www.w3.org/2000/svg">
<g opacity="0.7">
<path d="M2.95201 18.2276H3.41908C3.81836 18.2276 4.08203 17.9715 4.08203 17.5647V16.4799C4.17243 16.5025 4.43611 16.5175 4.62444 16.5175H19.3675C19.5558 16.5175 19.8195 16.5025 19.9099 16.4799V17.5647C19.9099 17.9715 20.1735 18.2276 20.5728 18.2276H21.0399C21.4392 18.2276 21.7028 17.9715 21.7028 17.5647V12.2837C21.7028 10.9202 21.0173 10.1292 19.7517 10.0011V7.3493C19.7517 5.91793 18.9833 5.17212 17.582 5.17212H6.40988C5.00865 5.17212 4.24023 5.91793 4.24023 7.3493V10.0011C2.97461 10.1292 2.28906 10.9202 2.28906 12.2837V17.5647C2.28906 17.9715 2.55273 18.2276 2.95201 18.2276ZM6.26674 8.59985C6.26674 7.87664 6.66602 7.47736 7.4043 7.47736H10.1164C10.8471 7.47736 11.2464 7.87664 11.2464 8.59985V9.98601H6.26674V8.59985ZM12.7455 8.59985C12.7455 7.87664 13.1448 7.47736 13.8756 7.47736H16.5876C17.3259 7.47736 17.7252 7.87664 17.7252 8.59985V9.98601H12.7455V8.59985ZM4.0067 15.2293C3.83343 15.2293 3.73549 15.1163 3.73549 14.928V12.1933C3.73549 11.6358 4.10463 11.2742 4.66211 11.2742H19.3298C19.8873 11.2742 20.2564 11.6358 20.2564 12.1933V14.928C20.2564 15.1163 20.1585 15.2293 19.9852 15.2293H4.0067Z" fill="#0E0B23"/>
</g>
</svg>
