<svg width="60" height="60" viewBox="0 0 60 60" fill="none" xmlns="http://www.w3.org/2000/svg">
<circle cx="30" cy="30" r="30" fill="#129961"/>
<path d="M31.333 18C28.1504 18 25.0982 19.2643 22.8477 21.5147C20.5973 23.7652 19.333 26.8174 19.333 30H15.333L20.6663 35.3333L25.9997 30H21.9997C21.9997 24.8533 26.1863 20.6667 31.333 20.6667C36.4797 20.6667 40.6663 24.8533 40.6663 30C40.6663 35.1467 36.4797 39.3333 31.333 39.3333C28.7997 39.3333 26.5063 38.32 24.8263 36.68L22.933 38.56C25.1731 40.7645 28.1901 42 31.333 42C34.5156 42 37.5679 40.7357 39.8183 38.4853C42.0687 36.2348 43.333 33.1826 43.333 30C43.333 26.8174 42.0687 23.7652 39.8183 21.5147C37.5679 19.2643 34.5156 18 31.333 18Z" fill="white"/>
</svg>
