<svg width="32" height="32" viewBox="0 0 32 32" fill="none" xmlns="http://www.w3.org/2000/svg">
<path d="M10.8704 16.0001C10.8804 15.6485 11.011 15.3271 11.2922 15.0659L19.107 7.43199C19.328 7.21101 19.6092 7.09048 19.9407 7.09048C20.6036 7.09048 21.136 7.61279 21.136 8.27574C21.136 8.59717 21.0054 8.90855 20.7744 9.13958L13.7331 15.99L20.7744 22.8606C20.9954 23.0916 21.136 23.3929 21.136 23.7244C21.136 24.3873 20.6036 24.9097 19.9407 24.9097C19.6092 24.9097 19.328 24.7891 19.107 24.5682L11.2922 16.9242C11.011 16.653 10.8704 16.3516 10.8704 16.0001Z" fill="url(#paint0_linear_361_23426)"/>
<defs>
<linearGradient id="paint0_linear_361_23426" x1="10.8704" y1="24.9097" x2="25.6465" y2="13.6667" gradientUnits="userSpaceOnUse">
<stop offset="0.411458" stop-color="#9D3EF2"/>
<stop offset="1" stop-color="#3036F4"/>
</linearGradient>
</defs>
</svg>
