<svg width="24" height="24" viewBox="0 0 24 24" fill="none" xmlns="http://www.w3.org/2000/svg">
<path d="M19.6667 8H10.3333C9.04467 8 8 9.04467 8 10.3333V19.6667C8 20.9553 9.04467 22 10.3333 22H19.6667C20.9553 22 22 20.9553 22 19.6667V10.3333C22 9.04467 20.9553 8 19.6667 8Z" stroke="#A19F9D" stroke-width="1.5" stroke-linecap="round" stroke-linejoin="round"/>
<path d="M18 7.33333V4.66667C18 3.95942 17.719 3.28115 17.219 2.78105C16.7189 2.28095 16.0406 2 15.3333 2H4.66667C3.95942 2 3.28115 2.28095 2.78105 2.78105C2.28095 3.28115 2 3.95942 2 4.66667V15.3333C2 16.0406 2.28095 16.7189 2.78105 17.219C3.28115 17.719 3.95942 18 4.66667 18H7.33333" stroke="#A19F9D" stroke-width="1.5" stroke-linecap="round" stroke-linejoin="round"/>
</svg>
