<svg width="36" height="37" viewBox="0 0 36 37" fill="none" xmlns="http://www.w3.org/2000/svg">
<g clip-path="url(#clip0_7939_9635)">
<path d="M0 4.86719C0 2.65805 1.79086 0.867188 4 0.867188H32C34.2091 0.867188 36 2.65805 36 4.86719V32.8672C36 35.0763 34.2091 36.8672 32 36.8672H4C1.79086 36.8672 0 35.0763 0 32.8672V4.86719Z" fill="white"/>
<path d="M33.3425 0.867188H2.6575C1.95269 0.867188 1.27674 1.14717 0.778364 1.64555C0.279986 2.14393 0 2.81988 0 3.52469V34.2097C0 34.9145 0.279986 35.5904 0.778364 36.0888C1.27674 36.5872 1.95269 36.8672 2.6575 36.8672H33.3425C34.0473 36.8672 34.7233 36.5872 35.2216 36.0888C35.72 35.5904 36 34.9145 36 34.2097V3.52469C36 2.81988 35.72 2.14393 35.2216 1.64555C34.7233 1.14717 34.0473 0.867188 33.3425 0.867188ZM10.73 31.5347H5.3175V14.3422H10.73V31.5347ZM8.02 11.9597C7.40605 11.9562 6.80687 11.771 6.2981 11.4273C5.78933 11.0837 5.39376 10.597 5.16132 10.0287C4.92887 9.46046 4.86997 8.83608 4.99205 8.23437C5.11412 7.63266 5.4117 7.0806 5.84723 6.64786C6.28276 6.21512 6.83672 5.92109 7.4392 5.80288C8.04168 5.68467 8.66567 5.74758 9.23243 5.98367C9.79919 6.21975 10.2833 6.61844 10.6237 7.12941C10.9641 7.64037 11.1455 8.24072 11.145 8.85469C11.1508 9.26574 11.0738 9.67375 10.9185 10.0544C10.7633 10.435 10.533 10.7805 10.2414 11.0703C9.94974 11.36 9.60277 11.5881 9.22114 11.7409C8.8395 11.8937 8.431 11.9681 8.02 11.9597ZM30.68 31.5497H25.27V22.1572C25.27 19.3872 24.0925 18.5322 22.5725 18.5322C20.9675 18.5322 19.3925 19.7422 19.3925 22.2272V31.5497H13.98V14.3547H19.185V16.7372H19.255C19.7775 15.6797 21.6075 13.8722 24.4 13.8722C27.42 13.8722 30.6825 15.6647 30.6825 20.9147L30.68 31.5497Z" fill="#0A66C2"/>
</g>
<defs>
<clipPath id="clip0_7939_9635">
<path d="M0 4.86719C0 2.65805 1.79086 0.867188 4 0.867188H32C34.2091 0.867188 36 2.65805 36 4.86719V32.8672C36 35.0763 34.2091 36.8672 32 36.8672H4C1.79086 36.8672 0 35.0763 0 32.8672V4.86719Z" fill="white"/>
</clipPath>
</defs>
</svg>
