<svg width="40" height="40" viewBox="0 0 40 40" fill="none" xmlns="http://www.w3.org/2000/svg">
<rect width="40" height="40" rx="20" fill="white" fill-opacity="0.1"/>
<path d="M24.2853 20.9673V24.1362H22.4484V21.179C22.4484 20.4367 22.1827 19.9302 21.5176 19.9302C21.0102 19.9302 20.7076 20.2713 20.5747 20.6022C20.5267 20.7205 20.5139 20.885 20.5139 21.0496V24.1362H18.6762C18.6762 24.1362 18.701 19.1287 18.6762 18.6102H20.5139V19.3927L20.5019 19.4107H20.5139V19.3936C20.7582 19.0165 21.1936 18.4799 22.1699 18.4799C23.3784 18.4799 24.2853 19.2702 24.2853 20.9673ZM16.7536 15.9453C16.1253 15.9453 15.7139 16.3585 15.7139 16.9002C15.7139 17.4316 16.1133 17.8559 16.7296 17.8559H16.7416C17.3827 17.8559 17.7813 17.4307 17.7813 16.9002C17.7693 16.3585 17.3827 15.9453 16.7536 15.9453ZM15.8227 24.1362H17.6604V18.6102H15.8227V24.1362Z" fill="#ECECEC"/>
<path d="M14.8563 13.144C14.4016 13.144 13.9656 13.3246 13.6441 13.6461C13.3226 13.9676 13.142 14.4036 13.142 14.8583V25.144C13.142 25.5986 13.3226 26.0347 13.6441 26.3562C13.9656 26.6776 14.4016 26.8583 14.8563 26.8583H25.142C25.5967 26.8583 26.0327 26.6776 26.3542 26.3562C26.6757 26.0347 26.8563 25.5986 26.8563 25.144V14.8583C26.8563 14.4036 26.6757 13.9676 26.3542 13.6461C26.0327 13.3246 25.5967 13.144 25.142 13.144H14.8563ZM14.8563 11.4297H25.142C26.0513 11.4297 26.9234 11.7909 27.5664 12.4339C28.2094 13.0769 28.5706 13.9489 28.5706 14.8583V25.144C28.5706 26.0533 28.2094 26.9254 27.5664 27.5683C26.9234 28.2113 26.0513 28.5725 25.142 28.5725H14.8563C13.947 28.5725 13.0749 28.2113 12.4319 27.5683C11.789 26.9254 11.4277 26.0533 11.4277 25.144V14.8583C11.4277 13.9489 11.789 13.0769 12.4319 12.4339C13.0749 11.7909 13.947 11.4297 14.8563 11.4297Z" fill="#ECECEC"/>
</svg>
