<svg width="28" height="13" viewBox="0 0 28 13" fill="none" xmlns="http://www.w3.org/2000/svg">
<path d="M27.37 6.60519C27.37 2.86858 24.9994 0.427734 21.4939 0.427734C19.6557 0.427734 18.0787 1.20117 16.3912 2.83845L13.9905 5.14872L11.5999 2.83845C9.91239 1.20117 8.33538 0.427734 6.49721 0.427734C2.99163 0.427734 0.621094 2.86858 0.621094 6.60519C0.621094 10.3418 2.99163 12.7826 6.49721 12.7826C8.33538 12.7826 9.91239 11.9992 11.5999 10.3719L13.9905 8.05162L16.3912 10.3719C18.0787 11.9992 19.6557 12.7826 21.4939 12.7826C24.9994 12.7826 27.37 10.3418 27.37 6.60519ZM12.4939 6.60519L10.0932 8.85519C8.82757 10.0505 7.72266 10.6431 6.49721 10.6431C4.27734 10.6431 2.7606 9.05608 2.7606 6.60519C2.7606 4.14425 4.27734 2.56724 6.49721 2.56724C7.72266 2.56724 8.82757 3.15988 10.1032 4.35519L12.4939 6.60519ZM15.4972 6.60519L17.8878 4.35519C19.1635 3.15988 20.2584 2.56724 21.4939 2.56724C23.7137 2.56724 25.2305 4.14425 25.2305 6.60519C25.2305 9.05608 23.7137 10.6431 21.4939 10.6431C20.2684 10.6431 19.1635 10.0505 17.8979 8.85519L15.4972 6.60519Z" fill="url(#paint0_linear_5528_25003)"/>
<defs>
<linearGradient id="paint0_linear_5528_25003" x1="0.621094" y1="12.7826" x2="13.1046" y2="-7.68094" gradientUnits="userSpaceOnUse">
<stop offset="0.411458" stop-color="#9D3EF2"/>
<stop offset="1" stop-color="#3036F4"/>
</linearGradient>
</defs>
</svg>
