<svg width="40" height="40" viewBox="0 0 40 40" fill="none" xmlns="http://www.w3.org/2000/svg">
<rect width="40" height="40" rx="20" fill="white" fill-opacity="0.1"/>
<path fill-rule="evenodd" clip-rule="evenodd" d="M16.1117 10.6269C17.1172 10.5806 17.4377 10.5703 19.9989 10.5703C22.56 10.5703 22.8806 10.5815 23.8852 10.6269C24.8897 10.6723 25.5755 10.8326 26.1755 11.0649C26.8037 11.3023 27.3737 11.6735 27.8452 12.1535C28.3252 12.624 28.6955 13.1932 28.932 13.8223C29.1652 14.4223 29.3246 15.108 29.3709 16.1109C29.4172 17.118 29.4275 17.4386 29.4275 19.9989C29.4275 22.56 29.4163 22.8806 29.3709 23.886C29.3255 24.8889 29.1652 25.5746 28.932 26.1746C28.6954 26.8038 28.3246 27.3739 27.8452 27.8452C27.3737 28.3252 26.8037 28.6955 26.1755 28.932C25.5755 29.1652 24.8897 29.3246 23.8869 29.3709C22.8806 29.4172 22.56 29.4275 19.9989 29.4275C17.4377 29.4275 17.1172 29.4163 16.1117 29.3709C15.1089 29.3255 14.4232 29.1652 13.8232 28.932C13.194 28.6954 12.6239 28.3245 12.1526 27.8452C11.6729 27.3743 11.3017 26.8045 11.0649 26.1755C10.8326 25.5755 10.6732 24.8897 10.6269 23.8869C10.5806 22.8797 10.5703 22.5592 10.5703 19.9989C10.5703 17.4377 10.5815 17.1172 10.6269 16.1126C10.6723 15.108 10.8326 14.4223 11.0649 13.8223C11.3021 13.1932 11.6736 12.6234 12.1535 12.1526C12.6241 11.673 13.1936 11.3018 13.8223 11.0649C14.4223 10.8326 15.108 10.6732 16.1109 10.6269H16.1117ZM23.8089 12.324C22.8146 12.2786 22.5163 12.2692 19.9989 12.2692C17.4815 12.2692 17.1832 12.2786 16.1889 12.324C15.2692 12.366 14.7703 12.5195 14.4377 12.6489C13.998 12.8203 13.6835 13.0235 13.3535 13.3535C13.0406 13.6578 12.7999 14.0283 12.6489 14.4377C12.5195 14.7703 12.366 15.2692 12.324 16.1889C12.2786 17.1832 12.2692 17.4815 12.2692 19.9989C12.2692 22.5163 12.2786 22.8146 12.324 23.8089C12.366 24.7286 12.5195 25.2275 12.6489 25.56C12.7997 25.9689 13.0406 26.34 13.3535 26.6443C13.6577 26.9572 14.0289 27.198 14.4377 27.3489C14.7703 27.4783 15.2692 27.6317 16.1889 27.6737C17.1832 27.7192 17.4806 27.7286 19.9989 27.7286C22.5172 27.7286 22.8146 27.7192 23.8089 27.6737C24.7286 27.6317 25.2275 27.4783 25.56 27.3489C25.9997 27.1775 26.3143 26.9743 26.6443 26.6443C26.9572 26.34 27.198 25.9689 27.3489 25.56C27.4783 25.2275 27.6317 24.7286 27.6737 23.8089C27.7192 22.8146 27.7286 22.5163 27.7286 19.9989C27.7286 17.4815 27.7192 17.1832 27.6737 16.1889C27.6317 15.2692 27.4783 14.7703 27.3489 14.4377C27.1775 13.998 26.9743 13.6835 26.6443 13.3535C26.34 13.0407 25.9695 12.7999 25.56 12.6489C25.2275 12.5195 24.7286 12.366 23.8089 12.324ZM18.7946 22.9055C19.4672 23.1854 20.2161 23.2232 20.9134 23.0124C21.6107 22.8015 22.2132 22.3551 22.618 21.7494C23.0227 21.1437 23.2046 20.4162 23.1326 19.6913C23.0606 18.9663 22.7392 18.2889 22.2232 17.7746C21.8942 17.4459 21.4965 17.1942 21.0586 17.0376C20.6207 16.881 20.1535 16.8235 19.6907 16.8691C19.2279 16.9148 18.781 17.0625 18.3821 17.3016C17.9833 17.5407 17.6424 17.8652 17.384 18.2519C17.1256 18.6386 16.9562 19.0777 16.8879 19.5377C16.8196 19.9977 16.8542 20.4671 16.9891 20.9122C17.124 21.3572 17.3559 21.7668 17.6681 22.1115C17.9803 22.4562 18.365 22.7273 18.7946 22.9055ZM16.572 16.572C17.022 16.122 17.5563 15.765 18.1443 15.5215C18.7323 15.2779 19.3625 15.1526 19.9989 15.1526C20.6353 15.1526 21.2655 15.2779 21.8535 15.5215C22.4415 15.765 22.9757 16.122 23.4257 16.572C23.8758 17.022 24.2327 17.5563 24.4763 18.1443C24.7198 18.7323 24.8452 19.3625 24.8452 19.9989C24.8452 20.6353 24.7198 21.2655 24.4763 21.8535C24.2327 22.4415 23.8758 22.9757 23.4257 23.4257C22.5169 24.3346 21.2842 24.8452 19.9989 24.8452C18.7136 24.8452 17.4809 24.3346 16.572 23.4257C15.6632 22.5169 15.1526 21.2842 15.1526 19.9989C15.1526 18.7136 15.6632 17.4809 16.572 16.572ZM25.92 15.8743C26.0315 15.7691 26.1208 15.6426 26.1826 15.5023C26.2443 15.362 26.2773 15.2107 26.2795 15.0574C26.2818 14.9041 26.2532 14.7519 26.1956 14.6099C26.1379 14.4678 26.0524 14.3387 25.944 14.2303C25.8356 14.1219 25.7065 14.0364 25.5645 13.9788C25.4224 13.9211 25.2702 13.8926 25.1169 13.8948C24.9637 13.897 24.8124 13.93 24.672 13.9918C24.5317 14.0535 24.4052 14.1428 24.3 14.2543C24.0954 14.4712 23.9834 14.7593 23.9878 15.0574C23.9921 15.3555 24.1125 15.6402 24.3233 15.851C24.5341 16.0619 24.8188 16.1822 25.1169 16.1866C25.4151 16.1909 25.7031 16.0789 25.92 15.8743Z" fill="#ECECEC"/>
</svg>
