<svg width="36" height="37" viewBox="0 0 36 37" fill="none" xmlns="http://www.w3.org/2000/svg">
<g clip-path="url(#clip0_7939_9630)">
<path d="M2.24957 3.31664C-0.579433 6.25514 -0.000433557 9.37664 -0.000433557 18.8596C-0.000433557 26.7347 -1.37443 34.6292 5.81657 36.4877C8.06206 37.0652 27.9581 37.0652 30.2006 36.4847C33.1946 35.7122 35.6306 33.2837 35.9636 29.0492C36.0101 28.4582 36.0101 9.27164 35.9621 8.66864C35.6081 4.15814 32.8316 1.55864 29.1731 1.03214C28.3346 0.910635 28.1666 0.874635 23.8646 0.867135C8.60506 0.874635 5.26007 0.195134 2.24957 3.31664Z" fill="url(#paint0_linear_7939_9630)"/>
<path d="M17.9967 5.57533C12.5502 5.57533 7.37822 5.09083 5.40272 10.1608C4.58672 12.2548 4.70522 14.9743 4.70522 18.8683C4.70522 22.2853 4.59572 25.4968 5.40272 27.5743C7.37372 32.6474 12.5877 32.1614 17.9937 32.1614C23.2092 32.1614 28.5867 32.7044 30.5862 27.5743C31.4037 25.4593 31.2837 22.7803 31.2837 18.8683C31.2837 13.6753 31.5702 10.3228 29.0517 7.80583C26.5017 5.25583 23.0532 5.57533 17.9907 5.57533H17.9967ZM16.8057 7.97083C28.1667 7.95283 29.6127 6.68983 28.8147 24.2353C28.5312 30.4409 23.8062 29.7598 17.9982 29.7598C7.40822 29.7598 7.10372 29.4569 7.10372 18.8623C7.10372 8.14483 7.94372 7.97683 16.8057 7.96783V7.97083ZM25.0917 10.1773C24.2112 10.1773 23.4972 10.8913 23.4972 11.7718C23.4972 12.6523 24.2112 13.3663 25.0917 13.3663C25.9722 13.3663 26.6862 12.6523 26.6862 11.7718C26.6862 10.8913 25.9722 10.1773 25.0917 10.1773ZM17.9967 12.0418C14.2272 12.0418 11.1717 15.0988 11.1717 18.8683C11.1717 22.6378 14.2272 25.6933 17.9967 25.6933C21.7662 25.6933 24.8202 22.6378 24.8202 18.8683C24.8202 15.0988 21.7662 12.0418 17.9967 12.0418ZM17.9967 14.4373C23.8542 14.4373 23.8617 23.2993 17.9967 23.2993C12.1407 23.2993 12.1317 14.4373 17.9967 14.4373Z" fill="white"/>
</g>
<defs>
<linearGradient id="paint0_linear_7939_9630" x1="2.3186" y1="34.5678" x2="35.7768" y2="5.61014" gradientUnits="userSpaceOnUse">
<stop stop-color="#FFDD55"/>
<stop offset="0.5" stop-color="#FF543E"/>
<stop offset="1" stop-color="#C837AB"/>
</linearGradient>
<clipPath id="clip0_7939_9630">
<rect width="36" height="36" fill="white" transform="translate(0 0.867188)"/>
</clipPath>
</defs>
</svg>
