<svg width="24" height="24" viewBox="0 0 24 24" fill="none" xmlns="http://www.w3.org/2000/svg">
<path d="M23.7494 11.9997C23.7494 18.4889 18.4889 23.7494 11.9997 23.7494C5.51053 23.7494 0.25 18.4889 0.25 11.9997C0.25 5.51053 5.51053 0.25 11.9997 0.25C18.4889 0.25 23.7494 5.51053 23.7494 11.9997Z" fill="white" stroke="#31353E" stroke-width="0.5"/>
<path fill-rule="evenodd" clip-rule="evenodd" d="M7.99851 9.91725C7.85728 10.5814 7.74611 10.9983 8.04899 11.6518C8.77274 13.211 10.8737 13.5417 11.9979 12.004C13.2071 10.35 15.2984 10.8832 15.9495 12.3086C16.2564 12.9801 16.16 13.3914 16.0034 14.0845C16.27 13.7011 16.477 12.8939 16.5179 12.3494C16.5695 11.6563 16.4629 10.9541 16.2286 10.3665C15.7782 9.23491 15.0675 8.50719 14.0971 7.98083C13.05 7.41306 11.5946 7.30359 10.4034 7.76075C9.66098 8.04549 9.19531 8.39772 8.70525 8.88098C8.50672 9.07666 8.11139 9.61891 7.99795 9.91782L7.99851 9.91725Z" fill="#CD2E3A"/>
<path fill-rule="evenodd" clip-rule="evenodd" d="M16.0045 14.0832C16.161 13.3901 16.2575 12.9789 15.9506 12.3073C15.2989 10.882 13.2076 10.3488 11.9989 12.0028C10.8747 13.5404 8.77381 13.2103 8.05007 11.6505C7.74661 10.9971 7.85835 10.5796 7.99958 9.91602C7.75172 10.2138 7.52881 11.148 7.4908 11.6335C7.3456 13.4917 8.32175 15.1592 9.91389 16.0021C10.9893 16.5716 12.392 16.6878 13.6064 16.2244C14.232 15.9856 14.6052 15.7054 15.0261 15.368C15.2995 15.1485 15.8531 14.4899 16.0051 14.0821L16.0045 14.0832Z" fill="#0047A0"/>
<path fill-rule="evenodd" clip-rule="evenodd" d="M3.53475 9.0496C3.64592 9.16418 4.00099 9.41091 4.15924 9.46253L6.65719 5.73091L6.3475 5.50743C6.2403 5.43596 6.14104 5.35202 6.01342 5.30664L3.53418 9.0496H3.53475Z" fill="black"/>
<path fill-rule="evenodd" clip-rule="evenodd" d="M2.59277 8.45341L3.20308 8.84478L5.72543 5.08479L5.09016 4.67188C4.89391 4.97475 2.66481 8.24808 2.59277 8.45341Z" fill="black"/>
<path fill-rule="evenodd" clip-rule="evenodd" d="M4.4707 9.68658C4.63576 9.80172 4.93411 10.0241 5.10597 10.1018C5.40091 9.57768 7.52622 6.55619 7.58691 6.33782L6.97717 5.92773L4.4707 9.68658Z" fill="black"/>
<path fill-rule="evenodd" clip-rule="evenodd" d="M4.47656 14.294L6.97395 18.0478L7.58993 17.6502C7.50599 17.353 5.47314 14.534 5.10729 13.8828C4.936 13.96 4.63651 14.1829 4.47713 14.294H4.47656Z" fill="black"/>
<path fill-rule="evenodd" clip-rule="evenodd" d="M2.59766 15.5371C2.66062 15.7203 5.06555 19.2687 5.11036 19.2988L5.71443 18.9006L3.21817 15.1406L2.59822 15.5377L2.59766 15.5371Z" fill="black"/>
<path fill-rule="evenodd" clip-rule="evenodd" d="M17.3584 5.72681L19.845 9.4658C20.0055 9.41589 20.368 9.16348 20.4661 9.05515L17.9835 5.31445C17.878 5.34792 17.4554 5.61507 17.3584 5.72681Z" fill="black"/>
<path fill-rule="evenodd" clip-rule="evenodd" d="M16.4082 17.6632L17.0287 18.0591L18.1767 16.3376C18.0134 16.2197 17.7179 16.0058 17.5443 15.9219C17.322 16.294 16.508 17.4074 16.4082 17.6632Z" fill="black"/>
<path fill-rule="evenodd" clip-rule="evenodd" d="M18.7129 16.2171C18.8184 16.3266 19.2364 16.5966 19.3538 16.6391L20.4741 14.9364C20.3674 14.8224 20.005 14.5705 19.8496 14.5234L18.7129 16.2171Z" fill="black"/>
<path fill-rule="evenodd" clip-rule="evenodd" d="M17.7695 15.6224L18.3872 16.0161L19.5381 14.2974C19.3963 14.1919 19.0537 13.9463 18.9022 13.8828C18.668 14.3031 17.879 15.3383 17.7695 15.6224Z" fill="black"/>
<path fill-rule="evenodd" clip-rule="evenodd" d="M19.6465 16.859C19.8399 16.9758 20.0906 17.1846 20.284 17.2662C20.4633 16.9946 21.3549 15.7087 21.4162 15.5295L20.807 15.1387L19.6465 16.859Z" fill="black"/>
<path fill-rule="evenodd" clip-rule="evenodd" d="M18.2842 18.8989L18.8922 19.3022C19.0108 19.2262 19.3755 18.6244 19.481 18.4667C19.612 18.2698 19.9881 17.7599 20.0561 17.5705L19.4458 17.1797L18.2842 18.8983V18.8989Z" fill="black"/>
<path fill-rule="evenodd" clip-rule="evenodd" d="M19.6529 7.12203L20.793 8.84349L21.4118 8.44928C21.3545 8.27515 20.4606 6.98704 20.2836 6.71875C20.0897 6.80099 19.8401 7.00916 19.6523 7.12203H19.6529Z" fill="black"/>
<path fill-rule="evenodd" clip-rule="evenodd" d="M17.3525 18.2552L17.6571 18.4815C17.7683 18.5558 17.8551 18.6307 17.9952 18.6795L19.1148 16.975L18.5 16.5508L17.3531 18.2558L17.3525 18.2552Z" fill="black"/>
<path fill-rule="evenodd" clip-rule="evenodd" d="M18.292 5.08152L19.4321 6.80638L20.0503 6.40593C19.9902 6.23067 19.6204 5.72756 19.4939 5.53812C19.3833 5.37249 19.0101 4.75765 18.891 4.68164L18.292 5.08095V5.08152Z" fill="black"/>
<path fill-rule="evenodd" clip-rule="evenodd" d="M16.4131 6.32862C16.5078 6.57535 17.3217 7.68933 17.5441 8.06255C17.7176 7.97917 18.0126 7.76477 18.172 7.6502L17.0353 5.93555L16.4131 6.32862Z" fill="black"/>
<path fill-rule="evenodd" clip-rule="evenodd" d="M17.7744 8.36995C17.8521 8.57754 18.1913 9.02847 18.3354 9.24457C18.5118 9.50889 18.7517 9.83106 18.902 10.1022C19.0535 10.0381 19.3955 9.79306 19.5316 9.69096L18.3955 7.97461L17.7744 8.36995Z" fill="black"/>
<path fill-rule="evenodd" clip-rule="evenodd" d="M3.54297 14.9302L4.66489 16.6312L5.27293 16.2399C5.2769 16.2359 5.28541 16.2274 5.29108 16.2211L4.16462 14.5195C4.00127 14.5745 3.64507 14.8218 3.54297 14.9308V14.9302Z" fill="black"/>
<path fill-rule="evenodd" clip-rule="evenodd" d="M4.89746 16.9565L6.02562 18.6695L6.59226 18.3116C6.5985 18.3065 6.60644 18.2991 6.61211 18.2945L5.52479 16.5566L4.89746 16.9571V16.9565Z" fill="black"/>
</svg>
