<svg width="14" height="12" viewBox="0 0 14 12" fill="none" xmlns="http://www.w3.org/2000/svg">
<path fill-rule="evenodd" clip-rule="evenodd" d="M12.455 3.47648L7.35 0.83598C7.12793 0.721299 6.86407 0.721299 6.642 0.83598L1.538 3.47648C1.43549 3.52916 1.37105 3.63473 1.37105 3.74998C1.37105 3.86523 1.43549 3.9708 1.538 4.02348L6.6425 6.66398C6.86457 6.77866 7.12843 6.77866 7.3505 6.66398L12.455 4.02348C12.5572 3.97055 12.6214 3.86507 12.6214 3.74998C12.6214 3.63489 12.5572 3.52941 12.455 3.47648Z" stroke="#8557E7" stroke-linecap="round" stroke-linejoin="round"/>
<path d="M1.379 6.37497L6.6425 8.91397C6.86457 9.02865 7.12843 9.02865 7.3505 8.91397L12.629 6.37497" stroke="#8557E7" stroke-linecap="round" stroke-linejoin="round"/>
<path d="M1.379 8.62497L6.6425 11.164C6.86457 11.2787 7.12843 11.2787 7.3505 11.164L12.629 8.62497" stroke="#8557E7" stroke-linecap="round" stroke-linejoin="round"/>
</svg>
