<svg xmlns="http://www.w3.org/2000/svg" xmlns:xlink="http://www.w3.org/1999/xlink" viewBox="0 0 219 227.71"><defs><style>.cls-1{fill:url(#radial-gradient);}.cls-2{fill:none;}.cls-3{fill:url(#radial-gradient-2);}.cls-4{fill:url(#radial-gradient-3);}.cls-5{fill:url(#linear-gradient);}.cls-6{fill:url(#linear-gradient-2);}.cls-7{fill:url(#linear-gradient-3);}.cls-8{fill:url(#linear-gradient-4);}</style><radialGradient id="radial-gradient" cx="1026.09" cy="23.8" r="0.41" gradientTransform="matrix(109.77, 109.77, 109.77, -109.77, -115134.16, -109904.79)" gradientUnits="userSpaceOnUse"><stop offset="0" stop-color="#71bcf8"/><stop offset="0.37" stop-color="#71adf8"/><stop offset="0.45" stop-color="#72a8f7"/><stop offset="0.55" stop-color="#759af5"/><stop offset="0.65" stop-color="#7a83f2"/><stop offset="0.76" stop-color="#8162ed"/><stop offset="0.77" stop-color="#825fed"/><stop offset="1" stop-color="#7000e0"/></radialGradient><radialGradient id="radial-gradient-2" cx="108.91" cy="112.68" r="46.85" gradientUnits="userSpaceOnUse"><stop offset="0.19" stop-color="#71d5f8"/><stop offset="0.27" stop-color="#72d0f8"/><stop offset="0.38" stop-color="#74c1f6"/><stop offset="0.5" stop-color="#77a8f4"/><stop offset="0.62" stop-color="#7c85f1"/><stop offset="0.73" stop-color="#825fed"/><stop offset="1" stop-color="#7000e0"/></radialGradient><radialGradient id="radial-gradient-3" cx="175.7" cy="162.58" r="28.85" gradientTransform="matrix(1.02, 0.02, -0.02, 1, -66.49, -53)" gradientUnits="userSpaceOnUse"><stop offset="0" stop-color="#95dbf7"/><stop offset="0.49" stop-color="#83a3f2"/><stop offset="0.5" stop-color="#82a1f2"/><stop offset="0.8" stop-color="#7476ee"/><stop offset="0.95" stop-color="#6f65ec"/></radialGradient><linearGradient id="linear-gradient" x1="94.28" y1="71.31" x2="50.69" y2="27.72" gradientUnits="userSpaceOnUse"><stop offset="0" stop-color="#71dff8"/><stop offset="0.11" stop-color="#71adf8"/><stop offset="0.48" stop-color="#825fed"/><stop offset="1" stop-color="#90c"/></linearGradient><linearGradient id="linear-gradient-2" x1="67.82" y1="125.58" x2="16.19" y2="177.21" xlink:href="#linear-gradient"/><linearGradient id="linear-gradient-3" x1="123.58" y1="155.2" x2="163.11" y2="194.74" xlink:href="#linear-gradient"/><linearGradient id="linear-gradient-4" x1="152.24" y1="99.54" x2="193.77" y2="58.01" xlink:href="#linear-gradient"/></defs><title>1112021 Lynkey logo option 7</title><g id="OBJECTS"><rect class="cls-1" x="64.98" y="68.33" width="89.03" height="89.03" transform="translate(-47.73 110.47) rotate(-45)"/><polygon class="cls-2" points="172.71 113.94 110.17 176.48 46.54 112.85 109.49 49.89 172.71 113.94"/><rect class="cls-3" x="77.93" y="81.7" width="61.97" height="61.97"/><polygon class="cls-4" points="139.78 113.57 108.32 143.93 77.78 112.68 109.51 82 139.78 113.57"/><polygon class="cls-5" points="110.17 8 83.18 23.58 18.42 60.97 18.42 84.73 46.54 112.85 109.49 49.89 135.81 23.57 110.17 8"/><polyline class="cls-6" points="18.42 83.25 18.42 140.79 18.42 166.73 81.8 203.32 109.49 175.63"/><polygon class="cls-7" points="171.53 112.85 108.16 175.8 81.01 202.95 109.11 219.71 136.35 203.99 200.58 166.91 200.58 142.31 171.53 112.85"/><polyline class="cls-8" points="200.58 144.93 200.58 83.38 200.58 60.97 134.97 23.09 108.91 49.14"/></g></svg>