<svg width="85" height="28" viewBox="0 0 85 28" fill="none" xmlns="http://www.w3.org/2000/svg">
<path d="M4.19214 13.8665L12.5312 22.1913L20.8677 13.8665L12.5312 5.53906L4.19214 13.8665Z" fill="url(#paint0_radial_723_4307)"/>
<path d="M16.555 9.74805H8.34839V17.9433H16.555V9.74805Z" fill="url(#paint1_radial_723_4307)"/>
<path d="M16.5446 13.9612L12.3777 17.9771L8.33276 13.8445L12.5334 9.78711L16.5446 13.9612Z" fill="url(#paint2_radial_723_4307)"/>
<path d="M12.6198 0L9.04479 2.06112L0.469482 7.00521V10.1474L4.19246 13.8678L12.5315 5.54039L16.0156 2.06112L12.6198 0Z" fill="url(#paint3_linear_723_4307)"/>
<path d="M0.469482 9.95312V17.5624V20.9924L8.86306 25.8328L12.5315 22.1695" fill="url(#paint4_linear_723_4307)"/>
<path d="M20.7492 13.8672L12.3582 22.192L8.76245 25.7828L12.4828 27.9995L16.0916 25.9202L24.5968 21.015V17.7639L20.7492 13.8672Z" fill="url(#paint5_linear_723_4307)"/>
<path d="M24.5938 18.1091V9.96834V7.005L15.9042 1.99609L12.4539 5.44166" fill="url(#paint6_linear_723_4307)"/>
<path d="M32.5559 10.0547H34.4687C34.4873 10.0609 34.4965 10.0732 34.4965 10.0918V16.0787H40.9621C40.9807 16.0787 40.99 16.0879 40.99 16.1065V17.9094C40.99 17.9341 40.9807 17.9465 40.9621 17.9465H32.5559C32.5374 17.9465 32.5281 17.9341 32.5281 17.9094V10.0918C32.5312 10.0671 32.5405 10.0547 32.5559 10.0547Z" fill="#CC00CC"/>
<path d="M39.0099 10.0547H40.9505L43.2253 13.1935C44.6924 11.1432 45.4445 10.098 45.4878 10.0547H47.4284C47.447 10.0609 47.4563 10.0732 47.4563 10.0918C47.2799 10.3175 46.1966 11.8235 44.2065 14.6067V17.9094C44.2065 17.9341 44.1972 17.9465 44.1786 17.9465H42.2628C42.2442 17.9465 42.2349 17.9341 42.2349 17.9094V14.6067L38.9851 10.0763L39.0099 10.0547Z" fill="#CC00CC"/>
<path d="M48.0567 10.0547H54.5842C55.1661 10.0547 55.6954 10.3794 56.1689 11.0257C56.3825 11.4122 56.4908 11.7957 56.4908 12.173V17.9094C56.4908 17.9341 56.4815 17.9465 56.4629 17.9465H54.544C54.5254 17.9465 54.5161 17.9341 54.5161 17.9094V13.3419C54.5161 12.6461 54.284 12.1915 53.8167 11.9812C53.7052 11.9472 53.6031 11.9287 53.5133 11.9287H50.0004V17.9063C50.0004 17.931 49.9912 17.9434 49.9726 17.9434H48.0598C48.0413 17.9434 48.032 17.931 48.032 17.9063V10.0918C48.032 10.0671 48.0413 10.0547 48.0567 10.0547Z" fill="#CC00CC"/>
<path d="M57.4661 10.0547H59.3788C59.3974 10.0609 59.4067 10.0732 59.4067 10.0918V13.2306L63.2353 10.0547H65.8816V10.0763C65.7175 10.2433 64.6374 11.1432 62.6441 12.776V12.7915L65.8816 17.9094V17.931H63.3622C63.3343 17.9063 62.542 16.66 60.979 14.1892L59.4067 15.4756V17.9094C59.4067 17.9341 59.3974 17.9465 59.3788 17.9465H57.4661C57.4475 17.9465 57.4382 17.9341 57.4382 17.9094V10.0918C57.4413 10.0671 57.4506 10.0547 57.4661 10.0547Z" fill="#CC00CC"/>
<path d="M66.8606 10.0547H75.2668C75.2854 10.0609 75.2947 10.0732 75.2947 10.0918V11.8947C75.2947 11.9194 75.2854 11.9318 75.2668 11.9318H66.8606C66.842 11.9318 66.8328 11.9194 66.8328 11.8947V10.0918C66.8359 10.0671 66.8451 10.0547 66.8606 10.0547ZM66.8606 13.144H75.2668C75.2854 13.1502 75.2947 13.1625 75.2947 13.1811V14.8201C75.2947 14.8448 75.2854 14.8572 75.2668 14.8572H66.8606C66.842 14.8572 66.8328 14.8448 66.8328 14.8201V13.1811C66.8359 13.1564 66.8451 13.144 66.8606 13.144ZM66.8606 16.0787H75.2668C75.2854 16.0787 75.2947 16.0879 75.2947 16.1065V17.9094C75.2947 17.9341 75.2854 17.9465 75.2668 17.9465H66.8606C66.842 17.9465 66.8328 17.9341 66.8328 17.9094V16.1065C66.8359 16.0879 66.8451 16.0787 66.8606 16.0787Z" fill="#CC00CC"/>
<path d="M76.0841 10.0547H78.0247L80.2996 13.1935C81.7666 11.1432 82.5187 10.098 82.5621 10.0547H84.5027C84.5212 10.0609 84.5305 10.0732 84.5305 10.0918C84.3541 10.3175 83.2708 11.8235 81.2807 14.6067V17.9094C81.2807 17.9341 81.2714 17.9465 81.2528 17.9465H79.337C79.3184 17.9465 79.3091 17.9341 79.3091 17.9094V14.6067L76.0593 10.0763L76.0841 10.0547Z" fill="#CC00CC"/>
<defs>
<radialGradient id="paint0_radial_723_4307" cx="0" cy="0" r="1" gradientUnits="userSpaceOnUse" gradientTransform="translate(12.5302 13.8651) scale(8.33732 8.3257)">
<stop stop-color="#30BCF9"/>
<stop offset="0.366" stop-color="#47AEFA"/>
<stop offset="0.4492" stop-color="#4BA9F9"/>
<stop offset="0.5464" stop-color="#589BF8"/>
<stop offset="0.6505" stop-color="#6D84F5"/>
<stop offset="0.7589" stop-color="#8963F1"/>
<stop offset="0.7706" stop-color="#8D5FF0"/>
<stop offset="1" stop-color="#8300E4"/>
</radialGradient>
<radialGradient id="paint1_radial_723_4307" cx="0" cy="0" r="1" gradientUnits="userSpaceOnUse" gradientTransform="translate(12.4534 13.8449) scale(6.20436 6.19572)">
<stop offset="0.1856" stop-color="#00D5F9"/>
<stop offset="0.2641" stop-color="#05D1F9"/>
<stop offset="0.3603" stop-color="#14C4F8"/>
<stop offset="0.4659" stop-color="#2DAFF6"/>
<stop offset="0.578" stop-color="#5092F4"/>
<stop offset="0.6943" stop-color="#7C6DF1"/>
<stop offset="0.7345" stop-color="#8D5FF0"/>
<stop offset="1" stop-color="#8300E4"/>
</radialGradient>
<radialGradient id="paint2_radial_723_4307" cx="0" cy="0" r="1" gradientUnits="userSpaceOnUse" gradientTransform="translate(12.4384 13.882) rotate(1.09478) scale(3.87977 3.81522)">
<stop stop-color="#6ADBF7"/>
<stop offset="0.4923" stop-color="#74A4F4"/>
<stop offset="0.5089" stop-color="#74A1F4"/>
<stop offset="0.8004" stop-color="#7376F0"/>
<stop offset="0.9485" stop-color="#7365EF"/>
</radialGradient>
<linearGradient id="paint3_linear_723_4307" x1="10.5153" y1="8.37331" x2="4.75063" y2="2.60059" gradientUnits="userSpaceOnUse">
<stop stop-color="#00DFF8"/>
<stop offset="0.1134" stop-color="#47AEFA"/>
<stop offset="0.4768" stop-color="#8D5FF0"/>
<stop offset="1" stop-color="#B300D0"/>
</linearGradient>
<linearGradient id="paint4_linear_723_4307" x1="7.01139" y1="15.5502" x2="0.182684" y2="22.3885" gradientUnits="userSpaceOnUse">
<stop stop-color="#00DFF8"/>
<stop offset="0.1134" stop-color="#47AEFA"/>
<stop offset="0.4768" stop-color="#8D5FF0"/>
<stop offset="1" stop-color="#B300D0"/>
</linearGradient>
<linearGradient id="paint5_linear_723_4307" x1="14.3991" y1="19.4677" x2="19.6278" y2="24.7036" gradientUnits="userSpaceOnUse">
<stop stop-color="#00DFF8"/>
<stop offset="0.1134" stop-color="#47AEFA"/>
<stop offset="0.4768" stop-color="#8D5FF0"/>
<stop offset="1" stop-color="#B300D0"/>
</linearGradient>
<linearGradient id="paint6_linear_723_4307" x1="18.1929" y1="12.1061" x2="23.6845" y2="6.60686" gradientUnits="userSpaceOnUse">
<stop stop-color="#00DFF8"/>
<stop offset="0.1134" stop-color="#47AEFA"/>
<stop offset="0.4768" stop-color="#8D5FF0"/>
<stop offset="1" stop-color="#B300D0"/>
</linearGradient>
</defs>
</svg>
