<svg xmlns="http://www.w3.org/2000/svg" xmlns:xlink="http://www.w3.org/1999/xlink" viewBox="0 0 809.99 287.99"><defs><style>.cls-1{fill:#90c;}.cls-2{fill:url(#radial-gradient);}.cls-3{fill:none;}.cls-4{fill:url(#radial-gradient-2);}.cls-5{fill:url(#radial-gradient-3);}.cls-6{fill:url(#linear-gradient);}.cls-7{fill:url(#linear-gradient-2);}.cls-8{fill:url(#linear-gradient-3);}.cls-9{fill:url(#linear-gradient-4);}</style><radialGradient id="radial-gradient" cx="2351.42" cy="-1140.72" r="0.41" gradientTransform="matrix(109.77, 109.77, 109.77, -109.77, -132758.95, -383178.62)" gradientUnits="userSpaceOnUse"><stop offset="0" stop-color="#71bcf8"/><stop offset="0.37" stop-color="#71adf8"/><stop offset="0.45" stop-color="#72a8f7"/><stop offset="0.55" stop-color="#759af5"/><stop offset="0.65" stop-color="#7a83f2"/><stop offset="0.76" stop-color="#8162ed"/><stop offset="0.77" stop-color="#825fed"/><stop offset="1" stop-color="#7000e0"/></radialGradient><radialGradient id="radial-gradient-2" cx="137.32" cy="142.8" r="47.79" gradientUnits="userSpaceOnUse"><stop offset="0.19" stop-color="#71d5f8"/><stop offset="0.27" stop-color="#72d0f8"/><stop offset="0.38" stop-color="#74c1f6"/><stop offset="0.5" stop-color="#77a8f4"/><stop offset="0.62" stop-color="#7c85f1"/><stop offset="0.73" stop-color="#825fed"/><stop offset="1" stop-color="#7000e0"/></radialGradient><radialGradient id="radial-gradient-3" cx="246.62" cy="217.46" r="29.43" gradientTransform="matrix(1.02, 0.02, -0.02, 1, -109.05, -79.13)" gradientUnits="userSpaceOnUse"><stop offset="0" stop-color="#95dbf7"/><stop offset="0.49" stop-color="#83a3f2"/><stop offset="0.5" stop-color="#82a1f2"/><stop offset="0.8" stop-color="#7476ee"/><stop offset="0.95" stop-color="#6f65ec"/></radialGradient><linearGradient id="linear-gradient" x1="122.38" y1="100.59" x2="77.92" y2="56.12" gradientUnits="userSpaceOnUse"><stop offset="0" stop-color="#71dff8"/><stop offset="0.11" stop-color="#71adf8"/><stop offset="0.48" stop-color="#825fed"/><stop offset="1" stop-color="#90c"/></linearGradient><linearGradient id="linear-gradient-2" x1="95.39" y1="155.95" x2="42.72" y2="208.63" xlink:href="#linear-gradient"/><linearGradient id="linear-gradient-3" x1="152.28" y1="186.17" x2="192.61" y2="226.51" xlink:href="#linear-gradient"/><linearGradient id="linear-gradient-4" x1="181.52" y1="129.39" x2="223.88" y2="87.02" xlink:href="#linear-gradient"/></defs><title>1112021 Lynkey logo edit</title><g id="OBJECTS"><path class="cls-1" d="M279.09,107.15h17.84a.32.32,0,0,1,.26.34v55.9h60.32a.25.25,0,0,1,.27.28v16.82c0,.23-.09.35-.27.35H279.09c-.18,0-.27-.12-.27-.35v-73C278.86,107.26,279,107.15,279.09,107.15Z"/><path class="cls-1" d="M339.3,107.15h18.1l21.22,29.32q20.5-28.69,21.1-29.32h18.11a.32.32,0,0,1,.27.34q-2.48,3.17-30.32,42.17v30.83c0,.23-.09.35-.27.35H369.62c-.18,0-.27-.12-.27-.35V149.66L339,107.35Z"/><path class="cls-1" d="M423.72,107.15h60.91q8.13,0,14.78,9.06a22,22,0,0,1,3,10.72v53.56c0,.23-.09.35-.27.35H484.25c-.18,0-.26-.12-.26-.35V137.85q0-9.75-6.54-12.71a9.7,9.7,0,0,0-2.84-.48H441.83v55.83c0,.23-.09.35-.27.35H423.72c-.18,0-.27-.12-.27-.35v-73C423.49,107.26,423.58,107.15,423.72,107.15Z"/><path class="cls-1" d="M511.51,107.15h17.84a.32.32,0,0,1,.27.34v29.33l35.73-29.67H590v.2q-2.29,2.34-30.21,25.21v.14L590,180.49v.21H566.53q-.37-.34-22.23-35l-14.68,12v22.73c0,.23-.09.35-.27.35H511.51c-.17,0-.26-.12-.26-.35v-73C511.28,107.26,511.37,107.15,511.51,107.15Z"/><path class="cls-1" d="M599.15,107.15h78.42a.32.32,0,0,1,.27.34v16.83c0,.23-.09.34-.27.34H599.15c-.18,0-.27-.11-.27-.34V107.49C598.92,107.26,599,107.15,599.15,107.15Zm0,28.84h78.42a.33.33,0,0,1,.27.35v15.31c0,.23-.09.34-.27.34H599.15c-.18,0-.27-.11-.27-.34V136.34C598.92,136.11,599,136,599.15,136Zm0,27.4h78.42a.25.25,0,0,1,.27.28v16.82c0,.23-.09.35-.27.35H599.15c-.18,0-.27-.12-.27-.35V163.67C598.92,163.49,599,163.39,599.15,163.39Z"/><path class="cls-1" d="M685.2,107.15h18.11l21.21,29.32q20.52-28.69,21.11-29.32h18.1a.32.32,0,0,1,.27.34q-2.46,3.17-30.32,42.17v30.83c0,.23-.09.35-.27.35H715.52c-.18,0-.27-.12-.27-.35V149.66l-30.31-42.31Z"/><rect class="cls-2" x="92.49" y="97.55" width="90.83" height="90.83" transform="translate(-60.7 139.39) rotate(-45)"/><polygon class="cls-3" points="202.4 144.07 138.59 207.88 73.68 142.96 137.91 78.74 202.4 144.07"/><rect class="cls-4" x="105.71" y="111.19" width="63.22" height="63.22"/><polygon class="cls-5" points="168.81 143.7 136.71 174.68 105.55 142.8 137.92 111.5 168.81 143.7"/><polygon class="cls-6" points="138.59 36 111.06 51.9 45 90.04 45 114.28 73.68 142.96 137.91 78.74 164.76 51.89 138.59 36"/><polyline class="cls-7" points="45 112.77 45 171.47 45 197.94 109.65 235.26 137.91 207.01"/><polygon class="cls-8" points="201.2 142.96 136.55 207.19 108.85 234.88 137.52 251.99 165.3 235.94 230.83 198.11 230.83 173.02 201.2 142.96"/><polyline class="cls-9" points="230.83 175.7 230.83 112.9 230.83 90.04 163.9 51.39 137.32 77.97"/></g></svg>