<svg xmlns="http://www.w3.org/2000/svg" width="18.641" height="22.912" viewBox="0 0 18.641 22.912">
  <g id="Group" transform="translate(-0.483 -0.458)">
    <path id="Path_500" data-name="Path 500" d="M16.053,14.065A5.206,5.206,0,0,1,18.532,9.7a5.332,5.332,0,0,0-4.2-2.27c-1.767-.186-3.48,1.057-4.38,1.057-.918,0-2.3-1.039-3.8-1.009a5.591,5.591,0,0,0-4.706,2.87c-2.035,3.523-.517,8.7,1.432,11.549.975,1.395,2.115,2.952,3.607,2.9,1.459-.06,2-.93,3.766-.93,1.745,0,2.257.93,3.778.9,1.566-.025,2.552-1.4,3.494-2.808a11.527,11.527,0,0,0,1.6-3.254A5.033,5.033,0,0,1,16.053,14.065Z" transform="translate(0 -1.422)"/>
    <path id="Path_501" data-name="Path 501" d="M15.563,4.13A5.125,5.125,0,0,0,16.736.458,5.22,5.22,0,0,0,13.361,2.2a4.877,4.877,0,0,0-1.2,3.537A4.312,4.312,0,0,0,15.563,4.13Z" transform="translate(-2.384)"/>
  </g>
</svg>
