<svg width="32" height="32" viewBox="0 0 32 32" fill="none" xmlns="http://www.w3.org/2000/svg">
<path d="M16 20C18.2091 20 20 18.2091 20 16C20 13.7909 18.2091 12 16 12C13.7909 12 12 13.7909 12 16C12 18.2091 13.7909 20 16 20Z" stroke="currentColor" stroke-width="1.6" stroke-linecap="round" stroke-linejoin="round"/>
<path d="M25.8666 20.0002C25.6891 20.4023 25.6362 20.8484 25.7146 21.2809C25.793 21.7135 25.9992 22.1126 26.3066 22.4268L26.3866 22.5068C26.6345 22.7545 26.8312 23.0486 26.9654 23.3723C27.0996 23.696 27.1687 24.0431 27.1687 24.3935C27.1687 24.7439 27.0996 25.0909 26.9654 25.4147C26.8312 25.7384 26.6345 26.0325 26.3866 26.2802C26.1389 26.5281 25.8448 26.7248 25.5211 26.859C25.1974 26.9932 24.8504 27.0623 24.4999 27.0623C24.1495 27.0623 23.8025 26.9932 23.4787 26.859C23.155 26.7248 22.8609 26.5281 22.6132 26.2802L22.5333 26.2002C22.219 25.8928 21.8199 25.6866 21.3874 25.6082C20.9548 25.5297 20.5087 25.5827 20.1066 25.7602C19.7122 25.9292 19.3759 26.2098 19.139 26.5675C18.9021 26.9253 18.775 27.3444 18.7733 27.7735V28.0002C18.7733 28.7074 18.4923 29.3857 17.9922 29.8858C17.4921 30.3859 16.8138 30.6668 16.1066 30.6668C15.3993 30.6668 14.7211 30.3859 14.221 29.8858C13.7209 29.3857 13.4399 28.7074 13.4399 28.0002V27.8802C13.4296 27.4388 13.2867 27.0108 13.0299 26.6518C12.7731 26.2927 12.4142 26.0192 11.9999 25.8668C11.5978 25.6893 11.1517 25.6364 10.7191 25.7148C10.2866 25.7932 9.88749 25.9994 9.57325 26.3068L9.49325 26.3868C9.24559 26.6348 8.95149 26.8315 8.62776 26.9657C8.30403 27.0999 7.95703 27.1689 7.60658 27.1689C7.25614 27.1689 6.90914 27.0999 6.58541 26.9657C6.26168 26.8315 5.96758 26.6348 5.71992 26.3868C5.47198 26.1392 5.27529 25.8451 5.14109 25.5213C5.00689 25.1976 4.93782 24.8506 4.93782 24.5002C4.93782 24.1497 5.00689 23.8027 5.14109 23.479C5.27529 23.1553 5.47198 22.8612 5.71992 22.6135L5.79992 22.5335C6.1073 22.2193 6.3135 21.8201 6.39192 21.3876C6.47035 20.9551 6.41741 20.509 6.23992 20.1068C6.0709 19.7125 5.79026 19.3761 5.43254 19.1392C5.07482 18.9023 4.65563 18.7752 4.22659 18.7735H3.99992C3.29267 18.7735 2.6144 18.4925 2.1143 17.9924C1.6142 17.4923 1.33325 16.8141 1.33325 16.1068C1.33325 15.3996 1.6142 14.7213 2.1143 14.2212C2.6144 13.7211 3.29267 13.4402 3.99992 13.4402H4.11992C4.56124 13.4298 4.98926 13.287 5.34832 13.0302C5.70738 12.7734 5.98087 12.4145 6.13325 12.0002C6.31074 11.598 6.36368 11.1519 6.28526 10.7194C6.20683 10.2869 6.00063 9.88773 5.69325 9.5735L5.61325 9.4935C5.36531 9.24583 5.16862 8.95173 5.03443 8.628C4.90023 8.30427 4.83115 7.95727 4.83115 7.60683C4.83115 7.25639 4.90023 6.90938 5.03443 6.58565C5.16862 6.26193 5.36531 5.96782 5.61325 5.72016C5.86091 5.47223 6.15502 5.27553 6.47874 5.14134C6.80247 5.00714 7.14948 4.93806 7.49992 4.93806C7.85036 4.93806 8.19736 5.00714 8.52109 5.14134C8.84482 5.27553 9.13892 5.47223 9.38658 5.72016L9.46658 5.80016C9.78082 6.10754 10.1799 6.31374 10.6125 6.39217C11.045 6.47059 11.4911 6.41765 11.8933 6.24016H11.9999C12.3943 6.07115 12.7306 5.7905 12.9675 5.43278C13.2044 5.07506 13.3315 4.65588 13.3333 4.22683V4.00016C13.3333 3.29292 13.6142 2.61464 14.1143 2.11454C14.6144 1.61445 15.2927 1.3335 15.9999 1.3335C16.7072 1.3335 17.3854 1.61445 17.8855 2.11454C18.3856 2.61464 18.6666 3.29292 18.6666 4.00016V4.12016C18.6683 4.54921 18.7954 4.9684 19.0323 5.32612C19.2692 5.68384 19.6056 5.96448 19.9999 6.1335C20.4021 6.31098 20.8482 6.36393 21.2807 6.2855C21.7132 6.20708 22.1123 6.00088 22.4266 5.6935L22.5066 5.6135C22.7542 5.36556 23.0483 5.16887 23.3721 5.03467C23.6958 4.90047 24.0428 4.8314 24.3933 4.8314C24.7437 4.8314 25.0907 4.90047 25.4144 5.03467C25.7382 5.16887 26.0323 5.36556 26.2799 5.6135C26.5279 5.86116 26.7245 6.15526 26.8587 6.47899C26.9929 6.80272 27.062 7.14972 27.062 7.50016C27.062 7.8506 26.9929 8.19761 26.8587 8.52134C26.7245 8.84506 26.5279 9.13917 26.2799 9.38683L26.1999 9.46683C25.8925 9.78107 25.6863 10.1802 25.6079 10.6127C25.5295 11.0452 25.5824 11.4913 25.7599 11.8935V12.0002C25.9289 12.3945 26.2096 12.7309 26.5673 12.9678C26.925 13.2047 27.3442 13.3318 27.7733 13.3335H27.9999C28.7072 13.3335 29.3854 13.6144 29.8855 14.1145C30.3856 14.6146 30.6666 15.2929 30.6666 16.0002C30.6666 16.7074 30.3856 17.3857 29.8855 17.8858C29.3854 18.3859 28.7072 18.6668 27.9999 18.6668H27.8799C27.4509 18.6685 27.0317 18.7957 26.674 19.0326C26.3162 19.2695 26.0356 19.6058 25.8666 20.0002V20.0002Z" stroke="currentColor" stroke-width="1.6" stroke-linecap="round" stroke-linejoin="round"/>
</svg>
