<svg width="66" height="66" viewBox="0 0 66 66" fill="none" xmlns="http://www.w3.org/2000/svg">
<g filter="url(#filter0_d_1118_22733)">
<circle cx="33" cy="29" r="29" transform="rotate(90 33 29)" fill="white" fill-opacity="0.5"/>
<path d="M39.1297 29.0001C39.1197 28.6485 38.9891 28.3271 38.7078 28.0659L30.8931 20.432C30.6721 20.211 30.3909 20.0905 30.0594 20.0905C29.3964 20.0905 28.8641 20.6128 28.8641 21.2757C28.8641 21.5972 28.9947 21.9086 29.2257 22.1396L36.267 28.99L29.2257 35.8606C29.0047 36.0916 28.8641 36.3929 28.8641 36.7244C28.8641 37.3873 29.3964 37.9097 30.0594 37.9097C30.3909 37.9097 30.6721 37.7891 30.8931 37.5682L38.7078 29.9242C38.9891 29.653 39.1297 29.3516 39.1297 29.0001Z" fill="url(#paint0_linear_1118_22733)"/>
</g>
<defs>
<filter id="filter0_d_1118_22733" x="0" y="0" width="66" height="66" filterUnits="userSpaceOnUse" color-interpolation-filters="sRGB">
<feFlood flood-opacity="0" result="BackgroundImageFix"/>
<feColorMatrix in="SourceAlpha" type="matrix" values="0 0 0 0 0 0 0 0 0 0 0 0 0 0 0 0 0 0 127 0" result="hardAlpha"/>
<feOffset dy="4"/>
<feGaussianBlur stdDeviation="2"/>
<feComposite in2="hardAlpha" operator="out"/>
<feColorMatrix type="matrix" values="0 0 0 0 0 0 0 0 0 0 0 0 0 0 0 0 0 0 0.1 0"/>
<feBlend mode="normal" in2="BackgroundImageFix" result="effect1_dropShadow_1118_22733"/>
<feBlend mode="normal" in="SourceGraphic" in2="effect1_dropShadow_1118_22733" result="shape"/>
</filter>
<linearGradient id="paint0_linear_1118_22733" x1="39.1297" y1="37.9097" x2="24.3536" y2="26.6667" gradientUnits="userSpaceOnUse">
<stop offset="0.411458" stop-color="#9D3EF2"/>
<stop offset="1" stop-color="#3036F4"/>
</linearGradient>
</defs>
</svg>
