<svg width="160" height="160" viewBox="0 0 160 160" fill="none" xmlns="http://www.w3.org/2000/svg">
<path d="M18.3245 70.0311C18.3245 70.0311 45.6248 68.9379 51.5244 24.062C56.7635 -15.792 102.799 2.34811 116.106 18.2349C133.344 38.8148 124.155 74.2167 146.455 78.689C168.754 83.1613 154.192 132.885 120.343 128.126C78.2348 122.205 88.4224 146.811 75.7819 157.225C66.7101 164.7 29.5122 157.505 28.2724 130.371C27.2292 107.539 17.5981 107.612 10.7715 105.023C0.926035 101.289 -5.27771 74.2474 18.3245 70.0311Z" fill="#EEF5FF"/>
<path d="M111.13 119.869L84.3086 93.3652L78.9975 98.7401L105.819 125.244L111.13 119.869Z" fill="#9CB5E7"/>
<path d="M121.376 126.99L100.508 106.37C100.392 106.255 100.205 106.256 100.09 106.372L92.1918 114.365C92.077 114.482 92.0782 114.669 92.1943 114.784L113.062 135.403C113.178 135.518 113.365 135.517 113.48 135.401L121.378 127.408C121.493 127.292 121.492 127.105 121.376 126.99Z" fill="#A5CAFB"/>
<path d="M60.5362 106.694C78.9888 106.694 93.9475 91.7354 93.9475 73.2828C93.9475 54.8303 78.9888 39.8716 60.5362 39.8716C42.0837 39.8716 27.125 54.8303 27.125 73.2828C27.125 91.7354 42.0837 106.694 60.5362 106.694Z" fill="#A5CAFB"/>
<path d="M60.5357 101.243C75.9774 101.243 88.4953 88.7249 88.4953 73.2833C88.4953 57.8417 75.9774 45.3237 60.5357 45.3237C45.0941 45.3237 32.5762 57.8417 32.5762 73.2833C32.5762 88.7249 45.0941 101.243 60.5357 101.243Z" fill="#EEF5FF"/>
<path d="M54.1521 121.629C52.6636 122.389 51.4339 123.574 50.6183 125.033C49.8028 126.492 49.4382 128.16 49.5705 129.826C49.7028 131.492 50.3262 133.082 51.3618 134.394C52.3973 135.706 53.7986 136.681 55.3884 137.196C56.9782 137.712 58.6851 137.744 60.2932 137.289C61.9013 136.834 63.3384 135.912 64.4229 134.641C65.5073 133.369 66.1903 131.804 66.3855 130.144C66.5807 128.484 66.2794 126.803 65.5196 125.314C64.499 123.32 62.7289 121.812 60.5978 121.121C58.4667 120.43 56.1486 120.613 54.1521 121.629ZM56.1202 125.486C56.5838 125.249 57.1073 125.155 57.6242 125.216C58.1411 125.278 58.6281 125.491 59.0236 125.83C59.419 126.168 59.705 126.617 59.8453 127.118C59.9856 127.619 59.9738 128.151 59.8115 128.646C59.6492 129.14 59.3437 129.576 58.9337 129.896C58.5236 130.217 58.0276 130.409 57.5085 130.447C56.9894 130.486 56.4706 130.369 56.0179 130.112C55.5653 129.855 55.1991 129.469 54.9659 129.004C54.6568 128.383 54.6046 127.666 54.8207 127.007C55.0368 126.349 55.5037 125.802 56.1202 125.485V125.486ZM61.0446 135.135C59.6703 135.839 58.094 136.043 56.5857 135.713C57.0616 133.984 58.0397 132.657 59.4206 131.952C60.8016 131.247 62.4578 131.208 64.1287 131.862C63.5113 133.278 62.421 134.434 61.0446 135.134V135.135Z" fill="#B2D3FF"/>
<path d="M134.394 112.259C140.421 112.259 145.308 107.373 145.308 101.345C145.308 95.3171 140.421 90.4307 134.394 90.4307C128.366 90.4307 123.479 95.3171 123.479 101.345C123.479 107.373 128.366 112.259 134.394 112.259Z" fill="#B2D3FF"/>
<path d="M138.598 100.431H135.49C135.466 100.431 135.442 100.426 135.42 100.417C135.398 100.408 135.378 100.394 135.361 100.377C135.344 100.36 135.33 100.34 135.321 100.318C135.312 100.296 135.307 100.272 135.307 100.248V97.1402C135.305 96.8991 135.208 96.6686 135.037 96.4989C134.866 96.3291 134.634 96.2339 134.393 96.2339C134.152 96.2339 133.921 96.3291 133.75 96.4989C133.578 96.6686 133.481 96.8991 133.479 97.1402V100.248C133.479 100.296 133.46 100.343 133.426 100.377C133.391 100.412 133.345 100.431 133.296 100.431H130.188C129.946 100.431 129.714 100.527 129.542 100.699C129.371 100.87 129.274 101.102 129.274 101.345C129.274 101.587 129.371 101.82 129.542 101.991C129.714 102.163 129.946 102.259 130.188 102.259H133.296C133.32 102.259 133.344 102.264 133.366 102.273C133.388 102.282 133.409 102.296 133.426 102.312C133.443 102.329 133.456 102.35 133.465 102.372C133.474 102.394 133.479 102.418 133.479 102.442V105.55C133.481 105.791 133.578 106.021 133.75 106.191C133.921 106.361 134.152 106.456 134.393 106.456C134.634 106.456 134.866 106.361 135.037 106.191C135.208 106.021 135.305 105.791 135.307 105.55V102.442C135.307 102.418 135.312 102.394 135.321 102.372C135.33 102.35 135.344 102.329 135.361 102.312C135.378 102.296 135.398 102.282 135.42 102.273C135.442 102.264 135.466 102.259 135.49 102.259H138.598C138.84 102.259 139.073 102.163 139.244 101.991C139.416 101.82 139.512 101.587 139.512 101.345C139.512 101.102 139.416 100.87 139.244 100.699C139.073 100.527 138.84 100.431 138.598 100.431Z" fill="white"/>
<path d="M109.008 43.6172C107.685 49.2008 111.138 54.7992 116.722 56.1225C118.022 56.4328 119.369 56.4879 120.69 56.2845C120.714 56.2933 120.738 56.3007 120.763 56.3066L125.188 57.3553C125.33 57.3891 125.478 57.3945 125.623 57.3713C125.767 57.348 125.906 57.2965 126.03 57.2196C126.155 57.1428 126.263 57.0422 126.349 56.9235C126.434 56.8049 126.496 56.6705 126.529 56.5281L127.598 52.0184C128.369 50.9316 128.922 49.706 129.227 48.409C130.55 42.8254 127.097 37.227 121.514 35.9037C115.93 34.5804 110.332 38.0336 109.008 43.6172Z" fill="#A5CAFB"/>
<path d="M125.042 39.5658C123.368 46.6275 116.288 50.9947 109.226 49.3212C107.581 48.9342 106.027 48.2316 104.65 47.2522C104.618 47.2484 104.586 47.2428 104.554 47.2353L98.958 45.9091C98.7779 45.8665 98.6079 45.7889 98.4578 45.6805C98.3077 45.5722 98.1805 45.4354 98.0833 45.2779C97.9862 45.1203 97.921 44.9452 97.8916 44.7625C97.8621 44.5798 97.869 44.393 97.9118 44.2129L99.2635 38.5095C99.0092 36.8438 99.0797 35.1446 99.4709 33.5057C101.144 26.444 108.225 22.0767 115.286 23.7503C122.348 25.4239 126.715 32.5042 125.042 39.5658Z" fill="#B2D3FF"/>
<path d="M105.378 37.732C106.363 37.9656 107.351 37.3561 107.585 36.3708C107.818 35.3856 107.209 34.3975 106.223 34.164C105.238 33.9305 104.25 34.5399 104.017 35.5252C103.783 36.5105 104.393 37.4985 105.378 37.732Z" fill="white"/>
<path d="M110.73 39.0001C111.716 39.2336 112.704 38.6242 112.937 37.6389C113.171 36.6536 112.561 35.6656 111.576 35.4321C110.591 35.1986 109.603 35.808 109.369 36.7933C109.136 37.7786 109.745 38.7666 110.73 39.0001Z" fill="white"/>
<path d="M116.38 40.3396C117.53 40.612 118.651 40.0342 118.884 39.0489C119.118 38.0636 118.375 37.044 117.226 36.7716C116.076 36.4992 114.955 37.0771 114.722 38.0623C114.488 39.0476 115.231 40.0672 116.38 40.3396Z" fill="white"/>
</svg>
