<svg width="21" height="21" viewBox="0 0 21 21" fill="none" xmlns="http://www.w3.org/2000/svg">
<path d="M20.5958 14.8596C19.6901 14.0081 17.9956 12.7271 17.9956 8.53125C17.9956 5.34434 15.4418 2.79316 11.9984 2.16727V1.3125C11.9984 0.587754 11.3272 0 10.4993 0C9.67153 0 9.00028 0.587754 9.00028 1.3125V2.16727C5.55685 2.79316 3.0031 5.34434 3.0031 8.53125C3.0031 12.7271 1.30856 14.0081 0.402939 14.8596C0.121689 15.1241 -0.00299799 15.4403 -0.000654237 15.75C0.00450201 16.4227 0.607783 17.0625 1.50403 17.0625H19.4947C20.3909 17.0625 20.9947 16.4227 20.9993 15.75C21.0017 15.4403 20.877 15.1237 20.5958 14.8596ZM3.16481 15.0938C4.1595 13.9465 5.247 12.0451 5.25216 8.55504C5.25216 8.54684 5.24935 8.53945 5.24935 8.53125C5.24935 5.99402 7.59966 3.9375 10.4993 3.9375C13.399 3.9375 15.7493 5.99402 15.7493 8.53125C15.7493 8.53945 15.7465 8.54684 15.7465 8.55504C15.7517 12.0455 16.8392 13.947 17.8339 15.0938H3.16481ZM10.4993 21C12.155 21 13.4979 19.8249 13.4979 18.375H7.50075C7.50075 19.8249 8.84372 21 10.4993 21Z" fill="#E27E21"/>
</svg>
