<svg width="21" height="20" viewBox="0 0 21 20" fill="none" xmlns="http://www.w3.org/2000/svg">
<path d="M16.4286 7.42847C16.4286 5.83717 15.7964 4.31104 14.6712 3.18583C13.546 2.06061 12.0199 1.42847 10.4286 1.42847C8.83729 1.42847 7.31117 2.06061 6.18595 3.18583C5.06073 4.31104 4.42859 5.83717 4.42859 7.42847C4.42859 14.4285 1.42859 16.4285 1.42859 16.4285H19.4286C19.4286 16.4285 16.4286 14.4285 16.4286 7.42847Z" stroke="#605E5C" stroke-width="1.6" stroke-linecap="round" stroke-linejoin="round"/>
<path d="M12.1586 17.9712C11.9828 18.2743 11.7305 18.5258 11.4268 18.7007C11.1232 18.8756 10.779 18.9676 10.4286 18.9676C10.0782 18.9676 9.734 18.8756 9.43038 18.7007C9.12677 18.5258 8.87442 18.2743 8.69861 17.9712" stroke="#605E5C" stroke-width="1.6" stroke-linecap="round" stroke-linejoin="round"/>
</svg>
