<svg width="25" height="24" viewBox="0 0 25 24" fill="none" xmlns="http://www.w3.org/2000/svg">
<path d="M18.4286 9.42871C18.4286 7.83741 17.7964 6.31129 16.6712 5.18607C15.546 4.06085 14.0199 3.42871 12.4286 3.42871C10.8373 3.42871 9.31117 4.06085 8.18595 5.18607C7.06073 6.31129 6.42859 7.83741 6.42859 9.42871C6.42859 16.4287 3.42859 18.4287 3.42859 18.4287H21.4286C21.4286 18.4287 18.4286 16.4287 18.4286 9.42871Z" stroke="#5B616E" stroke-width="1.6" stroke-linecap="round" stroke-linejoin="round"/>
<path d="M14.1586 19.9717C13.9828 20.2748 13.7305 20.5263 13.4268 20.7012C13.1232 20.8761 12.779 20.9681 12.4286 20.9681C12.0782 20.9681 11.734 20.8761 11.4304 20.7012C11.1268 20.5263 10.8744 20.2748 10.6986 19.9717" stroke="#5B616E" stroke-width="1.6" stroke-linecap="round" stroke-linejoin="round"/>
<circle cx="21" cy="6" r="4" fill="#0151FC"/>
</svg>
