<svg width="27" height="19" viewBox="0 0 27 19" fill="none" xmlns="http://www.w3.org/2000/svg">
<path d="M24.7556 11.1818L26.9715 3.46301C27.1315 2.9057 26.5965 2.375 25.8745 2.375H7.46287L7.03322 0.712129C6.92616 0.297654 6.46547 0 5.93105 0H1.125C0.503672 0 0 0.39874 0 0.890625V1.48438C0 1.97626 0.503672 2.375 1.125 2.375H4.40077L7.69364 15.1197C6.90586 15.4783 6.375 16.1508 6.375 16.9219C6.375 18.0696 7.55025 19 9 19C10.4497 19 11.625 18.0696 11.625 16.9219C11.625 16.3402 11.3228 15.8147 10.8364 15.4375H20.6636C20.1772 15.8147 19.875 16.3402 19.875 16.9219C19.875 18.0696 21.0502 19 22.5 19C23.9498 19 25.125 18.0696 25.125 16.9219C25.125 16.0991 24.5209 15.3881 23.6447 15.0514L23.9033 14.1505C24.0633 13.5932 23.5282 13.0625 22.8063 13.0625H10.2242L9.91744 11.875H23.6586C24.1839 11.875 24.6392 11.5873 24.7556 11.1818Z" fill="#E27E21"/>
</svg>
