<svg width="37" height="48" viewBox="0 0 37 48" fill="none" xmlns="http://www.w3.org/2000/svg">
<path d="M36.598 42V13.5L23.0246 0H6.43495C4.83501 0 3.30059 0.632141 2.16925 1.75736C1.03792 2.88257 0.402344 4.4087 0.402344 5.99999V42C0.402344 43.5913 1.03792 45.1174 2.16925 46.2426C3.30059 47.3678 4.83501 48 6.43495 48H30.5654C32.1653 48 33.6998 47.3678 34.8311 46.2426C35.9624 45.1174 36.598 43.5913 36.598 42ZM23.0246 8.99999C23.0246 10.1935 23.5013 11.3381 24.3498 12.182C25.1983 13.0259 26.3491 13.5 27.5491 13.5H33.5817V42C33.5817 42.7956 33.2639 43.5587 32.6982 44.1213C32.1326 44.6839 31.3654 45 30.5654 45H6.43495C5.63498 45 4.86777 44.6839 4.3021 44.1213C3.73644 43.5587 3.41865 42.7956 3.41865 42V5.99999C3.41865 5.20435 3.73644 4.44128 4.3021 3.87868C4.86777 3.31607 5.63498 3 6.43495 3H23.0246V8.99999Z" fill="#EA4335"/>
<path d="M8.25506 42.259C7.66716 42.0251 7.19351 41.5734 6.93392 40.999C6.34574 39.835 6.5418 38.671 7.17522 37.693C7.77245 36.772 8.7618 35.989 9.88085 35.332C11.2983 34.5324 12.7967 33.8838 14.351 33.397C15.5581 31.2388 16.628 29.0074 17.5543 26.716C17.0005 25.4643 16.5662 24.1636 16.2573 22.831C15.9979 21.631 15.8984 20.443 16.1186 19.423C16.3448 18.361 16.945 17.407 18.0792 16.954C18.6583 16.723 19.2857 16.594 19.895 16.723C20.2015 16.7879 20.4896 16.9198 20.7385 17.1092C20.9873 17.2986 21.1907 17.5407 21.3338 17.818C21.5992 18.31 21.6957 18.886 21.7168 19.432C21.7379 19.996 21.6806 20.62 21.5751 21.274C21.3217 22.804 20.7607 24.676 20.0066 26.656C20.8388 28.4261 21.828 30.1188 22.9626 31.714C24.3051 31.6085 25.6555 31.6589 26.9863 31.864C28.0842 32.062 29.2003 32.449 29.882 33.259C30.2439 33.691 30.4641 34.219 30.4852 34.813C30.5063 35.389 30.3435 35.959 30.069 36.502C29.8312 37.0052 29.4626 37.436 29.0012 37.75C28.5451 38.0459 28.0067 38.1908 27.4629 38.164C26.4645 38.122 25.4902 37.576 24.6487 36.913C23.6254 36.0715 22.7033 35.1151 21.9008 34.063C19.8611 34.2932 17.8455 34.7008 15.8773 35.281C14.9759 36.8709 13.947 38.3858 12.8006 39.811C11.9199 40.861 10.9637 41.779 10.0045 42.172C9.4534 42.42 8.8283 42.451 8.25506 42.259ZM12.4145 36.556C11.9138 36.784 11.4493 37.024 11.0301 37.27C10.0407 37.852 9.39824 38.419 9.07851 38.911C8.79498 39.346 8.78895 39.661 8.95786 39.994C8.98802 40.06 9.01819 40.102 9.03628 40.126C9.07227 40.1164 9.10755 40.1044 9.14185 40.09C9.55509 39.922 10.2126 39.385 11.0572 38.374C11.5375 37.7891 11.9905 37.1824 12.4145 36.556ZM17.3613 32.566C18.3685 32.3322 19.3848 32.139 20.4078 31.987C19.8585 31.1511 19.3453 30.2923 18.8694 29.413C18.3963 30.4768 17.8934 31.5272 17.3613 32.563V32.566ZM24.7392 33.916C25.1916 34.405 25.632 34.816 26.0513 35.146C26.7752 35.716 27.2789 35.905 27.5534 35.914C27.6269 35.9236 27.7014 35.9077 27.7645 35.869C27.89 35.7704 27.9877 35.6412 28.048 35.494C28.1553 35.3113 28.2164 35.1054 28.226 34.894C28.2243 34.8235 28.1963 34.7562 28.1476 34.705C27.9907 34.519 27.5443 34.249 26.5851 34.078C25.975 33.9765 25.3577 33.9233 24.7392 33.919V33.916ZM18.7367 23.398C18.9906 22.5836 19.1921 21.7539 19.34 20.914C19.4335 20.35 19.4697 19.885 19.4546 19.519C19.4554 19.3171 19.4228 19.1164 19.3581 18.925C19.2072 18.9436 19.0598 18.984 18.9207 19.045C18.6583 19.15 18.4441 19.363 18.3295 19.894C18.2089 20.47 18.239 21.301 18.4683 22.36C18.5407 22.693 18.6311 23.041 18.7397 23.398H18.7367Z" fill="#EA4335"/>
</svg>
