<svg width="56" height="56" viewBox="0 0 56 56" fill="none" xmlns="http://www.w3.org/2000/svg">
<rect width="56" height="56" rx="5.6" fill="#F3F2F1"/>
<path d="M36.8276 7H19.5549C17.647 7 16.1003 8.8804 16.1003 11.2V44.8C16.1003 47.1196 17.647 49 19.5549 49H36.8276C38.7355 49 40.2822 47.1196 40.2822 44.8V11.2C40.2822 8.8804 38.7355 7 36.8276 7Z" stroke="#5B616E" stroke-width="1.4" stroke-linecap="round" stroke-linejoin="round"/>
<path d="M28.1909 45.1816H28.2116" stroke="#5B616E" stroke-width="2.54545" stroke-linecap="round" stroke-linejoin="round"/>
<line x1="16.0999" y1="41.3" x2="40.2817" y2="41.3" stroke="#5B616E" stroke-width="1.4"/>
<line x1="16.0999" y1="12.6006" x2="40.2817" y2="12.6006" stroke="#5B616E" stroke-width="1.52727"/>
<rect x="24.3727" y="8.9082" width="7.63636" height="0.636364" rx="0.318182" fill="#5B616E"/>
<path d="M24.1815 28.9223C24.1815 29.4253 24.0001 29.8216 23.6373 30.1112C23.277 30.4008 22.7746 30.5456 22.1302 30.5456C21.5365 30.5456 21.0113 30.4339 20.5546 30.2103V29.1129C20.9301 29.2805 21.2472 29.3987 21.506 29.4672C21.7674 29.5358 22.0058 29.5701 22.2215 29.5701C22.4803 29.5701 22.6782 29.5206 22.8152 29.4215C22.9548 29.3224 23.0245 29.1751 23.0245 28.9795C23.0245 28.8703 22.9941 28.7737 22.9332 28.6899C22.8723 28.6035 22.7822 28.521 22.663 28.4422C22.5463 28.3635 22.3065 28.2377 21.9437 28.065C21.6037 27.9049 21.3487 27.7512 21.1787 27.6039C21.0087 27.4565 20.873 27.2851 20.7715 27.0895C20.67 26.8938 20.6193 26.6652 20.6193 26.4036C20.6193 25.9107 20.7855 25.5233 21.1178 25.2413C21.4527 24.9594 21.9145 24.8184 22.5031 24.8184C22.7924 24.8184 23.0677 24.8527 23.329 24.9212C23.5929 24.9898 23.8682 25.0864 24.1549 25.2108L23.7743 26.1292C23.4774 26.0073 23.2313 25.9222 23.036 25.8739C22.8431 25.8256 22.6528 25.8015 22.4651 25.8015C22.2418 25.8015 22.0705 25.8536 21.9513 25.9577C21.832 26.0619 21.7724 26.1978 21.7724 26.3654C21.7724 26.4696 21.7965 26.5611 21.8447 26.6398C21.8929 26.716 21.9691 26.791 22.0731 26.8646C22.1796 26.9358 22.4296 27.0653 22.8228 27.2533C23.343 27.5023 23.6994 27.7525 23.8923 28.004C24.0851 28.2529 24.1815 28.5591 24.1815 28.9223Z" fill="#5B616E"/>
<path d="M27.5458 30.4694L26.2062 26.0987H26.1719C26.2202 26.9878 26.2443 27.581 26.2443 27.8782V30.4694H25.19V24.8984H26.7961L28.1129 29.1586H28.1357L29.5325 24.8984H31.1385V30.4694H30.0387V27.8325C30.0387 27.708 30.0399 27.5645 30.0425 27.4019C30.0475 27.2393 30.0653 26.8075 30.0957 26.1063H30.0615L28.6267 30.4694H27.5458Z" fill="#5B616E"/>
<path d="M35.8273 28.9223C35.8273 29.4253 35.6459 29.8216 35.2831 30.1112C34.9228 30.4008 34.4204 30.5456 33.776 30.5456C33.1823 30.5456 32.6571 30.4339 32.2004 30.2103V29.1129C32.5759 29.2805 32.893 29.3987 33.1518 29.4672C33.4131 29.5358 33.6516 29.5701 33.8673 29.5701C34.1261 29.5701 34.324 29.5206 34.461 29.4215C34.6006 29.3224 34.6703 29.1751 34.6703 28.9795C34.6703 28.8703 34.6399 28.7737 34.579 28.6899C34.5181 28.6035 34.428 28.521 34.3088 28.4422C34.1921 28.3635 33.9523 28.2377 33.5895 28.065C33.2495 27.9049 32.9945 27.7512 32.8245 27.6039C32.6545 27.4565 32.5188 27.2851 32.4173 27.0895C32.3158 26.8938 32.2651 26.6652 32.2651 26.4036C32.2651 25.9107 32.4312 25.5233 32.7636 25.2413C33.0985 24.9594 33.5603 24.8184 34.1489 24.8184C34.4382 24.8184 34.7135 24.8527 34.9748 24.9212C35.2387 24.9898 35.5139 25.0864 35.8007 25.2108L35.4201 26.1292C35.1232 26.0073 34.8771 25.9222 34.6817 25.8739C34.4889 25.8256 34.2986 25.8015 34.1109 25.8015C33.8876 25.8015 33.7163 25.8536 33.5971 25.9577C33.4778 26.0619 33.4182 26.1978 33.4182 26.3654C33.4182 26.4696 33.4423 26.5611 33.4905 26.6398C33.5387 26.716 33.6148 26.791 33.7189 26.8646C33.8254 26.9358 34.0753 27.0653 34.4686 27.2533C34.9887 27.5023 35.3452 27.7525 35.5381 28.004C35.7309 28.2529 35.8273 28.5591 35.8273 28.9223Z" fill="#5B616E"/>
</svg>
