<svg width="26" height="44" viewBox="0 0 26 44" fill="none" xmlns="http://www.w3.org/2000/svg">
<path d="M21.8272 1H4.55452C2.64663 1 1.09998 2.8804 1.09998 5.2V38.8C1.09998 41.1196 2.64663 43 4.55452 43H21.8272C23.7351 43 25.2818 41.1196 25.2818 38.8V5.2C25.2818 2.8804 23.7351 1 21.8272 1Z" stroke="#5B616E" stroke-width="1.4" stroke-linecap="round" stroke-linejoin="round"/>
<path d="M13.1908 39.1807H13.2124" stroke="#5B616E" stroke-width="2.54545" stroke-linecap="round" stroke-linejoin="round"/>
<line x1="1.1001" y1="35.3" x2="25.2819" y2="35.3" stroke="#5B616E" stroke-width="1.4"/>
<line x1="1.1001" y1="6.59867" x2="25.2819" y2="6.59867" stroke="#5B616E" stroke-width="1.52727"/>
<rect x="9.37256" y="2.9082" width="7.63636" height="0.636364" rx="0.318182" fill="#5B616E"/>
<rect x="5.55481" y="21.3633" width="2.54545" height="1.27273" rx="0.636364" fill="#5B616E"/>
<rect x="14.4639" y="21.3633" width="2.54545" height="1.27273" rx="0.636364" fill="#5B616E"/>
<rect x="10.0092" y="21.3633" width="2.54545" height="1.27273" rx="0.636364" fill="#5B616E"/>
<rect x="18.918" y="21.3633" width="2.54545" height="1.27273" rx="0.636364" fill="#5B616E"/>
</svg>
