<svg width="48" height="48" viewBox="0 0 48 48" fill="none" xmlns="http://www.w3.org/2000/svg">
<circle cx="24" cy="24" r="24" fill="#FD8F00"/>
<path d="M25.1667 17H22.8334V18.1667C22.8334 18.4761 22.9563 18.7728 23.1751 18.9916C23.3939 19.2104 23.6906 19.3333 24 19.3333C24.3095 19.3333 24.6062 19.2104 24.825 18.9916C25.0438 18.7728 25.1667 18.4761 25.1667 18.1667V17Z" fill="white"/>
<path fill-rule="evenodd" clip-rule="evenodd" d="M17 12.333V14.6663H18.1667V18.1663C18.1667 19.7134 18.7812 21.1972 19.8752 22.2911C20.9692 23.3851 22.4529 23.9997 24 23.9997C22.4529 23.9997 20.9692 24.6143 19.8752 25.7082C18.7812 26.8022 18.1667 28.2859 18.1667 29.833V33.333H17V35.6663H31V33.333H29.8333V29.833C29.8333 28.2859 29.2188 26.8022 28.1248 25.7082C27.0308 24.6143 25.5471 23.9997 24 23.9997C24.766 23.9997 25.5246 23.8488 26.2323 23.5556C26.9401 23.2625 27.5831 22.8328 28.1248 22.2911C28.6665 21.7495 29.0961 21.1064 29.3893 20.3987C29.6824 19.6909 29.8333 18.9324 29.8333 18.1663V14.6663H31V12.333H17ZM20.5 14.6663H27.5V18.1663C27.5 19.0946 27.1313 19.9848 26.4749 20.6412C25.8185 21.2976 24.9283 21.6663 24 21.6663C23.0717 21.6663 22.1815 21.2976 21.5251 20.6412C20.8687 19.9848 20.5 19.0946 20.5 18.1663V14.6663ZM20.5 29.833V33.333H27.5V29.833C27.5 28.9048 27.1313 28.0145 26.4749 27.3581C25.8185 26.7018 24.9283 26.333 24 26.333C23.0717 26.333 22.1815 26.7018 21.5251 27.3581C20.8687 28.0145 20.5 28.9048 20.5 29.833Z" fill="white"/>
</svg>
