<svg width="36" height="37" viewBox="0 0 36 37" fill="none" xmlns="http://www.w3.org/2000/svg">
<g clip-path="url(#clip0_7939_9637)">
<path d="M18 36.8672C27.9411 36.8672 36 28.8083 36 18.8672C36 8.92606 27.9411 0.867188 18 0.867188C8.05887 0.867188 0 8.92606 0 18.8672C0 28.8083 8.05887 36.8672 18 36.8672Z" fill="#FF4500"/>
<path d="M29.9999 18.8676C29.9999 17.415 28.8209 16.236 27.3683 16.236C26.6525 16.236 26.0209 16.5097 25.5578 16.9729C23.7683 15.6887 21.2841 14.8466 18.5473 14.7413L19.7473 9.12024L23.642 9.94129C23.6841 10.9308 24.5052 11.7308 25.5157 11.7308C26.5473 11.7308 27.3894 10.8887 27.3894 9.85708C27.3894 8.82551 26.5473 7.9834 25.5157 7.9834C24.7788 7.9834 24.1473 8.40445 23.8525 9.03603L19.4946 8.10972C19.3683 8.08866 19.242 8.10971 19.1367 8.17287C19.0315 8.23603 18.9683 8.34129 18.9262 8.46761L17.5999 14.7413C14.7999 14.8255 12.2946 15.6466 10.4841 16.9729C10.0209 16.5308 9.36831 16.236 8.67357 16.236C7.22094 16.236 6.04199 17.415 6.04199 18.8676C6.04199 19.9413 6.67357 20.8466 7.59989 21.2676C7.55778 21.5202 7.53673 21.7939 7.53673 22.0676C7.53673 26.1097 12.2315 29.3729 18.042 29.3729C23.8525 29.3729 28.5473 26.1097 28.5473 22.0676C28.5473 21.7939 28.5262 21.5413 28.4841 21.2887C29.3473 20.8676 29.9999 19.9413 29.9999 18.8676ZM11.9999 20.7413C11.9999 19.7097 12.842 18.8676 13.8736 18.8676C14.9052 18.8676 15.7473 19.7097 15.7473 20.7413C15.7473 21.7729 14.9052 22.615 13.8736 22.615C12.842 22.615 11.9999 21.7729 11.9999 20.7413ZM22.463 25.6887C21.1788 26.9729 18.7367 27.0571 18.0209 27.0571C17.3052 27.0571 14.842 26.9518 13.5788 25.6887C13.3894 25.4992 13.3894 25.1834 13.5788 24.9939C13.7683 24.8045 14.0841 24.8045 14.2736 24.9939C15.0736 25.7939 16.7999 26.0887 18.042 26.0887C19.2841 26.0887 20.9894 25.7939 21.8104 24.9939C21.9999 24.8045 22.3157 24.8045 22.5052 24.9939C22.6525 25.2045 22.6525 25.4992 22.463 25.6887ZM22.1262 22.615C21.0946 22.615 20.2525 21.7729 20.2525 20.7413C20.2525 19.7097 21.0946 18.8676 22.1262 18.8676C23.1578 18.8676 23.9999 19.7097 23.9999 20.7413C23.9999 21.7729 23.1578 22.615 22.1262 22.615Z" fill="white"/>
</g>
<defs>
<clipPath id="clip0_7939_9637">
<rect width="36" height="36" fill="white" transform="translate(0 0.867188)"/>
</clipPath>
</defs>
</svg>
