<svg width="44" height="44" viewBox="0 0 44 44" fill="none" xmlns="http://www.w3.org/2000/svg">
<rect width="44" height="44" rx="20" fill="white" fill-opacity="0.1"/>
<path d="M33.7599 22.1577C33.7599 20.7315 32.6025 19.574 31.1763 19.574C30.4735 19.574 29.8534 19.8427 29.3987 20.2975C27.6418 19.0366 25.2028 18.2099 22.5158 18.1065L23.694 12.5878L27.5178 13.3939C27.5591 14.3654 28.3652 15.1508 29.3574 15.1508C30.3702 15.1508 31.1969 14.324 31.1969 13.3112C31.1969 12.2985 30.3702 11.4717 29.3574 11.4717C28.6339 11.4717 28.0139 11.8851 27.7245 12.5051L23.446 11.5957C23.3219 11.575 23.1979 11.5957 23.0946 11.6577C22.9912 11.7197 22.9292 11.8231 22.8879 11.9471L21.5857 18.1065C18.8367 18.1892 16.3771 18.9953 14.5995 20.2975C14.1448 19.8634 13.504 19.574 12.8219 19.574C11.3958 19.574 10.2383 20.7315 10.2383 22.1577C10.2383 23.2118 10.8584 24.1006 11.7678 24.514C11.7265 24.762 11.7058 25.0307 11.7058 25.2994C11.7058 29.2679 16.3151 32.4717 22.0198 32.4717C27.7245 32.4717 32.3338 29.2679 32.3338 25.2994C32.3338 25.0307 32.3131 24.7827 32.2717 24.5347C33.1192 24.1213 33.7599 23.2118 33.7599 22.1577ZM16.0877 23.9973C16.0877 22.9845 16.9145 22.1577 17.9273 22.1577C18.9401 22.1577 19.7668 22.9845 19.7668 23.9973C19.7668 25.0101 18.9401 25.8368 17.9273 25.8368C16.9145 25.8368 16.0877 25.0101 16.0877 23.9973ZM26.3603 28.8546C25.0995 30.1154 22.7019 30.1981 21.9991 30.1981C21.2964 30.1981 18.878 30.0947 17.6379 28.8546C17.4519 28.6685 17.4519 28.3585 17.6379 28.1725C17.8239 27.9864 18.1339 27.9864 18.32 28.1725C19.1054 28.9579 20.8003 29.2473 22.0198 29.2473C23.2393 29.2473 24.9135 28.9579 25.7196 28.1725C25.9056 27.9864 26.2156 27.9864 26.4017 28.1725C26.5464 28.3792 26.5464 28.6685 26.3603 28.8546ZM26.0296 25.8368C25.0168 25.8368 24.1901 25.0101 24.1901 23.9973C24.1901 22.9845 25.0168 22.1577 26.0296 22.1577C27.0424 22.1577 27.8692 22.9845 27.8692 23.9973C27.8692 25.0101 27.0424 25.8368 26.0296 25.8368Z" fill="#ECECEC"/>
</svg>
