<svg width="24" height="24" viewBox="0 0 24 24" fill="none" xmlns="http://www.w3.org/2000/svg">
<g clip-path="url(#clip0_7135_300313)">
<path d="M12 24.0001C18.6275 24.0001 24.0001 18.6275 24.0001 12C24.0001 5.3726 18.6275 0 12 0C5.3726 0 0 5.3726 0 12C0 18.6275 5.3726 24.0001 12 24.0001Z" fill="white"/>
<path fill-rule="evenodd" clip-rule="evenodd" d="M0.688477 7.98536H23.3106C21.659 3.33241 17.2188 0 11.9995 0C6.78023 0 2.34004 3.33241 0.688477 7.98536Z" fill="#0039A6"/>
<path fill-rule="evenodd" clip-rule="evenodd" d="M23.311 7.98633H0.688922C0.243312 9.24173 0 10.5928 0 12.001C0 13.4092 0.243237 14.7602 0.688922 16.0156H23.3112C23.7568 14.7602 24.0001 13.4092 24.0001 12.001C24.0001 10.5928 23.7568 9.24173 23.3112 7.98633H23.311Z" fill="#D52B1E"/>
<path fill-rule="evenodd" clip-rule="evenodd" d="M23.3107 16.0137H0.688477C2.34004 20.6666 6.78031 23.9991 11.9996 23.9991C17.2189 23.9991 21.6591 20.6666 23.3107 16.0137Z" fill="white"/>
</g>
<defs>
<clipPath id="clip0_7135_300313">
<rect width="24" height="24" fill="white"/>
</clipPath>
</defs>
</svg>
