<svg width="48" height="48" viewBox="0 0 48 48" fill="none" xmlns="http://www.w3.org/2000/svg">
<path d="M33.7484 17.9602C33.0312 18.2695 32.2508 18.4922 31.4469 18.5789C32.2815 18.0831 32.9065 17.2997 33.2047 16.3758C32.4215 16.8417 31.5635 17.1684 30.6687 17.3414C30.2948 16.9416 29.8425 16.6231 29.3401 16.4058C28.8377 16.1885 28.2959 16.0769 27.7484 16.0781C25.5336 16.0781 23.7523 17.8734 23.7523 20.0766C23.7523 20.3859 23.7898 20.6953 23.8508 20.993C20.5344 20.8195 17.5766 19.2352 15.6102 16.8094C15.2519 17.4214 15.0641 18.1182 15.0664 18.8274C15.0664 20.2149 15.7719 21.4383 16.8477 22.1578C16.2137 22.1329 15.5946 21.9586 15.0406 21.6492V21.6984C15.0406 23.6414 16.4141 25.2516 18.2445 25.6219C17.9008 25.7112 17.5473 25.7568 17.1922 25.7578C16.932 25.7578 16.6859 25.732 16.4375 25.6969C16.9437 27.2813 18.418 28.432 20.1734 28.4695C18.8 29.5453 17.0797 30.1781 15.2117 30.1781C14.8766 30.1781 14.5672 30.1664 14.2461 30.1289C16.018 31.2656 18.1203 31.9219 20.3844 31.9219C27.7344 31.9219 31.7562 25.8328 31.7562 20.5477C31.7562 20.3742 31.7562 20.2008 31.7445 20.0274C32.5227 19.4578 33.2047 18.7524 33.7484 17.9602Z" fill="#5B616E"/>
<circle cx="24" cy="24" r="23.5" stroke="#DBDBDB"/>
</svg>
