<svg width="24" height="24" viewBox="0 0 24 24" fill="none" xmlns="http://www.w3.org/2000/svg">
<path d="M12.734 22.5533L22.5777 12.6995C23.3612 11.906 23.4415 11.4439 23.4415 10.2988V6.49191C23.4415 5.37695 23.1804 4.99526 22.3668 4.18164L20.0665 1.88142C19.2429 1.0678 18.8612 0.806641 17.7563 0.806641H13.9393C12.8043 0.806641 12.3422 0.886998 11.5587 1.68052L1.6949 11.5243C0.188201 13.031 0.168111 14.6281 1.70494 16.1448L8.11342 22.5533C9.64021 24.07 11.2273 24.06 12.734 22.5533ZM11.4382 21.0165C10.7753 21.6794 10.0822 21.6895 9.39914 21.0064L3.24177 14.8591C2.55874 14.1761 2.57883 13.4729 3.23173 12.82L12.9851 3.08677C13.186 2.88588 13.3768 2.76535 13.6982 2.76535H17.7362C18.0375 2.76535 18.2485 2.87584 18.4494 3.07673L21.1715 5.79883C21.3623 5.99972 21.4728 6.20061 21.4728 6.512V10.5499C21.4728 10.8814 21.3724 11.0723 21.1715 11.2732L11.4382 21.0165ZM16.5007 9.18387C17.3244 9.18387 17.9471 8.55106 17.9471 7.73744C17.9471 6.93387 17.3244 6.29102 16.5007 6.29102C15.6871 6.29102 15.0643 6.93387 15.0643 7.73744C15.0643 8.55106 15.6871 9.18387 16.5007 9.18387Z" fill="url(#paint0_linear_5528_25002)"/>
<defs>
<linearGradient id="paint0_linear_5528_25002" x1="0.558594" y1="23.6871" x2="25.5848" y2="4.73657" gradientUnits="userSpaceOnUse">
<stop offset="0.411458" stop-color="#9D3EF2"/>
<stop offset="1" stop-color="#3036F4"/>
</linearGradient>
</defs>
</svg>
