<svg width="36" height="37" viewBox="0 0 36 37" fill="none" xmlns="http://www.w3.org/2000/svg">
<g clip-path="url(#clip0_7939_9628)">
<path d="M18 36.8672C27.9411 36.8672 36 28.8083 36 18.8672C36 8.92606 27.9411 0.867188 18 0.867188C8.05887 0.867188 0 8.92606 0 18.8672C0 28.8083 8.05887 36.8672 18 36.8672Z" fill="url(#paint0_linear_7939_9628)"/>
<path fill-rule="evenodd" clip-rule="evenodd" d="M8.14753 18.6771C13.3949 16.3909 16.894 14.8837 18.6447 14.1555C23.6435 12.0764 24.6822 11.7152 25.3592 11.7033C25.5081 11.7006 25.8411 11.7375 26.0567 11.9125C26.2388 12.0603 26.2889 12.2599 26.3129 12.4C26.3369 12.5401 26.3668 12.8592 26.343 13.1086C26.0721 15.9548 24.9 22.8618 24.3037 26.0497C24.0514 27.3985 23.5546 27.8508 23.0736 27.8951C22.0283 27.9913 21.2345 27.2043 20.2221 26.5406C18.6379 25.5021 17.7429 24.8557 16.2051 23.8423C14.428 22.6712 15.58 22.0275 16.5928 20.9756C16.8579 20.7003 21.4635 16.5112 21.5526 16.1311C21.5637 16.0836 21.5741 15.9064 21.4688 15.8129C21.3636 15.7193 21.2083 15.7513 21.0962 15.7768C20.9373 15.8128 18.4064 17.4856 13.5037 20.7951C12.7853 21.2884 12.1346 21.5288 11.5516 21.5162C10.9089 21.5023 9.67265 21.1528 8.7536 20.854C7.62635 20.4876 6.73043 20.2939 6.80845 19.6716C6.84908 19.3474 7.29544 19.016 8.14753 18.6771Z" fill="white"/>
</g>
<defs>
<linearGradient id="paint0_linear_7939_9628" x1="18" y1="0.867188" x2="18" y2="36.6002" gradientUnits="userSpaceOnUse">
<stop stop-color="#2AABEE"/>
<stop offset="1" stop-color="#229ED9"/>
</linearGradient>
<clipPath id="clip0_7939_9628">
<rect width="36" height="36" fill="white" transform="translate(0 0.867188)"/>
</clipPath>
</defs>
</svg>
