<svg width="24" height="23" viewBox="0 0 24 23" fill="none" xmlns="http://www.w3.org/2000/svg">
<path d="M11.9944 23C18.3197 23 23.5 17.8197 23.5 11.4944C23.5 5.18028 18.3308 0 12.0056 0C11.3163 0 10.9273 0.41131 10.9273 1.0783V5.16916C10.9273 5.7361 11.3275 6.18076 11.8944 6.18076C12.4613 6.18076 12.8615 5.7361 12.8615 5.16916V2.31223C17.5638 2.74577 21.1878 6.68101 21.1878 11.4944C21.1878 16.5858 17.108 20.6989 11.9944 20.6989C6.89198 20.6989 2.79 16.5858 2.80111 11.4944C2.81223 9.30449 3.57927 7.27018 4.86878 5.70275C5.2912 5.1247 5.3579 4.51329 4.87989 4.03528C4.40189 3.55727 3.63485 3.60174 3.13461 4.25761C1.50048 6.23635 0.5 8.75979 0.5 11.4944C0.5 17.8197 5.68028 23 11.9944 23ZM13.7842 13.2064C14.6957 12.2392 14.5068 10.9275 13.4174 10.1827L7.77018 6.30304C7.10319 5.85839 6.45843 6.51426 6.90309 7.18125L10.7827 12.8173C11.5275 13.9178 12.8393 14.1179 13.7842 13.2064Z" fill="url(#paint0_linear_4619_151759)"/>
<defs>
<linearGradient id="paint0_linear_4619_151759" x1="0.5" y1="23" x2="25.6563" y2="3.95312" gradientUnits="userSpaceOnUse">
<stop offset="0.411458" stop-color="#9D3EF2"/>
<stop offset="1" stop-color="#3036F4"/>
</linearGradient>
</defs>
</svg>
