<svg width="40" height="40" viewBox="0 0 40 40" fill="none" xmlns="http://www.w3.org/2000/svg">
<rect width="40" height="40" rx="20" fill="white" fill-opacity="0.1"/>
<path d="M30 12.009C29 12.499 28.02 12.698 27 12.999C25.879 11.734 24.217 11.664 22.62 12.262C21.023 12.86 19.977 14.322 20 15.999V16.999C16.755 17.082 13.865 15.604 12 12.999C12 12.999 7.818 20.432 16 23.999C14.128 25.246 12.261 26.087 10 25.999C13.308 27.802 16.913 28.422 20.034 27.516C23.614 26.476 26.556 23.793 27.685 19.774C28.0218 18.5517 28.189 17.2889 28.182 16.021C28.18 15.772 29.692 13.249 30 12.008V12.009Z" stroke="#ECECEC" stroke-width="1.75" stroke-linecap="round" stroke-linejoin="round"/>
</svg>
