<svg width="14" height="14" viewBox="0 0 14 14" fill="none" xmlns="http://www.w3.org/2000/svg">
<path d="M7 2.33331C7.15471 2.33331 7.30308 2.39477 7.41248 2.50417L10.9125 6.00417C11.1403 6.23197 11.1403 6.60132 10.9125 6.82913C10.6847 7.05693 10.3153 7.05693 10.0875 6.82913L7.58333 4.32494L7.58333 11.0833C7.58333 11.4055 7.32216 11.6666 7 11.6666C6.67783 11.6666 6.41666 11.4055 6.41666 11.0833L6.41667 4.32494L3.91248 6.82913C3.68467 7.05693 3.31532 7.05693 3.08752 6.82913C2.85971 6.60132 2.85971 6.23197 3.08752 6.00417L6.58752 2.50417C6.69692 2.39477 6.84529 2.33331 7 2.33331Z" fill="#129961"/>
</svg>
