<svg width="88" height="88" viewBox="0 0 88 88" fill="none" xmlns="http://www.w3.org/2000/svg">
<g filter="url(#filter0_b_508_82277)">
<rect width="88" height="88" rx="16" fill="url(#paint0_linear_508_82277)" fill-opacity="0.9"/>
<path d="M56.6104 14H31.9351C29.2095 14 27 16.6863 27 20V68C27 71.3137 29.2095 74 31.9351 74H56.6104C59.336 74 61.5455 71.3137 61.5455 68V20C61.5455 16.6863 59.336 14 56.6104 14Z" stroke="#ECECEC" stroke-width="2" stroke-linecap="round" stroke-linejoin="round"/>
<path d="M44.2734 68.5455H44.303" stroke="#ECECEC" stroke-width="3.63636" stroke-linecap="round" stroke-linejoin="round"/>
<line x1="27" y1="63" x2="61.5455" y2="63" stroke="#ECECEC" stroke-width="2"/>
<line x1="27" y1="22" x2="61.5455" y2="22" stroke="#ECECEC" stroke-width="2.18182"/>
<rect x="38.8184" y="16.7273" width="10.9091" height="0.909091" rx="0.454545" fill="#ECECEC"/>
<path d="M38.5446 45.3173C38.5446 46.0359 38.2855 46.6021 37.7672 47.0158C37.2525 47.4295 36.5348 47.6363 35.6141 47.6363C34.766 47.6363 34.0157 47.4767 33.3633 47.1573V45.5895C33.8997 45.8291 34.3528 45.9978 34.7225 46.0958C35.0958 46.1938 35.4365 46.2428 35.7446 46.2428C36.1143 46.2428 36.3971 46.172 36.5928 46.0305C36.7921 45.8889 36.8918 45.6784 36.8918 45.399C36.8918 45.243 36.8483 45.105 36.7613 44.9853C36.6743 44.8619 36.5457 44.7439 36.3753 44.6314C36.2086 44.5189 35.8661 44.3393 35.3477 44.0925C34.862 43.8639 34.4978 43.6443 34.2549 43.4338C34.0121 43.2234 33.8182 42.9784 33.6732 42.6989C33.5282 42.4195 33.4557 42.0929 33.4557 41.7191C33.4557 41.015 33.6931 40.4616 34.1679 40.0588C34.6464 39.6559 35.3061 39.4545 36.147 39.4545C36.5602 39.4545 36.9534 39.5035 37.3268 39.6015C37.7037 39.6995 38.097 39.8374 38.5066 40.0152L37.9629 41.3271C37.5388 41.153 37.1872 41.0314 36.9081 40.9624C36.6327 40.8935 36.3608 40.859 36.0926 40.859C35.7736 40.859 35.529 40.9334 35.3586 41.0822C35.1883 41.231 35.1031 41.4251 35.1031 41.6647C35.1031 41.8134 35.1375 41.9441 35.2064 42.0566C35.2752 42.1655 35.384 42.2725 35.5326 42.3778C35.6848 42.4794 36.0418 42.6645 36.6037 42.933C37.3467 43.2887 37.856 43.6461 38.1314 44.0054C38.4069 44.3611 38.5446 44.7984 38.5446 45.3173Z" fill="#ECECEC"/>
<path d="M43.3508 47.5275L41.437 41.2836H41.3881C41.457 42.5538 41.4914 43.4012 41.4914 43.8258V47.5275H39.9854V39.5688H42.2798L44.1609 45.6549H44.1935L46.1889 39.5688H48.4832V47.5275H46.912V43.7605C46.912 43.5826 46.9138 43.3776 46.9174 43.1453C46.9247 42.9131 46.95 42.2961 46.9935 41.2945H46.9446L44.8949 47.5275H43.3508Z" fill="#ECECEC"/>
<path d="M55.1815 45.3173C55.1815 46.0359 54.9223 46.6021 54.404 47.0158C53.8893 47.4295 53.1716 47.6363 52.251 47.6363C51.4028 47.6363 50.6525 47.4767 50.0001 47.1573V45.5895C50.5366 45.8291 50.9896 45.9978 51.3593 46.0958C51.7327 46.1938 52.0734 46.2428 52.3815 46.2428C52.7512 46.2428 53.0339 46.172 53.2296 46.0305C53.429 45.8889 53.5287 45.6784 53.5287 45.399C53.5287 45.243 53.4852 45.105 53.3982 44.9853C53.3112 44.8619 53.1825 44.7439 53.0121 44.6314C52.8454 44.5189 52.5029 44.3393 51.9846 44.0925C51.4989 43.8639 51.1346 43.6443 50.8918 43.4338C50.6489 43.2234 50.455 42.9784 50.31 42.6989C50.165 42.4195 50.0925 42.0929 50.0925 41.7191C50.0925 41.015 50.33 40.4616 50.8048 40.0588C51.2832 39.6559 51.9429 39.4545 52.7838 39.4545C53.197 39.4545 53.5903 39.5035 53.9636 39.6015C54.3406 39.6995 54.7338 39.8374 55.1434 40.0152L54.5997 41.3271C54.1756 41.153 53.8241 41.0314 53.545 40.9624C53.2695 40.8935 52.9977 40.859 52.7294 40.859C52.4105 40.859 52.1658 40.9334 51.9955 41.0822C51.8251 41.231 51.7399 41.4251 51.7399 41.6647C51.7399 41.8134 51.7744 41.9441 51.8432 42.0566C51.9121 42.1655 52.0208 42.2725 52.1694 42.3778C52.3217 42.4794 52.6787 42.6645 53.2405 42.933C53.9835 43.2887 54.4928 43.6461 54.7683 44.0054C55.0437 44.3611 55.1815 44.7984 55.1815 45.3173Z" fill="#ECECEC"/>
<rect x="0.75" y="0.75" width="86.5" height="86.5" rx="15.25" stroke="url(#paint1_linear_508_82277)" stroke-opacity="0.6" stroke-width="1.5"/>
</g>
<defs>
<filter id="filter0_b_508_82277" x="-30" y="-30" width="148" height="148" filterUnits="userSpaceOnUse" color-interpolation-filters="sRGB">
<feFlood flood-opacity="0" result="BackgroundImageFix"/>
<feGaussianBlur in="BackgroundImage" stdDeviation="15"/>
<feComposite in2="SourceAlpha" operator="in" result="effect1_backgroundBlur_508_82277"/>
<feBlend mode="normal" in="SourceGraphic" in2="effect1_backgroundBlur_508_82277" result="shape"/>
</filter>
<linearGradient id="paint0_linear_508_82277" x1="3.92471" y1="3.7542e-07" x2="68.2965" y2="19.0814" gradientUnits="userSpaceOnUse">
<stop stop-color="white" stop-opacity="0.1"/>
<stop offset="1" stop-color="white" stop-opacity="0.04"/>
</linearGradient>
<linearGradient id="paint1_linear_508_82277" x1="4.9329" y1="-3.97788e-06" x2="105.355" y2="30.1" gradientUnits="userSpaceOnUse">
<stop stop-color="white" stop-opacity="0.5"/>
<stop offset="0.435045" stop-color="white" stop-opacity="0.2"/>
<stop offset="1" stop-color="#151C2E" stop-opacity="0.5"/>
</linearGradient>
</defs>
</svg>
