<svg width="80" height="80" viewBox="0 0 80 80" fill="none" xmlns="http://www.w3.org/2000/svg">
<rect width="80" height="80" rx="8" fill="#F3F2F1"/>
<path d="M52.6104 10H27.9351C25.2095 10 23 12.6863 23 16V64C23 67.3137 25.2095 70 27.9351 70H52.6104C55.336 70 57.5455 67.3137 57.5455 64V16C57.5455 12.6863 55.336 10 52.6104 10Z" stroke="#605E5C" stroke-width="2" stroke-linecap="round" stroke-linejoin="round"/>
<path d="M40.2727 64.5455H40.3023" stroke="#605E5C" stroke-width="3.63636" stroke-linecap="round" stroke-linejoin="round"/>
<line x1="23" y1="59" x2="57.5455" y2="59" stroke="#605E5C" stroke-width="2"/>
<line x1="23" y1="18" x2="57.5455" y2="18" stroke="#605E5C" stroke-width="2.18182"/>
<rect x="34.8182" y="12.7273" width="10.9091" height="0.909091" rx="0.454545" fill="#605E5C"/>
<path d="M34.545 41.3174C34.545 42.0359 34.2858 42.6021 33.7675 43.0158C33.2528 43.4295 32.5352 43.6364 31.6145 43.6364C30.7664 43.6364 30.0161 43.4767 29.3636 43.1573V41.5896C29.9001 41.8291 30.3532 41.9978 30.7229 42.0958C31.0962 42.1938 31.4369 42.2428 31.745 42.2428C32.1147 42.2428 32.3974 42.172 32.5932 42.0305C32.7925 41.889 32.8922 41.6785 32.8922 41.399C32.8922 41.243 32.8487 41.1051 32.7617 40.9853C32.6747 40.8619 32.546 40.744 32.3757 40.6315C32.2089 40.519 31.8664 40.3393 31.3481 40.0926C30.8624 39.8639 30.4981 39.6444 30.2553 39.4339C30.0124 39.2234 29.8185 38.9784 29.6735 38.699C29.5286 38.4195 29.4561 38.0929 29.4561 37.7191C29.4561 37.0151 29.6935 36.4616 30.1683 36.0588C30.6468 35.656 31.3064 35.4546 32.1473 35.4546C32.5605 35.4546 32.9538 35.5036 33.3271 35.6015C33.7041 35.6995 34.0974 35.8374 34.5069 36.0153L33.9632 37.3272C33.5392 37.153 33.1876 37.0314 32.9085 36.9625C32.633 36.8935 32.3612 36.859 32.093 36.859C31.774 36.859 31.5293 36.9334 31.359 37.0822C31.1886 37.231 31.1034 37.4252 31.1034 37.6647C31.1034 37.8135 31.1379 37.9441 31.2067 38.0566C31.2756 38.1655 31.3844 38.2726 31.533 38.3778C31.6852 38.4794 32.0422 38.6645 32.604 38.9331C33.3471 39.2887 33.8563 39.6462 34.1318 40.0055C34.4073 40.3611 34.545 40.7984 34.545 41.3174Z" fill="#605E5C"/>
<path d="M39.3512 43.5275L37.4374 37.2836H37.3885C37.4573 38.5538 37.4918 39.4012 37.4918 39.8258V43.5275H35.9858V35.5689H38.2801L40.1613 41.6549H40.1939L42.1892 35.5689H44.4836V43.5275H42.9123V39.7605C42.9123 39.5827 42.9142 39.3776 42.9178 39.1454C42.925 38.9131 42.9504 38.2961 42.9939 37.2945H42.945L40.8953 43.5275H39.3512Z" fill="#605E5C"/>
<path d="M51.1818 41.3174C51.1818 42.0359 50.9227 42.6021 50.4044 43.0158C49.8897 43.4295 49.172 43.6364 48.2514 43.6364C47.4032 43.6364 46.6529 43.4767 46.0005 43.1573V41.5896C46.5369 41.8291 46.99 41.9978 47.3597 42.0958C47.733 42.1938 48.0737 42.2428 48.3818 42.2428C48.7515 42.2428 49.0343 42.172 49.23 42.0305C49.4293 41.889 49.529 41.6785 49.529 41.399C49.529 41.243 49.4855 41.1051 49.3985 40.9853C49.3115 40.8619 49.1829 40.744 49.0125 40.6315C48.8458 40.519 48.5033 40.3393 47.9849 40.0926C47.4993 39.8639 47.135 39.6444 46.8921 39.4339C46.6493 39.2234 46.4554 38.9784 46.3104 38.699C46.1654 38.4195 46.0929 38.0929 46.0929 37.7191C46.0929 37.0151 46.3303 36.4616 46.8051 36.0588C47.2836 35.656 47.9433 35.4546 48.7842 35.4546C49.1974 35.4546 49.5906 35.5036 49.964 35.6015C50.3409 35.6995 50.7342 35.8374 51.1438 36.0153L50.6001 37.3272C50.176 37.153 49.8244 37.0314 49.5453 36.9625C49.2699 36.8935 48.998 36.859 48.7298 36.859C48.4108 36.859 48.1662 36.9334 47.9958 37.0822C47.8255 37.231 47.7403 37.4252 47.7403 37.6647C47.7403 37.8135 47.7747 37.9441 47.8436 38.0566C47.9125 38.1655 48.0212 38.2726 48.1698 38.3778C48.322 38.4794 48.6791 38.6645 49.2409 38.9331C49.9839 39.2887 50.4932 39.6462 50.7686 40.0055C51.0441 40.3611 51.1818 40.7984 51.1818 41.3174Z" fill="#605E5C"/>
</svg>
