<svg width="37" height="48" viewBox="0 0 37 48" fill="none" xmlns="http://www.w3.org/2000/svg">
<path d="M10.9131 20.6355C10.869 20.4405 10.7861 20.2562 10.6693 20.0935C10.5526 19.9308 10.4043 19.7929 10.2332 19.688C10.0621 19.5831 9.87169 19.5133 9.67308 19.4826C9.47446 19.4519 9.27169 19.4611 9.07668 19.5095C8.88166 19.5578 8.69834 19.6445 8.53748 19.7644C8.37663 19.8842 8.24148 20.0349 8.13999 20.2074C8.0385 20.38 7.97271 20.5709 7.94648 20.7691C7.92026 20.9673 7.93414 21.1687 7.98729 21.3615L12.5117 39.3615C12.5932 39.6828 12.7793 39.9682 13.0411 40.1732C13.3028 40.3781 13.6254 40.4912 13.9585 40.4946C14.2916 40.498 14.6165 40.3917 14.8824 40.1921C15.1484 39.9925 15.3404 39.711 15.4285 39.3915L18.4991 28.2045L21.5697 39.3945C21.6578 39.714 21.8499 39.9955 22.1158 40.1951C22.3817 40.3946 22.7066 40.501 23.0397 40.4976C23.3728 40.4942 23.6954 40.3811 23.9572 40.1762C24.2189 39.9712 24.405 39.6858 24.4865 39.3645L29.0109 21.3645C29.0974 20.9823 29.0301 20.5816 28.8234 20.248C28.6166 19.9145 28.2869 19.6747 27.9046 19.5798C27.5224 19.485 27.1181 19.5427 26.778 19.7405C26.438 19.9384 26.1893 20.2607 26.0851 20.6385L22.9602 33.0705L19.953 22.1055C19.8652 21.789 19.6754 21.5099 19.4128 21.311C19.1502 21.1121 18.8292 21.0044 18.4991 21.0044C18.169 21.0044 17.848 21.1121 17.5854 21.311C17.3228 21.5099 17.133 21.789 17.0453 22.1055L14.038 33.0705L10.9131 20.6385V20.6355Z" fill="#4B87E4"/>
<path d="M36.598 42V13.5L23.0246 0H6.43495C4.83501 0 3.30059 0.632141 2.16925 1.75736C1.03792 2.88257 0.402344 4.4087 0.402344 5.99999V42C0.402344 43.5913 1.03792 45.1174 2.16925 46.2426C3.30059 47.3678 4.83501 48 6.43495 48H30.5654C32.1653 48 33.6998 47.3678 34.8311 46.2426C35.9624 45.1174 36.598 43.5913 36.598 42ZM23.0246 8.99999C23.0246 10.1935 23.5013 11.3381 24.3498 12.182C25.1983 13.0259 26.3491 13.5 27.5491 13.5H33.5817V42C33.5817 42.7956 33.2639 43.5587 32.6982 44.1213C32.1326 44.6839 31.3654 45 30.5654 45H6.43495C5.63498 45 4.86777 44.6839 4.3021 44.1213C3.73644 43.5587 3.41865 42.7956 3.41865 42V5.99999C3.41865 5.20435 3.73644 4.44128 4.3021 3.87868C4.86777 3.31607 5.63498 3 6.43495 3H23.0246V8.99999Z" fill="#4B87E4"/>
</svg>
