<svg width="36" height="37" viewBox="0 0 36 37" fill="none" xmlns="http://www.w3.org/2000/svg">
<g clip-path="url(#clip0_7939_9636)">
<path d="M35.2834 10.1455C35.0799 9.37967 34.6788 8.68068 34.1202 8.11853C33.5616 7.55638 32.8652 7.1508 32.1007 6.94237C29.2861 6.18555 18.0361 6.18555 18.0361 6.18555C18.0361 6.18555 6.78613 6.18555 3.97159 6.94237C3.20703 7.1508 2.51062 7.55638 1.95206 8.11853C1.39351 8.68068 0.992391 9.37967 0.78886 10.1455C0.0361329 12.9724 0.0361328 18.8674 0.0361328 18.8674C0.0361328 18.8674 0.0361329 24.7624 0.78886 27.5892C0.992391 28.3551 1.39351 29.054 1.95206 29.6162C2.51062 30.1783 3.20703 30.5839 3.97159 30.7924C6.78613 31.5492 18.0361 31.5492 18.0361 31.5492C18.0361 31.5492 29.2861 31.5492 32.1007 30.7924C32.8652 30.5839 33.5616 30.1783 34.1202 29.6162C34.6788 29.054 35.0799 28.3551 35.2834 27.5892C36.0361 24.7624 36.0361 18.8674 36.0361 18.8674C36.0361 18.8674 36.0361 12.9724 35.2834 10.1455Z" fill="#FF0302"/>
<path d="M14.3535 24.2206V13.5146L23.7626 18.8676L14.3535 24.2206Z" fill="#FEFEFE"/>
</g>
<defs>
<clipPath id="clip0_7939_9636">
<rect width="36" height="36" fill="white" transform="translate(0 0.867188)"/>
</clipPath>
</defs>
</svg>
