<svg width="48" height="49" viewBox="0 0 48 49" fill="none" xmlns="http://www.w3.org/2000/svg">
<circle opacity="0.6" cx="24" cy="24.8438" r="24" fill="white"/>
<g opacity="0.6">
<path d="M26.7793 17.1631L18.1905 25.7519C18.0686 25.8743 18.0001 26.04 18.0001 26.2127C18.0001 26.3854 18.0686 26.5511 18.1905 26.6735L26.7793 35.2623C27.0186 35.5033 27.3439 35.6394 27.6836 35.6406C28.0233 35.6418 28.3495 35.508 28.5905 35.2687C28.8315 35.0294 28.9676 34.7041 28.9688 34.3644C28.97 34.0248 28.8362 33.6985 28.5969 33.4575L21.8257 26.6735C21.7038 26.5511 21.6353 26.3854 21.6353 26.2127C21.6353 26.04 21.7038 25.8743 21.8257 25.7519L28.5969 18.9679C28.7309 18.8532 28.8397 18.7119 28.9166 18.5531C28.9934 18.3943 29.0366 18.2214 29.0434 18.0451C29.0502 17.8688 29.0205 17.693 28.9561 17.5288C28.8918 17.3645 28.7942 17.2153 28.6694 17.0906C28.5447 16.9658 28.3955 16.8682 28.2313 16.8039C28.067 16.7395 27.8912 16.7098 27.7149 16.7166C27.5386 16.7234 27.3657 16.7666 27.2069 16.8435C27.0481 16.9203 26.9069 17.0291 26.7921 17.1631L26.7793 17.1631Z" fill="#5A6273"/>
</g>
</svg>
