<svg width="48" height="49" viewBox="0 0 48 49" fill="none" xmlns="http://www.w3.org/2000/svg">
<circle r="24" transform="matrix(-1 0 0 1 24 24.8438)" fill="white"/>
<path d="M23.265 16.3662L31.8538 24.955C31.9758 25.0774 32.0442 25.2431 32.0442 25.4158C32.0442 25.5886 31.9758 25.7543 31.8538 25.8766L23.265 34.4654C23.0257 34.7065 22.7004 34.8425 22.3607 34.8437C22.0211 34.8449 21.6948 34.7112 21.4538 34.4718C21.2128 34.2325 21.0767 33.9072 21.0755 33.5676C21.0743 33.2279 21.2081 32.9017 21.4474 32.6606L28.2186 25.8766C28.3406 25.7543 28.409 25.5886 28.409 25.4158C28.409 25.2431 28.3406 25.0774 28.2186 24.955L21.4474 18.171C21.3134 18.0563 21.2046 17.9151 21.1278 17.7563C21.0509 17.5975 21.0078 17.4245 21.001 17.2482C20.9941 17.0719 21.0238 16.8961 21.0882 16.7319C21.1526 16.5676 21.2502 16.4185 21.3749 16.2937C21.4996 16.169 21.6488 16.0714 21.8131 16.007C21.9773 15.9427 22.1531 15.913 22.3294 15.9198C22.5057 15.9266 22.6787 15.9697 22.8375 16.0466C22.9963 16.1234 23.1375 16.2322 23.2522 16.3662L23.265 16.3662Z" fill="#5A6273"/>
</svg>
