<svg width="26" height="26" viewBox="0 0 26 26" fill="none" xmlns="http://www.w3.org/2000/svg">
<path d="M23.8125 5.146H10.7583C10.3395 5.146 10 5.48551 10 5.90433C10 6.32315 10.3395 6.66266 10.7583 6.66266H23.8125C24.2313 6.66266 24.5708 6.32315 24.5708 5.90433C24.5708 5.48551 24.2313 5.146 23.8125 5.146Z" fill="white"/>
<path d="M23.8125 19.2832H10.7583C10.3395 19.2832 10 19.6227 10 20.0415C10 20.4604 10.3395 20.7999 10.7583 20.7999H23.8125C24.2313 20.7999 24.5708 20.4604 24.5708 20.0415C24.5708 19.6227 24.2313 19.2832 23.8125 19.2832Z" fill="white"/>
<path d="M24.075 12.2417H1.75833C1.33952 12.2417 1 12.5812 1 13C1 13.4188 1.33952 13.7584 1.75833 13.7584H24.075C24.4938 13.7584 24.8333 13.4188 24.8333 13C24.8333 12.5812 24.4938 12.2417 24.075 12.2417Z" fill="white"/>
</svg>
